<?xml version="1.0" encoding="UTF-8"?>
<svg version="1.1" xmlns="http://www.w3.org/2000/svg" width="500" height="500">
<path d="M0 0 C2.78610885 0.11048616 5.569076 0.16613963 8.35693359 0.21191406 C34.35777306 0.78306456 57.91955391 6.31180232 82.09912109 15.80175781 C85.79980926 17.11642434 89.28767969 17.84997266 93.15771484 18.48535156 C108.40040262 21.32339756 117.8415139 29.79111953 126.89428711 42.0324707 C129.93767955 46.11884005 133.21493245 49.85304885 136.72021484 53.54785156 C160.78271484 79.06763068 160.78271484 79.06763068 160.78271484 87.11035156 C161.71083984 86.94535156 162.63896484 86.78035156 163.59521484 86.61035156 C173.61412919 85.23122975 181.56634443 85.66557865 190.09521484 91.29785156 C194.38427303 95.78640083 195.89610588 100.31574009 196.15771484 106.48535156 C195.62486316 118.93276694 188.9157775 129.07361528 180.78271484 138.11035156 C180.16396484 138.60535156 179.54521484 139.10035156 178.90771484 139.61035156 C177.42738004 141.21728231 177.42738004 141.21728231 178.21240234 144.20410156 C178.40060547 145.16316406 178.58880859 146.12222656 178.78271484 147.11035156 C179.97509766 146.54445312 181.16748047 145.97855469 182.39599609 145.39550781 C183.96236015 144.6545332 185.52876872 143.91365268 187.09521484 143.17285156 C187.88089844 142.79966797 188.66658203 142.42648438 189.47607422 142.04199219 C190.23339844 141.68427734 190.99072266 141.3265625 191.77099609 140.95800781 C192.46749268 140.62808838 193.16398926 140.29816895 193.8815918 139.95825195 C198.18070017 138.04085072 202.1311594 137.61686631 206.78271484 138.11035156 C214.27138895 141.24514537 217.68734953 148.39977346 220.78271484 155.42285156 C222.89242449 160.11525737 224.98131171 164.59341035 227.78271484 168.92285156 C230.65187484 173.91227217 230.91312224 179.52847779 229.78271484 185.11035156 C226.65392351 190.6949819 221.06591981 193.04790947 215.59521484 195.92285156 C214.61866943 196.44403564 213.64212402 196.96521973 212.63598633 197.50219727 C206.59018729 200.70233439 200.50667084 203.82606808 194.34521484 206.79785156 C193.67917236 207.12438721 193.01312988 207.45092285 192.3269043 207.78735352 C188.15294765 209.7426487 184.38644425 210.8181388 179.78271484 211.11035156 C176.03271484 209.73535156 176.03271484 209.73535156 172.78271484 208.11035156 C171.79271484 207.78035156 170.80271484 207.45035156 169.78271484 207.11035156 C169.56099609 207.81675781 169.33927734 208.52316406 169.11083984 209.25097656 C166.44708315 216.9334053 162.91159186 223.66022186 158.72021484 230.61035156 C158.20168945 231.47047852 157.68316406 232.33060547 157.14892578 233.21679688 C154.57359081 237.41345597 151.86560669 241.26597804 148.78271484 245.11035156 C148.55102937 247.19759925 148.55102937 247.19759925 150.14599609 248.52050781 C150.78923828 249.06578125 151.43248047 249.61105469 152.09521484 250.17285156 C153.17416016 251.10097656 153.17416016 251.10097656 154.27490234 252.04785156 C156.06475997 253.519884 157.88646769 254.95353676 159.72802734 256.36035156 C161.20916016 257.50503906 161.20916016 257.50503906 162.72021484 258.67285156 C163.65736328 259.37539063 164.59451172 260.07792969 165.56005859 260.80175781 C168.27877504 263.62559159 168.7672996 265.21543263 168.78271484 269.11035156 C162.58144858 281.07324207 145.76013952 289.846821 134.78271484 297.11035156 C133.71150391 297.82320313 132.64029297 298.53605469 131.53662109 299.27050781 C96.87198338 321.48237122 57.37991473 329.98306089 16.78271484 331.11035156 C15.65978027 331.14539795 15.65978027 331.14539795 14.51416016 331.18115234 C-33.38754853 332.52746867 -82.44515649 319.89514971 -120.69726562 290.27636719 C-122.54469853 288.8591909 -124.4437511 287.52045402 -126.34228516 286.17285156 C-150.20535832 268.15805891 -150.20535832 268.15805891 -152.90478516 257.36035156 C-151.78186659 252.05200927 -147.54917704 250.01941067 -143.21728516 247.11035156 C-142.26015625 246.45099609 -142.26015625 246.45099609 -141.28369141 245.77832031 C-139.94226624 244.86795263 -138.582114 243.98524185 -137.21728516 243.11035156 C-138.72277719 238.92929597 -140.79626689 235.3699263 -143.15478516 231.61035156 C-147.21728516 225.11035156 -147.21728516 225.11035156 -148.74072266 222.34863281 C-150.3257342 219.94595659 -151.36971796 219.08779735 -153.90478516 217.79785156 C-154.70142578 217.38535156 -155.49806641 216.97285156 -156.31884766 216.54785156 C-157.27533203 216.07347656 -158.23181641 215.59910156 -159.21728516 215.11035156 C-160.41290374 214.50679085 -161.6081942 213.90257987 -162.80322266 213.29785156 C-168.26361469 210.54680914 -173.73466994 207.81949295 -179.24462891 205.16894531 C-202.36142429 193.96621242 -202.36142429 193.96621242 -209.21728516 187.11035156 C-209.04834228 181.47610657 -206.34527349 177.44583631 -203.46728516 172.79785156 C-202.55362399 171.28928215 -201.64085439 169.78017238 -200.72900391 168.27050781 C-200.29249512 167.55266113 -199.85598633 166.83481445 -199.40625 166.09521484 C-197.57968788 163.04594378 -195.90160649 159.92225008 -194.25244141 156.77441406 C-193.02649675 154.80365019 -192.10672804 153.48833452 -190.21728516 152.11035156 C-184.45241556 151.10554416 -180.38674942 153.75304725 -175.52978516 156.48535156 C-174.77117187 156.89785156 -174.01255859 157.31035156 -173.23095703 157.73535156 C-170.13512947 159.42944961 -167.15635047 161.15097469 -164.21728516 163.11035156 C-164.24048828 162.44132813 -164.26369141 161.77230469 -164.28759766 161.08300781 C-164.3785915 156.24083535 -164.35899668 151.58802742 -163.52587891 146.80957031 C-161.93228826 139.03309517 -161.93228826 139.03309517 -163.36181641 131.45800781 C-165.16992532 129.33154112 -166.96454563 127.75501466 -169.21728516 126.11035156 C-169.94947266 125.53929687 -170.68166016 124.96824219 -171.43603516 124.37988281 C-172.80633013 123.33478465 -174.19800919 122.31672375 -175.61572266 121.33691406 C-177.21728516 120.11035156 -177.21728516 120.11035156 -178.21728516 118.11035156 C-178.67183061 112.76944247 -178.67183061 112.76944247 -176.96728516 110.29785156 C-175.05136714 108.99776434 -173.4875805 108.50178179 -171.21728516 108.11035156 C-170.99041016 107.01722656 -170.76353516 105.92410156 -170.52978516 104.79785156 C-169.21728516 101.11035156 -169.21728516 101.11035156 -166.71728516 99.23535156 C-165.47978516 98.67847656 -165.47978516 98.67847656 -164.21728516 98.11035156 C-163.55728516 97.78035156 -162.89728516 97.45035156 -162.21728516 97.11035156 C-161.88728516 95.95535156 -161.55728516 94.80035156 -161.21728516 93.61035156 C-160.88728516 92.45535156 -160.55728516 91.30035156 -160.21728516 90.11035156 C-158.21728516 89.11035156 -158.21728516 89.11035156 -156.08056641 89.39941406 C-153.19188608 89.77985282 -151.05527499 89.80800612 -148.21728516 89.11035156 C-146.01624563 86.79902029 -144.70442373 84.35969442 -143.16650391 81.56347656 C-140.92591895 77.59418378 -138.38565506 74.00254167 -135.65478516 70.36035156 C-135.14939209 69.68480225 -134.64399902 69.00925293 -134.12329102 68.31323242 C-129.78629433 62.63413557 -125.03072013 57.43372805 -120.08935547 52.27905273 C-116.98302417 49.03424747 -114.08152534 45.79140773 -111.40478516 42.17285156 C-107.91518116 37.48176366 -103.63854666 33.89762085 -99.21728516 30.11035156 C-96.5709833 27.58433616 -94.23991612 25.13946556 -91.99462891 22.25097656 C-89.24361133 18.93943536 -86.17074027 16.73825194 -82.52978516 14.48535156 C-81.9169165 14.09927734 -81.30404785 13.71320313 -80.67260742 13.31542969 C-72.46851183 8.26675548 -64.36136653 4.81228121 -54.60400391 5.18847656 C-39.99218181 5.83501653 -39.99218181 5.83501653 -25.90478516 2.61035156 C-17.22164574 -0.6049532 -9.17200065 -0.38615534 0 0 Z " fill="#230767" transform="translate(239.21728515625,86.8896484375)"/>
<path d="M0 0 C8.09339607 8.47879588 10.28265555 16.76598685 10.234375 28.29296875 C9.90334525 33.52875604 8.61544697 38.0190385 7 43 C9.97 36.73 12.94 30.46 16 24 C16.33 24 16.66 24 17 24 C17.8957921 33.57502227 15.32752397 41.1939455 12 50 C13.13136586 48.44210317 14.25482321 46.87846143 15.375 45.3125 C16.00148438 44.44238281 16.62796875 43.57226562 17.2734375 42.67578125 C21.90411527 35.49927837 21.70008718 28.26769618 21 20 C20.01669836 16.14100488 18.63761747 12.6218839 17 9 C16.3277416 7.33558092 15.6594899 5.66951948 15 4 C26.36093531 3.59100633 36.73895595 3.50296434 46 11 C51.3991693 16.2403702 53.73302541 23.43790064 54.28515625 30.8046875 C54.32797311 36.98254893 53.9628332 42.89422848 53 49 C55.70071112 42.72019113 57.70024676 36.71539173 59 30 C59.33 30 59.66 30 60 30 C60.37598657 38.38310802 59.6558036 45.84831959 57.65625 54.00390625 C56.85735817 57.14004076 56.85735817 57.14004076 57 61 C64.49065269 50.96397989 67.33646783 41.58022979 66 29 C64.70548967 23.30161629 62.99097791 17.9701303 60.36328125 12.74609375 C59 10 59 10 59 8 C68.69278062 5.13410573 79.01232445 6.7201545 88 11 C99.6023951 18.2113348 106.86390848 28.73405534 110 42 C111.2889959 54.08005893 110.29919556 65.15021117 103.1875 75.3125 C99.02155615 80.43576933 94.44954205 85.04559332 88 87 C88.26041667 84.98177083 88.52083333 82.96354167 88.78125 80.9453125 C89.0372485 78.99501656 89.0372485 78.99501656 89 77 C88.443125 77.65226562 87.88625 78.30453125 87.3125 78.9765625 C82.60352156 84.36961551 77.95445031 89.00873358 72 93 C71.34 92.67 70.68 92.34 70 92 C70.66 91.21625 71.32 90.4325 72 89.625 C74.20201441 87.28487188 74.20201441 87.28487188 74 85 C73.34773437 85.33773437 72.69546875 85.67546875 72.0234375 86.0234375 C57.59800145 93.38509071 44.63487258 94.90705849 28.9765625 90.39453125 C3.77585652 82.02139346 -15.62587882 63.45042753 -29 41 C-29.99 39.02 -29.99 39.02 -31 37 C-30.505 43.93 -30.505 43.93 -30 51 C-39.23934471 51 -45.20279681 48.52130213 -52.00390625 42.28125 C-56.03747715 37.67145469 -58.99488365 32.31489993 -62 27 C-61.29368399 37.94789814 -58.1315026 46.41059758 -50 54 C-48.04880958 55.51142541 -46.13575102 56.74980428 -44 58 C-47.72451898 61.19043701 -51.48695007 63.44537783 -55.875 65.625 C-57.63457031 66.51058594 -57.63457031 66.51058594 -59.4296875 67.4140625 C-68.15013861 71.28769833 -77.55434843 72.87779822 -86.8828125 70.16015625 C-95.82787614 66.09794845 -101.33862047 58.94186157 -105 50 C-105.70905938 48.01463373 -106.39421747 46.01927511 -107 44 C-106.45644032 55.07737138 -105.18034326 64.87121353 -97 73 C-91.18617779 77.28126704 -84.65510859 80.26722594 -78 83 C-78 83.33 -78 83.66 -78 84 C-92.16543078 84.75437205 -103.03705188 82.30189538 -114 73 C-120.30857608 66.86480973 -123.67727009 60.43055136 -124.203125 51.58203125 C-124.29625346 44.09295113 -124.33179499 36.87755846 -121 30 C-120.01 29.505 -120.01 29.505 -119 29 C-118.34 31.31 -117.68 33.62 -117 36 C-116.62230469 35.12859375 -116.24460938 34.2571875 -115.85546875 33.359375 C-108.86384304 18.22995542 -98.86932668 7.79802873 -83.53125 0.859375 C-74.32436275 -2.26642005 -65.33432912 -2.34601408 -55.68164062 -2.390625 C-49.13161671 -2.52876259 -44.11878654 -3.37305655 -38.1394043 -6.06616211 C-25.60894815 -11.53563544 -10.39262918 -8.21742773 0 0 Z " fill="#FCFCFE" transform="translate(253,103)"/>
<path d="M0 0 C1.96484375 1.6171875 1.96484375 1.6171875 3.9375 3.875 C26.87921296 27.9468466 61.85350513 38.3521708 94 42 C95.48113281 42.185625 95.48113281 42.185625 96.9921875 42.375 C138.85711869 46.55105299 185.74183594 37.80781863 219 11 C219.50257324 10.53819336 220.00514648 10.07638672 220.52294922 9.60058594 C224.41697032 6.07677542 224.41697032 6.07677542 227.45654297 5.67651367 C230.51689807 6.06574102 231.45951821 6.82269599 233.63671875 8.96484375 C234.29188477 9.59600098 234.94705078 10.2271582 235.62207031 10.87744141 C236.30366211 11.55726074 236.98525391 12.23708008 237.6875 12.9375 C239.11245835 14.31985918 240.5382384 15.70137185 241.96484375 17.08203125 C242.65433105 17.75572754 243.34381836 18.42942383 244.05419922 19.12353516 C247.26522961 22.2201449 250.62022167 25.14138181 253.984375 28.0703125 C256.23078707 30.22094732 258.10731993 32.53610568 260 35 C229.82398198 68.12001978 178.93294405 86.44079938 135 89 C114.37165438 89.70947787 93.28101813 90.23583659 73 86 C72.02144043 85.80132324 71.04288086 85.60264648 70.03466797 85.39794922 C48.92193538 81.00426286 28.9621462 74.30017229 10 64 C8.8346875 63.38640625 7.669375 62.7728125 6.46875 62.140625 C-10.8080878 52.72397016 -24.4521407 40.16281102 -38 26 C-33.54649271 21.19611325 -28.44678988 17.44408039 -23.1875 13.5625 C-22.32318359 12.91990234 -21.45886719 12.27730469 -20.56835938 11.61523438 C-18.86070696 10.34577201 -17.14966545 9.08085427 -15.43505859 7.82080078 C-13.85423178 6.6387468 -12.29295938 5.42990523 -10.75634766 4.19091797 C-10.06976074 3.64193848 -9.38317383 3.09295898 -8.67578125 2.52734375 C-8.08321533 2.0387085 -7.49064941 1.55007324 -6.88012695 1.04663086 C-4.43276686 -0.31576788 -2.75975763 -0.29872504 0 0 Z " fill="#1D0166" transform="translate(135,319)"/>
<path d="M0 0 C51.48 0 102.96 0 156 0 C156 6.89730926 155.66581558 11.29523104 153.5 17.5 C153.0304887 18.905996 152.56169773 20.31223283 152.09375 21.71875 C151.55234375 23.34296875 151.55234375 23.34296875 151 25 C151 25.33 151 25.66 151 26 C151.83144531 25.44119141 151.83144531 25.44119141 152.6796875 24.87109375 C153.76636719 24.16146484 153.76636719 24.16146484 154.875 23.4375 C155.59429687 22.96183594 156.31359375 22.48617188 157.0546875 21.99609375 C157.69664062 21.66738281 158.33859375 21.33867187 159 21 C159.66 21.33 160.32 21.66 161 22 C156.56097926 38.11957762 150.18234742 53.65352217 135.17578125 62.703125 C104.9043387 75.0648949 58.14388872 67.89957757 29.015625 55.99609375 C18.66843696 51.60575882 9.18062375 46.49424805 0 40 C-0.7734375 39.53851563 -1.546875 39.07703125 -2.34375 38.6015625 C-4 37 -4 37 -4.53125 34.453125 C-4.41330557 22.36382135 -2.16442419 12.44543909 0 0 Z " fill="#FFFE00" transform="translate(155,287)"/>
<path d="M0 0 C0.65613281 0.58523437 1.31226563 1.17046875 1.98828125 1.7734375 C3.04982422 2.71316406 3.04982422 2.71316406 4.1328125 3.671875 C8.93130005 8.1765776 12.1377909 12.85318832 14.98828125 18.7734375 C11.21598459 19.25672106 7.74561941 19.44233776 3.98828125 18.7734375 C2.0241582 17.0553891 0.92637597 15.27439379 -0.44921875 13.0625 C-8.88238348 0.70791367 -25.2776177 -3.72611695 -39.01171875 -7.2265625 C-37.96113281 -6.73027344 -36.91054688 -6.23398438 -35.828125 -5.72265625 C-24.04896126 -0.06253861 -11.09769075 6.6014935 -5.01171875 18.7734375 C-63.75171875 18.7734375 -122.49171875 18.7734375 -183.01171875 18.7734375 C-176.29528923 1.9823637 -159.90085841 -7.1901399 -144.0234375 -14.07421875 C-100.37665953 -30.7743478 -37.52370287 -31.23441934 0 0 Z " fill="#FEFD00" transform="translate(330.01171875,242.2265625)"/>
<path d="M0 0 C0 3 0 3 -1.4375 5.375 C-4.86156778 11.12743386 -4.72535432 17.62229583 -3.3515625 24.01953125 C0.88477568 39.28121112 9.21855335 49.27812844 22.75 57.25 C32.41521146 62.66732685 41.8483323 66.31592196 53 64 C53.68271293 72.35104207 54.15392039 80.61988971 54 89 C53.12859375 89.40089844 52.2571875 89.80179687 51.359375 90.21484375 C42.74530276 94.3261055 35.43172702 98.99745125 28 105 C14.52652548 98.9082695 2.54456509 90.37110475 -7 79 C-8.19583161 75.80171451 -7.81065007 74.24260028 -7 71 C-6.82714347 69.67202282 -6.70668638 68.33668624 -6.625 67 C-6.57601562 66.34 -6.52703125 65.68 -6.4765625 65 C-7.68590138 60.37924248 -13.04657101 58.33189087 -16.90625 56.0546875 C-18.76827168 54.9902978 -20.63293621 53.93052024 -22.5 52.875 C-23.43714844 52.33746094 -24.37429687 51.79992187 -25.33984375 51.24609375 C-29.49751346 48.88123481 -33.51994665 46.70046549 -38 45 C-37.401875 44.76539063 -36.80375 44.53078125 -36.1875 44.2890625 C-33.45299449 42.67765747 -32.58906304 41.11447847 -31 38.375 C-22.29459723 24.21716874 -11.7378443 11.7378443 0 0 Z " fill="#FE1303" transform="translate(125,133)"/>
<path d="M0 0 C2.94963935 1.31306526 4.79832202 2.66230827 6.9375 5.0625 C26.68783455 25.14407706 55.22843222 33.56252506 82 39 C82 43.62 82 48.24 82 53 C81.04222656 52.74605469 80.08445312 52.49210937 79.09765625 52.23046875 C77.75302742 51.88117907 76.40793662 51.53366509 75.0625 51.1875 C74.3519043 51.00445312 73.64130859 50.82140625 72.90917969 50.6328125 C66.8552311 49.11866358 60.7732053 48.02883157 54.58618164 47.21557617 C49.07467308 46.37957936 46.90179093 44.57334322 43.68359375 40.21875 C43.06677734 39.36796875 43.06677734 39.36796875 42.4375 38.5 C38.01903579 33.32472076 32.02720824 31.59913988 25.453125 30.62109375 C17.4993458 30.22847089 9.87564894 33.13917699 3 37 C1.7634152 39.10946819 0.91815749 41.21802029 0.05859375 43.5078125 C-3.15762901 47.401456 -7.04299341 47.36698071 -11.875 48.0625 C-13.77570997 48.37567684 -15.67546729 48.69469128 -17.57421875 49.01953125 C-18.50024902 49.17760254 -19.4262793 49.33567383 -20.38037109 49.49853516 C-24.95191528 50.37364716 -29.29039664 51.77886268 -33.69921875 53.265625 C-36 54 -36 54 -38 54 C-39.35585596 42.00791473 -40.41346574 30.05482249 -41 18 C-39.95714844 17.70351562 -38.91429687 17.40703125 -37.83984375 17.1015625 C-29.40798898 14.68265808 -21.47774908 11.92139355 -13.625 8 C-12.95927979 7.66790527 -12.29355957 7.33581055 -11.60766602 6.99365234 C-7.53579478 4.9119395 -3.75794155 2.60612665 0 0 Z " fill="#8797FD" transform="translate(223,165)"/>
<path d="M0 0 C9.78984833 4.58468249 19.07691774 9.88734116 28.38525391 15.37353516 C37.00382029 20.44556482 45.70488638 25.35593843 54.45043945 30.20532227 C60.70944849 33.68393176 66.88509719 37.27365242 73 41 C71.33913088 46.56664924 68.88928264 51.65786353 66.375 56.875 C65.95476562 57.75414062 65.53453125 58.63328125 65.1015625 59.5390625 C64.0708308 61.69422878 63.03690574 63.84779922 62 66 C57.4550147 65.39291276 53.55042767 64.20608224 49.29296875 62.515625 C48.65872482 62.26385498 48.0244809 62.01208496 47.37101746 61.75268555 C45.30605516 60.92752278 43.24626295 60.09050332 41.1875 59.25 C40.12695404 58.81898987 40.12695404 58.81898987 39.04498291 58.37927246 C-11.24715796 37.84625612 -11.24715796 37.84625612 -15.83935547 28.24511719 C-16.08186132 24.85593212 -14.61339579 23.04074031 -12.8515625 20.17578125 C-11.83835937 18.50999023 -11.83835937 18.50999023 -10.8046875 16.81054688 C-10.07826726 15.64444261 -9.35170303 14.47842804 -8.625 13.3125 C-7.90513956 12.13544403 -7.1863762 10.95771635 -6.46875 9.77929688 C-1.23161419 1.23161419 -1.23161419 1.23161419 0 0 Z " fill="#FCFCFE" transform="translate(51,242)"/>
<path d="M0 0 C3.18775003 2.98851565 5.93083735 6.11995884 8.625 9.5625 C11.691863 13.45793386 14.92372431 17.13530593 18.3125 20.75 C42 46.19733171 42 46.19733171 42 54 C42.928125 53.835 43.85625 53.67 44.8125 53.5 C53.19894204 52.34559097 60.23179362 52.48232164 68 56 C65.12841415 57.43579292 63.25582237 56.27202497 60.29150391 55.47998047 C56.40664826 54.66625511 52.63174439 54.83689785 48.6875 55.0625 C47.43573975 55.13368042 47.43573975 55.13368042 46.15869141 55.20629883 C39.29225403 55.73104987 33.90429787 57.38092041 28 61 C27.20335937 61.44472656 26.40671875 61.88945312 25.5859375 62.34765625 C18.17785741 66.79498192 12.31269189 73.37446699 9.359375 81.578125 C8.86876417 84.17251279 8.86876417 84.17251279 9.390625 87.484375 C9.8480149 91.70252627 10.02030607 94.86622777 9 99 C5.30010992 103.10127451 -0.01063347 105.36384172 -4.86132812 107.83398438 C-8.14628243 109.62495946 -11.05663025 111.82713793 -14 114.125 C-14.969375 114.87007813 -15.93875 115.61515625 -16.9375 116.3828125 C-17.618125 116.91648437 -18.29875 117.45015625 -19 118 C-19.42667969 117.6596875 -19.85335938 117.319375 -20.29296875 116.96875 C-28.28196089 110.77522207 -36.9047051 105.41108146 -46 101 C-46 96.71 -46 92.42 -46 88 C-44.69546875 87.62488281 -43.3909375 87.24976563 -42.046875 86.86328125 C-14.47347197 79.0845977 -14.47347197 79.0845977 5.46484375 59.5859375 C12.46509041 46.47822925 12.80146611 31.29747481 9.12890625 17.05078125 C7.51554351 12.69079404 5.18921439 9.03276476 2.5234375 5.2421875 C1 3 1 3 0 0 Z " fill="#FE1809" transform="translate(358,120)"/>
<path d="M0 0 C2.77311603 2.26227887 3.80261761 3.98940217 4.48828125 7.5 C5.18834955 17.82257576 0.43725132 26.95071178 -5.8125 34.9375 C-11.96341073 41.43378272 -20.51953763 47.62660586 -29.5546875 48.2421875 C-39.84355162 48.50632859 -39.84355162 48.50632859 -43.953125 46.70703125 C-47.9967777 45.76869646 -49.56056322 46.89298733 -53.01586914 48.97509766 C-53.73250732 49.43706543 -54.44914551 49.8990332 -55.1875 50.375 C-55.93056396 50.83310059 -56.67362793 51.29120117 -57.43920898 51.76318359 C-63.50523743 55.55075898 -69.34178789 59.62496774 -75 64 C-76.9375 63.1875 -76.9375 63.1875 -79 62 C-79.33 61.01 -79.66 60.02 -80 59 C-70.68757914 51.9048222 -61.31501974 45.54690584 -51 40 C-51.15855469 38.92363281 -51.31710937 37.84726563 -51.48046875 36.73828125 C-52.76874159 27.46852858 -51.74308946 20.78667033 -46.59765625 12.83203125 C-37.33644061 1.12531123 -13.83798635 -10.0325401 0 0 Z " fill="#D4EFFF" transform="translate(423,182)"/>
<path d="M0 0 C5.1620434 4.37686171 7.68793754 10.46622891 10.75 16.375 C11.35199219 17.4990625 11.95398438 18.623125 12.57421875 19.78125 C13.14269531 20.87179688 13.71117187 21.96234375 14.296875 23.0859375 C14.81604492 24.0764209 15.33521484 25.0669043 15.87011719 26.08740234 C17.16681417 29.43001145 17.58037367 31.45242177 17 35 C13.5132671 39.51179334 9.06830881 41.89349263 4.1015625 44.4609375 C3.34837738 44.85576324 2.59519226 45.25058899 1.81918335 45.65737915 C0.23328528 46.48409842 -1.35526539 47.30574705 -2.94628906 48.12255859 C-5.3710402 49.37295801 -7.77899726 50.65223493 -10.1875 51.93359375 C-11.73604181 52.73618615 -13.28549249 53.5370279 -14.8359375 54.3359375 C-15.54970551 54.71914154 -16.26347351 55.10234558 -16.99887085 55.49716187 C-21.65824161 57.8423842 -24.7957124 58.59707658 -30 57 C-31.61743164 55.33276367 -31.61743164 55.33276367 -32.66015625 53.16796875 C-33.05879883 52.37479248 -33.45744141 51.58161621 -33.86816406 50.7644043 C-34.26229492 49.91402588 -34.65642578 49.06364746 -35.0625 48.1875 C-35.69430176 46.89549683 -35.69430176 46.89549683 -36.33886719 45.57739258 C-37.18130919 43.85296868 -38.01466324 42.12407209 -38.83837891 40.390625 C-39.84813163 38.31254626 -40.91153078 36.29470172 -42.04296875 34.28125 C-42.88794922 32.74984375 -42.88794922 32.74984375 -43.75 31.1875 C-44.23984375 30.31480469 -44.7296875 29.44210937 -45.234375 28.54296875 C-46 26 -46 26 -45.80859375 23.04296875 C-42.90916589 18.16466572 -38.31644192 16.52765036 -33.3125 14.125 C-31.21565733 13.0817104 -29.11930362 12.03743751 -27.0234375 10.9921875 C-25.99573242 10.48655273 -24.96802734 9.98091797 -23.90917969 9.45996094 C-21.35296565 8.17713449 -18.84662003 6.84232244 -16.3515625 5.4453125 C-15.67955811 5.07003418 -15.00755371 4.69475586 -14.31518555 4.30810547 C-12.56044368 3.31928071 -10.80937517 2.32394519 -9.05859375 1.328125 C-5.66470586 -0.14559388 -3.65281156 -0.58124299 0 0 Z " fill="#E5E9FD" transform="translate(444,231)"/>
<path d="M0 0 C3.28085283 1.42582518 5.35503935 3.16741406 7.8125 5.75 C13.94099977 12.63354834 13.94099977 12.63354834 21.875 16.6875 C25.75761632 15.83332441 28.55655291 14.08354913 31.8515625 11.8984375 C34 11 34 11 35.94140625 11.5703125 C38.5579681 13.38750726 40.91345361 15.40290827 43.3125 17.5 C49.59947249 22.88345549 56.34431618 27.41408061 63.29199219 31.89355469 C65.87903821 33.56943985 68.43890767 35.28477303 71 37 C70.5 39.25 70.5 39.25 69 42 C67.01398083 43.20339297 65.01841281 44.11735056 62.875 45.0078125 C60.6649732 45.98688764 60.6649732 45.98688764 59 49 C58.01830035 55.97523439 58.41742672 61.62639552 62.62109375 67.375 C64.31549789 69.37180488 66.04150762 71.25911789 68 73 C60.52262239 70.81168784 54.17830634 67.56047687 47.4375 63.6875 C46.35992432 63.07664551 45.28234863 62.46579102 44.17211914 61.83642578 C35.39221883 56.84322036 26.66328459 51.75980926 17.96850586 46.61987305 C12.73063369 43.53436447 7.47481942 40.64390573 2 38 C2.99 37.505 2.99 37.505 4 37 C3.97679688 36.33097656 3.95359375 35.66195312 3.9296875 34.97265625 C3.83884751 30.13867113 3.86499231 25.47547986 4.65625 20.69921875 C6.22944019 12.82063558 6.22944019 12.82063558 4.796875 5.13671875 C3.31598962 3.18873167 1.87666069 1.56388391 0 0 Z " fill="#FE1404" transform="translate(71,213)"/>
<path d="M0 0 C7.26 0 14.52 0 22 0 C22 6.89730926 21.66581558 11.29523104 19.5 17.5 C19.0304887 18.905996 18.56169773 20.31223283 18.09375 21.71875 C17.55234375 23.34296875 17.55234375 23.34296875 17 25 C17 25.33 17 25.66 17 26 C17.83144531 25.44119141 17.83144531 25.44119141 18.6796875 24.87109375 C19.76636719 24.16146484 19.76636719 24.16146484 20.875 23.4375 C21.59429687 22.96183594 22.31359375 22.48617188 23.0546875 21.99609375 C23.69664062 21.66738281 24.33859375 21.33867187 25 21 C25.66 21.33 26.32 21.66 27 22 C22.56097926 38.11957762 16.18234742 53.65352217 1.17578125 62.703125 C-29.97308361 75.42320265 -77.23975446 67.43489202 -107.0625 55.1875 C-108.71245959 54.46771897 -110.36014586 53.74251584 -112 53 C-112 51.02 -112 49.04 -112 47 C-111.45472656 47.18248291 -110.90945312 47.36496582 -110.34765625 47.55297852 C-108.7517012 48.08615709 -107.15531155 48.61803579 -105.55859375 49.14892578 C-103.96655978 49.67848975 -102.3752718 50.21030863 -100.78515625 50.74560547 C-79.83380515 57.72149611 -47.61780881 67.2317044 -26.3359375 57.3828125 C-14.42750024 50.33333626 -1.33376538 39.62849116 2.65625 25.7109375 C2.82640625 24.86402344 2.82640625 24.86402344 3 24 C0.69 25.32 -1.62 26.64 -4 28 C-2.66666667 24 -1.33333333 20 0 16 C0.07056698 13.25917841 0.09336154 10.55153023 0.0625 7.8125 C0.041875 5.234375 0.02125 2.65625 0 0 Z " fill="#FDB300" transform="translate(289,287)"/>
<path d="M0 0 C8.85864681 3.03183634 15.45614469 10.40552344 19.81640625 18.49609375 C25.0751591 29.62104615 26.31587359 43.30237923 22.375 55.125 C18.66996532 63.61407945 12.57901079 71.38854814 4.0625 75.375 C3.381875 75.58125 2.70125 75.7875 2 76 C2.26041667 73.98177083 2.52083333 71.96354167 2.78125 69.9453125 C3.0372485 67.99501656 3.0372485 67.99501656 3 66 C2.443125 66.65226562 1.88625 67.30453125 1.3125 67.9765625 C-3.39647844 73.36961551 -8.04554969 78.00873358 -14 82 C-14.66 81.67 -15.32 81.34 -16 81 C-15.34 80.21625 -14.68 79.4325 -14 78.625 C-11.79798559 76.28487188 -11.79798559 76.28487188 -12 74 C-12.97839844 74.50660156 -12.97839844 74.50660156 -13.9765625 75.0234375 C-28.40199855 82.38509071 -41.36512742 83.90705849 -57.0234375 79.39453125 C-82.07360246 71.07141193 -101.88902428 52.50522395 -115 30 C-115.33 29.01 -115.66 28.02 -116 27 C-112.1150772 28.29497427 -110.75037976 30.69293165 -108.4375 33.875 C-95.13172932 51.53666749 -78.7698822 67.45288447 -55.94921875 70.7734375 C-55.30597656 70.84820312 -54.66273438 70.92296875 -54 71 C-54 70.67 -54 70.34 -54 70 C-53.06800781 69.96261719 -52.13601563 69.92523438 -51.17578125 69.88671875 C-30.37466155 68.81406243 -13.68784517 63.11747135 1 48 C2 47 3 46 4 45 C4 46.32 4 47.64 4 49 C4.61875 48.01 5.2375 47.02 5.875 46 C6.57625 45.01 7.2775 44.02 8 43 C8.66 43 9.32 43 10 43 C10.99 47.29 11.98 51.58 13 56 C17.01547823 41.82487806 16.31047819 27.37632534 10 14 C7.89457368 10.45256397 5.58182772 7.21198946 3 4 C1.99670455 2.66914463 0.99565004 1.33658475 0 0 Z " fill="#94A6FD" transform="translate(339,114)"/>
<path d="M0 0 C1.07958984 -0.00386719 2.15917969 -0.00773438 3.27148438 -0.01171875 C8.68399686 -0.0050817 13.85701264 0.16688102 19.1875 1.125 C15.43382927 3.62744715 11.92770274 3.86176935 7.5625 4.4375 C-13.2970164 7.53460652 -35.11868955 14.47335665 -50.8125 29.125 C-51.534375 29.72054687 -52.25625 30.31609375 -53 30.9296875 C-56.83774848 33.96913624 -56.83774848 33.96913624 -59.77340698 37.82104492 C-62.63868601 42.75356379 -62.63868601 42.75356379 -65.76597595 43.7431488 C-68.14983576 43.9349338 -70.4426975 43.91294195 -72.83203125 43.80859375 C-73.69060226 43.79868912 -74.54917328 43.78878448 -75.4337616 43.77857971 C-78.16594031 43.73950927 -80.89404417 43.65171235 -83.625 43.5625 C-85.4810616 43.52737613 -87.33718643 43.49543899 -89.19335938 43.46679688 C-93.73463394 43.38977258 -98.27287714 43.26904968 -102.8125 43.125 C-96.5818105 26.94794948 -81.30690193 18.63780749 -66.5 11.4375 C-45.62006163 2.38444643 -22.55362376 -0.08226246 0 0 Z " fill="#FEFEEC" transform="translate(249.8125,217.875)"/>
<path d="M0 0 C4.22141034 1.50764655 5.80349864 4.21292869 8 8 C10.39394043 15.76074805 9.12908795 23.64389851 6 31 C2.41203773 37.50262791 -1.82518356 44.71978708 -7.75 49.375 C-9.37588792 51.16578952 -9.37588792 51.16578952 -9.16015625 54.8359375 C-9.58279497 58.5741476 -9.79671461 58.83521767 -12.94921875 61.390625 C-14.18026372 62.03979341 -15.42742962 62.65914131 -16.6875 63.25 C-17.92164622 63.87810386 -19.15472998 64.5082999 -20.38671875 65.140625 C-20.9904834 65.44419922 -21.59424805 65.74777344 -22.21630859 66.06054688 C-26.31373324 68.21862106 -29.4210657 70.13159855 -32 74 C-32.3170249 76.34361336 -32.3170249 76.34361336 -32.25 78.875 C-32.25515625 79.71804688 -32.2603125 80.56109375 -32.265625 81.4296875 C-31.9740114 84.2514779 -31.16291863 86.42496588 -30 89 C-36.60355131 93.38024509 -43.48508588 96.62069863 -50.73608398 99.73828125 C-57.6531284 102.75235631 -64.28424822 106.21680524 -70.89428711 109.85058594 C-71.6497583 110.26083008 -72.40522949 110.67107422 -73.18359375 111.09375 C-73.84931396 111.46177734 -74.51503418 111.82980469 -75.20092773 112.20898438 C-77 113 -77 113 -80 113 C-79.765625 111.11328125 -79.765625 111.11328125 -79 109 C-77.109375 107.98046875 -77.109375 107.98046875 -74.75 107.1875 C-69.60440682 105.12270783 -67.76703726 102.75584529 -65 98 C-63.55048761 93.65146283 -63.35558474 89.53986929 -64 85 C-66.35602674 81.70156256 -67.67701714 80.24613635 -71.6875 79.5 C-72.450625 79.335 -73.21375 79.17 -74 79 C-75.14453125 76.46875 -75.14453125 76.46875 -76 74 C-54.15972222 57 -54.15972222 57 -47.125 57 C-46.20460938 57.23203125 -46.20460938 57.23203125 -45.265625 57.46875 C-34.80276147 59.9221111 -26.16929361 58.09447839 -17.09375 52.984375 C-5.16885987 45.33558184 2.21436115 34.69560012 6 21 C7.10609509 13.43641647 5.66153363 7.84443747 1.3125 1.5625 C0.879375 1.046875 0.44625 0.53125 0 0 Z " fill="#FE1000" transform="translate(426,177)"/>
<path d="M0 0 C8.58 0 17.16 0 26 0 C27.63356192 6.53424768 28.76991381 12.67685664 29.625 19.3125 C29.82609375 20.7655957 29.82609375 20.7655957 30.03125 22.24804688 C31.92138435 36.70371725 31.92138435 36.70371725 31 42 C28.39725097 44.87676256 25.46634563 46.31431137 22 48 C21.01773438 48.55042969 20.03546875 49.10085938 19.0234375 49.66796875 C11.95099251 53.49114009 4.7297809 56.30968408 -2.875 58.875 C-3.75446289 59.1733374 -4.63392578 59.4716748 -5.54003906 59.77905273 C-10.71603177 61.46237814 -15.57781383 62.50936134 -21 63 C-20.34 62.34 -19.68 61.68 -19 61 C-18.54367187 60.53722656 -18.08734375 60.07445312 -17.6171875 59.59765625 C-16.48097166 58.47516283 -15.31653165 57.38087491 -14.1328125 56.30859375 C-3.87022189 46.74481767 0.3719062 35.17482911 4 22 C3.37351562 22.34933594 2.74703125 22.69867188 2.1015625 23.05859375 C1.28429687 23.51363281 0.46703125 23.96867187 -0.375 24.4375 C-1.18710937 24.88996094 -1.99921875 25.34242188 -2.8359375 25.80859375 C-4.20996622 26.5650536 -5.59709261 27.29854631 -7 28 C-6.71253906 27.14019531 -6.42507813 26.28039062 -6.12890625 25.39453125 C-4.5164676 20.54649244 -4.5164676 20.54649244 -2.9375 15.6875 C-2.59589844 14.63949219 -2.25429688 13.59148437 -1.90234375 12.51171875 C-0.69113472 8.13885657 -0.69113472 8.13885657 0 0 Z " fill="#87744B" transform="translate(311,287)"/>
<path d="M0 0 C-0.99 0.66 -1.98 1.32 -3 2 C-2.31486328 2.39791748 -1.62972656 2.79583496 -0.92382812 3.20581055 C2.21823176 5.03169528 5.35912242 6.85958229 8.5 8.6875 C9.57765625 9.31333984 10.6553125 9.93917969 11.765625 10.58398438 C17.57203949 13.96515867 23.32697408 17.39928088 29 21 C28.71769531 22.43279297 28.71769531 22.43279297 28.4296875 23.89453125 C27.26548072 31.74836796 27.26548072 31.74836796 29.66796875 39.09375 C38.01993987 48.57657528 49.26492352 55.7033176 60.20703125 61.84375 C62 63 62 63 63 65 C61.02 67.31 59.04 69.62 57 72 C44.00452575 67.17310956 31.48590629 56.85285565 21.78125 47.08203125 C19.98927185 45.75709125 19.98927185 45.75709125 17.5 46.1875 C15.15191801 46.95062665 13.51598108 47.794381 11.5 49.1875 C8 51 8 51 5.69140625 50.453125 C2.21809182 48.57783767 -0.62442394 46.16411765 -3.5625 43.5625 C-4.16658691 43.03624023 -4.77067383 42.50998047 -5.39306641 41.96777344 C-11.35564682 36.74837328 -17.19872384 31.39752434 -23 26 C-22.505 24.515 -22.505 24.515 -22 23 C-17.00411519 24.41105143 -13.19510764 26.58218133 -8.9375 29.4375 C-2.41971949 34.55848862 -2.41971949 34.55848862 5 37 C4.71477731 33.82598343 3.89604866 32.89920878 1.55859375 30.6328125 C0.52646163 29.78673138 -0.51440473 28.9512241 -1.5625 28.125 C-2.10100586 27.68881348 -2.63951172 27.25262695 -3.19433594 26.80322266 C-7.38250133 23.43046335 -11.64318359 20.15228482 -16 17 C-15.34 15.68 -14.68 14.36 -14 13 C-10.0266058 13.57447198 -7.35665197 14.78070471 -3.98828125 16.94140625 C-3.06595703 17.52470703 -2.14363281 18.10800781 -1.19335938 18.70898438 C0.23266602 19.62647461 0.23266602 19.62647461 1.6875 20.5625 C3.5847306 21.7760668 5.48435212 22.98590655 7.38671875 24.19140625 C8.22420654 24.72967041 9.06169434 25.26793457 9.92456055 25.82250977 C11.89222364 27.16448637 11.89222364 27.16448637 14 27 C14 25.35 14 23.7 14 22 C13.42475586 21.73268066 12.84951172 21.46536133 12.25683594 21.18994141 C9.92649501 19.96124369 7.97392762 18.57076225 5.890625 16.9609375 C5.13652344 16.38085938 4.38242188 15.80078125 3.60546875 15.203125 C2.43951172 14.29820312 2.43951172 14.29820312 1.25 13.375 C0.06083984 12.45847656 0.06083984 12.45847656 -1.15234375 11.5234375 C-3.10390608 10.01861835 -5.05300989 8.51072716 -7 7 C-6.67 5.68 -6.34 4.36 -6 3 C-6.66 3 -7.32 3 -8 3 C-8 2.34 -8 1.68 -8 1 C-5.29120665 -0.35439668 -2.99066732 -0.06501451 0 0 Z " fill="#F2F4FE" transform="translate(87,176)"/>
<path d="M0 0 C1.915447 2.37515428 3.81617017 4.75518397 5.6484375 7.1953125 C11.12473858 14.58963467 11.12473858 14.58963467 19 19 C19.99 18.505 19.99 18.505 21 18 C22.11375 18.2475 23.2275 18.495 24.375 18.75 C25.57125 18.8325 26.7675 18.915 28 19 C30.49210521 16.69931981 30.49210521 16.69931981 32 14 C33.30751994 16.61503989 33.01077474 18.88962375 32.96875 21.7578125 C33.01702418 25.22148467 33.5104219 28.57295329 34 32 C26.12604976 32.67012342 20.09065729 29.91263575 13.9375 25.0625 C8.73648019 20.29053816 5.44092958 14.08568662 2 8 C2.70631601 18.94789814 5.8684974 27.41059758 14 35 C15.95119042 36.51142541 17.86424898 37.74980428 20 39 C16.27548102 42.19043701 12.51304993 44.44537783 8.125 46.625 C6.95195312 47.21539062 5.77890625 47.80578125 4.5703125 48.4140625 C-4.15013861 52.28769833 -13.55434843 53.87779822 -22.8828125 51.16015625 C-31.82787614 47.09794845 -37.33862047 39.94186157 -41 31 C-41.70905938 29.01463373 -42.39421747 27.01927511 -43 25 C-42.45644032 36.07737138 -41.18034326 45.87121353 -33 54 C-27.18617779 58.28126704 -20.65510859 61.26722594 -14 64 C-14 64.33 -14 64.66 -14 65 C-28.16205685 65.75419238 -39.04137888 63.30412237 -50 54 C-53.49173368 50.60071548 -56.05591266 47.86894481 -57 43 C-55.63875 42.319375 -55.63875 42.319375 -54.25 41.625 C-48.79387463 37.9318208 -47.50748423 31.61527386 -46.3125 25.45703125 C-45.81812107 22.30879875 -45.37693145 19.16424034 -45 16 C-42.79355571 18.81467233 -41.03319049 21.68173077 -39.3125 24.8125 C-35.7622058 30.79147804 -31.43399592 35.20495668 -25.25 38.4375 C-22.73977949 39.16169042 -22.73977949 39.16169042 -19 39 C-19.99 38.01 -20.98 37.02 -22 36 C-21.23558594 36.144375 -20.47117188 36.28875 -19.68359375 36.4375 C-10.99559458 37.94300166 -2.78531562 38.21872155 6 38 C5.60167969 37.5875 5.20335937 37.175 4.79296875 36.75 C-1.49768446 29.89303494 -3.24229793 24.14554901 -3.375 14.9375 C-3.38901855 14.26468994 -3.40303711 13.59187988 -3.41748047 12.89868164 C-3.36936176 7.85423666 -2.18140733 4.4378366 0 0 Z " fill="#93A5FC" transform="translate(189,122)"/>
<path d="M0 0 C2.0625 1.6171875 2.0625 1.6171875 4 3.875 C12.42403576 12.88049277 22.98813373 19.56415654 34 25 C35.00417969 25.50144531 36.00835937 26.00289063 37.04296875 26.51953125 C60.912115 38.00346885 86.15516094 42.37796259 112.45947266 42.31567383 C115.23249928 42.3125199 118.00444837 42.33604859 120.77734375 42.36132812 C155.29294522 42.48267323 191.49362902 32.7761977 218.20703125 10.12890625 C219.21830078 9.29166016 219.21830078 9.29166016 220.25 8.4375 C220.81203125 7.94121094 221.3740625 7.44492187 221.953125 6.93359375 C225.37467538 5.37300112 227.42104009 5.96094712 231 7 C233.88850912 9.05532812 236.32216627 11.48552636 238.8125 14 C240.22069299 15.37177281 241.6295461 16.7428683 243.0390625 18.11328125 C243.71614258 18.78053223 244.39322266 19.4477832 245.09082031 20.13525391 C247.56710037 22.55390187 250.10998772 24.87702728 252.6875 27.1875 C253.41324219 27.84105469 254.13898438 28.49460937 254.88671875 29.16796875 C257.20705226 31.17949632 259.59036817 33.09677066 262 35 C261.08988106 40.47253335 257.12457663 42.66312447 253 46 C252.02933594 46.81726563 251.05867188 47.63453125 250.05859375 48.4765625 C205.36389845 85.48141036 146.17067662 96.72922689 89.58447266 92.53295898 C51.36373134 88.92353319 11.9579207 75.31367477 -18 51 C-18.56315918 50.54367187 -19.12631836 50.08734375 -19.70654297 49.6171875 C-27.74788658 43.05246715 -35.6008245 36.22751135 -42 28 C-42 27.34 -42 26.68 -42 26 C-40.6015625 24.77001953 -40.6015625 24.77001953 -38.625 23.3828125 C-37.89410156 22.86364258 -37.16320312 22.34447266 -36.41015625 21.80957031 C-35.21712891 20.97570801 -35.21712891 20.97570801 -34 20.125 C-32.35320074 18.95708997 -30.70738858 17.787787 -29.0625 16.6171875 C-28.22203125 16.0200293 -27.3815625 15.42287109 -26.515625 14.80761719 C-21.93533897 11.51642563 -17.44483346 8.10637045 -12.953125 4.69580078 C-8.29287438 1.17052338 -5.94641323 -0.57977529 0 0 Z M-11.6875 6.1875 C-12.82048016 7.10198524 -13.95605351 8.01326398 -15.09375 8.921875 C-16.01800781 9.66147461 -16.01800781 9.66147461 -16.9609375 10.41601562 C-21.54690405 13.97848581 -26.33154633 17.28273731 -31.08276367 20.61987305 C-31.82244385 21.14621338 -32.56212402 21.67255371 -33.32421875 22.21484375 C-34.3155481 22.91275024 -34.3155481 22.91275024 -35.3269043 23.62475586 C-37.26400086 25.08124477 -37.26400086 25.08124477 -39 28 C-27.5209119 40.06064752 -16.22489235 51.24826632 -2 60 C-1.31325195 60.42925781 -0.62650391 60.85851562 0.08105469 61.30078125 C25.4550979 76.93374226 54.66232312 85.72822573 84 90 C84.71945801 90.10530029 85.43891602 90.21060059 86.18017578 90.3190918 C94.36406931 91.32005725 102.62384871 91.18606492 110.85546875 91.18530273 C113.46631615 91.18747201 116.07672795 91.20563001 118.6875 91.22460938 C133.76937542 91.27639424 148.57047993 90.13567087 163.3125 86.8125 C164.27051514 86.59891846 165.22853027 86.38533691 166.21557617 86.1652832 C182.84386578 82.31180378 198.65152733 76.42550901 214 69 C214.96945557 68.534729 214.96945557 68.534729 215.95849609 68.06005859 C231.15759178 60.66199168 246.68916793 50.70561676 258 38 C258.32451859 34.8908712 258.32451859 34.8908712 256.09375 32.765625 C255.2378125 31.93546875 254.381875 31.1053125 253.5 30.25 C252.58089844 29.35796875 251.66179687 28.4659375 250.71484375 27.546875 C247.91152059 24.91699486 245.07262308 22.3561409 242.140625 19.87109375 C240.46581419 18.40716241 238.83982031 16.88734179 237.234375 15.34765625 C236.750896 14.88746094 236.26741699 14.42726563 235.76928711 13.953125 C234.37652757 12.62361967 232.99462481 11.28276881 231.61328125 9.94140625 C229.18614088 7.85672629 229.18614088 7.85672629 226.48046875 7.46484375 C223.12645005 8.18846668 221.54067744 9.70719353 219 12 C186.13143373 39.97324789 139.71085513 47.35573914 97.81420898 44.55224609 C63.87756903 41.72395275 23.45348117 30.17611638 0.5625 3.1796875 C-0.9950881 1.82233232 -0.9950881 1.82233232 -3.33203125 1.55859375 C-7.01766484 2.16836915 -8.80736164 3.81938624 -11.6875 6.1875 Z " fill="#F90A04" transform="translate(136,317)"/>
<path d="M0 0 C70.62 0 141.24 0 214 0 C212 4 212 4 209 6 C206.260936 6.19796877 203.62323506 6.27821869 200.88356018 6.26742554 C200.04669094 6.27195665 199.20982169 6.27648776 198.34759277 6.28115618 C195.53318663 6.29385328 192.71897269 6.29217641 189.90454102 6.29052734 C187.89090728 6.29650923 185.87727585 6.30331399 183.86364746 6.31088257 C178.38644627 6.32858317 172.90930753 6.33323962 167.43208051 6.33451414 C162.86426694 6.33641067 158.296468 6.34376527 153.72866005 6.35085833 C142.95508552 6.36715492 132.18154442 6.37202608 121.40795898 6.37060547 C110.28288584 6.36940333 99.15800649 6.39051666 88.03298241 6.4220928 C78.49067855 6.44821466 68.94843814 6.4589745 59.40609878 6.45769465 C53.70279283 6.45718386 47.99965906 6.46293157 42.29638863 6.48405075 C36.93409925 6.50336458 31.57214753 6.50360468 26.2098465 6.48901749 C24.23936154 6.48691983 22.26885582 6.49168686 20.2984066 6.5037384 C17.61301092 6.51910173 14.92879254 6.50994237 12.24342346 6.49447632 C11.45947679 6.50476344 10.67553011 6.51505057 9.86782748 6.52564943 C6.30739438 6.48018019 4.36210451 6.2743849 1.48478603 4.09409523 C0 2 0 2 0 0 Z " fill="#FEB300" transform="translate(139,271)"/>
<path d="M0 0 C5.74356006 2.75652464 12.1861985 6.17438501 16.3359375 11.12109375 C16.3359375 11.78109375 16.3359375 12.44109375 16.3359375 13.12109375 C15.58828125 13.38664063 14.840625 13.6521875 14.0703125 13.92578125 C13.08546875 14.27898437 12.100625 14.6321875 11.0859375 14.99609375 C10.11140625 15.34414062 9.136875 15.6921875 8.1328125 16.05078125 C3.4996896 17.59762851 3.4996896 17.59762851 0.2734375 20.93359375 C-0.39061807 22.48305674 -1.01301819 24.05067696 -1.60546875 25.62890625 C-4.82169151 29.52254975 -8.70705591 29.48807446 -13.5390625 30.18359375 C-15.43977247 30.49677059 -17.33952979 30.81578503 -19.23828125 31.140625 C-20.16431152 31.29869629 -21.0903418 31.45676758 -22.04443359 31.61962891 C-26.61597778 32.49474091 -30.95445914 33.89995643 -35.36328125 35.38671875 C-37.6640625 36.12109375 -37.6640625 36.12109375 -39.6640625 36.12109375 C-41.18150124 29.10293959 -42.36686745 21.24047533 -38.6015625 14.80859375 C-34.44910725 9.09603526 -29.68198549 4.69654585 -22.6640625 3.12109375 C-19.99756871 2.70974716 -17.34990237 2.39893925 -14.6640625 2.12109375 C-16.9740625 1.46109375 -19.2840625 0.80109375 -21.6640625 0.12109375 C-15.15173587 -3.68914864 -6.83625498 -2.57902038 0 0 Z " fill="#FBFCFE" transform="translate(224.6640625,182.87890625)"/>
<path d="M0 0 C8.91 0 17.82 0 27 0 C26.38125 3.568125 25.7625 7.13625 25.125 10.8125 C22.85029521 24.4827954 21.79770285 38.17477189 21 52 C16.26507456 49.78806403 11.61741823 47.44731495 7 45 C5.88496094 44.42121094 4.76992187 43.84242188 3.62109375 43.24609375 C-0.46870155 40.77728642 -3.44626896 38.90759017 -4.81640625 34.1875 C-4.95894258 30.36200881 -4.59162489 26.76638964 -4 23 C-3.85449707 22.04786621 -3.70899414 21.09573242 -3.55908203 20.11474609 C-2.50019271 13.37836301 -1.26253542 6.7072194 0 0 Z " fill="#FDFADF" transform="translate(155,287)"/>
<path d="M0 0 C1.32 2.31 2.64 4.62 4 7 C3.34 7.33 2.68 7.66 2 8 C1.32157795 9.75106231 0.70999116 11.52805022 0.125 13.3125 C-2.26391964 19.77116598 -5.43749342 25.48933162 -9 31.375 C-9.51030762 32.21844971 -10.02061523 33.06189941 -10.54638672 33.9309082 C-13.51721141 38.76603302 -16.64475732 43.42354767 -20 48 C-23.22104595 45.26911322 -26.41828358 42.53926197 -29.515625 39.66796875 C-30.37671875 38.87003906 -31.2378125 38.07210937 -32.125 37.25 C-32.93195313 36.49203125 -33.73890625 35.7340625 -34.5703125 34.953125 C-38.38777147 31.88442808 -40.97482632 30.98346494 -45.875 31.0625 C-50.54317609 31.77248876 -53.38442505 34.06234535 -57 37 C-57 34.36 -57 31.72 -57 29 C-51.7699076 26.28894354 -46.53712914 23.58317241 -41.30175781 20.88232422 C-39.52007885 19.96223426 -37.73915077 19.0406888 -35.95898438 18.11767578 C-33.40429217 16.79338934 -30.84697042 15.47431209 -28.2890625 14.15625 C-27.49005524 13.74064819 -26.69104797 13.32504639 -25.86782837 12.89685059 C-24.75690323 12.32625916 -24.75690323 12.32625916 -23.62353516 11.74414062 C-22.97067535 11.40660767 -22.31781555 11.06907471 -21.64517212 10.72131348 C-20 10 -20 10 -18 10 C-17.67 9.01 -17.34 8.02 -17 7 C-14.71769113 5.6370355 -12.51312306 4.45412769 -10.125 3.3125 C-9.16787109 2.83200195 -9.16787109 2.83200195 -8.19140625 2.34179688 C-5.28123856 0.91709056 -3.28002036 0 0 0 Z " fill="#FE1101" transform="translate(407,286)"/>
<path d="M0 0 C2.77311603 2.26227887 3.80261761 3.98940217 4.48828125 7.5 C5.18834955 17.82257576 0.43725132 26.95071178 -5.8125 34.9375 C-11.96341073 41.43378272 -20.51953763 47.62660586 -29.5546875 48.2421875 C-39.84355162 48.50632859 -39.84355162 48.50632859 -43.953125 46.70703125 C-47.9967777 45.76869646 -49.56056322 46.89298733 -53.01586914 48.97509766 C-53.73250732 49.43706543 -54.44914551 49.8990332 -55.1875 50.375 C-55.93056396 50.83310059 -56.67362793 51.29120117 -57.43920898 51.76318359 C-63.50523743 55.55075898 -69.34178789 59.62496774 -75 64 C-76.9375 63.1875 -76.9375 63.1875 -79 62 C-79.33 61.01 -79.66 60.02 -80 59 C-70.68757914 51.9048222 -61.31501974 45.54690584 -51 40 C-51.15855469 38.92363281 -51.31710937 37.84726563 -51.48046875 36.73828125 C-52.76874159 27.46852858 -51.74308946 20.78667033 -46.59765625 12.83203125 C-37.33644061 1.12531123 -13.83798635 -10.0325401 0 0 Z M-41.8515625 15.08984375 C-46.48166429 21.15725203 -47.85246157 25.29232664 -47 33 C-44.81545725 37.4499945 -42.54146346 39.99330685 -38 42 C-31.784313 43.70626702 -26.76435477 42.57368745 -21 40 C-11.20303304 33.88870871 -4.7663627 25.91279448 -1 15 C-0.34694623 9.93883325 -0.88769158 7.06994178 -4 3 C-15.83339927 -2.91669964 -33.846702 6.05482187 -41.8515625 15.08984375 Z " fill="#F4F7FE" transform="translate(423,182)"/>
<path d="M0 0 C0.68964844 0.73992187 1.37929688 1.47984375 2.08984375 2.2421875 C4.93032986 5.07371936 8.10296339 7.12562707 11.5625 9.125 C12.20670898 9.50261475 12.85091797 9.88022949 13.51464844 10.26928711 C15.67020383 11.52397919 17.83440828 12.76271995 20 14 C20.7739209 14.44714355 21.5478418 14.89428711 22.34521484 15.35498047 C33.57702371 21.82081669 44.91180891 27.38234791 56.95068359 32.17724609 C59.7566628 33.3037829 62.53263278 34.4982323 65.3125 35.6875 C71.78234834 38.38556441 78.38047189 40.69883268 85 43 C85.26554687 42.14148438 85.53109375 41.28296875 85.8046875 40.3984375 C87.01023801 36.97089192 88.47244386 33.85826202 90.125 30.625 C90.66382812 29.56539063 91.20265625 28.50578125 91.7578125 27.4140625 C92.16773437 26.61742187 92.57765625 25.82078125 93 25 C99.89913626 28.31745701 106.49162544 31.97034681 113 36 C112.67 38.64 112.34 41.28 112 44 C111.44570312 43.68144043 110.89140625 43.36288086 110.3203125 43.03466797 C105.96455317 41.09235862 101.64969794 41.21010783 97 42 C93.26853872 43.83102583 90.20035751 46.24153352 87 48.875 C86.16855469 49.52597656 85.33710937 50.17695313 84.48046875 50.84765625 C82.94740278 52.04884687 81.42280782 53.26099412 79.91015625 54.48779297 C78 56 78 56 75 58 C73.80767387 60.05003955 73.80767387 60.05003955 73 62 C72.34 61.67 71.68 61.34 71 61 C71.33 60.01 71.66 59.02 72 58 C71.26437432 56.19007404 71.26437432 56.19007404 70.015625 54.3828125 C69.57476562 53.69316406 69.13390625 53.00351562 68.6796875 52.29296875 C68.20789063 51.57753906 67.73609375 50.86210937 67.25 50.125 C66.33830042 48.71109303 65.42683662 47.297034 64.515625 45.8828125 C64.07710205 45.2137085 63.6385791 44.54460449 63.18676758 43.85522461 C62.2026497 42.31679389 61.29221237 40.73151996 60.40234375 39.13671875 C58.86360828 36.79218309 57.78875531 35.94751989 55.3125 34.6875 C54.51585937 34.275 53.71921875 33.8625 52.8984375 33.4375 C51.94195312 32.963125 50.98546875 32.48875 50 32 C48.80438141 31.39643929 47.60909095 30.79222831 46.4140625 30.1875 C40.95367047 27.43645757 35.48261522 24.70914139 29.97265625 22.05859375 C6.85586086 10.85586086 6.85586086 10.85586086 0 4 C0 2.68 0 1.36 0 0 Z " fill="#FD1002" transform="translate(30,270)"/>
<path d="M0 0 C2.78610885 0.11048616 5.569076 0.16613963 8.35693359 0.21191406 C32.46844524 0.74156242 57.95153154 4.19475991 79.78271484 15.11035156 C79.78271484 16.10035156 79.78271484 17.09035156 79.78271484 18.11035156 C77.55421207 18.44809488 75.32488017 18.78037026 73.09521484 19.11035156 C71.85384766 19.29597656 70.61248047 19.48160156 69.33349609 19.67285156 C61.61983573 20.62326956 61.61983573 20.62326956 58.75537109 18.86816406 C58.12501953 18.32933594 57.49466797 17.79050781 56.84521484 17.23535156 C49.9540877 11.81450201 43.3842052 11.33643855 34.78271484 12.11035156 C32.35896626 12.77269727 30.12123826 13.55318823 27.81787109 14.55175781 C25.07177973 15.30548346 23.48282723 15.0006363 20.78271484 14.11035156 C18.53662109 12.36816406 18.53662109 12.36816406 16.34521484 10.23535156 C7.64315808 2.18162685 -1.32059883 1.57933995 -12.74853516 1.74316406 C-16.92339447 1.95048942 -20.2666126 3.03189619 -24.15478516 4.61035156 C-32.29997881 7.73908475 -40.03481558 7.4563149 -48.67993164 7.10058594 C-58.00994742 6.78790356 -66.48324119 8.0231206 -74.84228516 12.36035156 C-75.95603516 12.93785156 -77.06978516 13.51535156 -78.21728516 14.11035156 C-78.87728516 13.78035156 -79.53728516 13.45035156 -80.21728516 13.11035156 C-78.38943914 12.14159317 -76.55467575 11.18588283 -74.71728516 10.23535156 C-73.69634766 9.70167969 -72.67541016 9.16800781 -71.62353516 8.61816406 C-63.41663175 4.98529168 -56.55239274 5.01076023 -47.71728516 5.29785156 C-39.98603672 5.44401821 -33.16212507 5.41757159 -25.90478516 2.61035156 C-17.22164574 -0.6049532 -9.17200065 -0.38615534 0 0 Z " fill="#FA4C44" transform="translate(239.21728515625,86.8896484375)"/>
<path d="M0 0 C4.19995271 2.2972117 7.59404994 5.1784658 11.0625 8.4375 C11.57876953 8.91509766 12.09503906 9.39269531 12.62695312 9.88476562 C14.09366779 11.24684842 15.54717414 12.62311277 17 14 C18.20462891 14.97646484 18.20462891 14.97646484 19.43359375 15.97265625 C21 18 21 18 21.14453125 20.8515625 C19.57746305 25.16233713 17.08476346 27.38966143 13.6875 30.375 C13.05811523 30.94299316 12.42873047 31.51098633 11.78027344 32.09619141 C6.20590178 37.02671893 0.29387114 41.03327449 -6 45 C-7.63128985 46.15785557 -9.25649319 47.32434196 -10.875 48.5 C-46.32555735 73.37758411 -88.39157853 82.81686234 -131 84 C-131.74862305 84.02336426 -132.49724609 84.04672852 -133.26855469 84.07080078 C-176.43311892 85.28397583 -230.44430567 75.73168358 -264 46 C-260.0925849 46 -258.57742247 47.36981219 -255.3125 49.5 C-228.13595964 66.73004991 -197.73500481 75.84370266 -166 80 C-164.74405029 80.1750708 -163.48810059 80.3501416 -162.1940918 80.53051758 C-157.95449574 81.05466725 -153.7569568 81.19466034 -149.48828125 81.23828125 C-148.29134895 81.25297203 -148.29134895 81.25297203 -147.07023621 81.26795959 C-88.31043708 81.83896054 -32.33394823 67.23687991 12 27 C12.57057129 26.50081055 13.14114258 26.00162109 13.72900391 25.48730469 C15.65122347 23.77850611 15.65122347 23.77850611 18 21 C17.76478674 17.49914139 16.20766117 15.88707618 13.69140625 13.58203125 C13.02689453 12.96779297 12.36238281 12.35355469 11.67773438 11.72070312 C10.97970703 11.09099609 10.28167969 10.46128906 9.5625 9.8125 C8.52125977 8.85053711 8.52125977 8.85053711 7.45898438 7.86914062 C3.99149489 4.56535875 3.99149489 4.56535875 0 2 C0 1.34 0 0.68 0 0 Z " fill="#EDF0FD" transform="translate(387,334)"/>
<path d="M0 0 C1.6396875 -0.00193359 1.6396875 -0.00193359 3.3125 -0.00390625 C4.46492188 -0.00003906 5.61734375 0.00382813 6.8046875 0.0078125 C8.49851563 0.00201172 8.49851563 0.00201172 10.2265625 -0.00390625 C15.81491566 0.00263749 21.17752085 0.12806902 26.6796875 1.1328125 C22.92601677 3.63525965 19.41989024 3.86958185 15.0546875 4.4453125 C-5.8048289 7.54241902 -27.62650205 14.48116915 -43.3203125 29.1328125 C-44.403125 30.02613281 -44.403125 30.02613281 -45.5078125 30.9375 C-48.93531754 33.77275233 -51.44710126 36.18286893 -53.6328125 40.0703125 C-54.7578125 41.8203125 -54.7578125 41.8203125 -56.3203125 43.1328125 C-60.05499029 43.72696579 -63.57246975 43.5463223 -67.3203125 43.1328125 C-59.68844666 26.05598562 -43.23964255 16.4992539 -26.5703125 9.6953125 C-19.95031099 7.19063883 -13.26510489 5.46789906 -6.3203125 4.1328125 C-6.3203125 3.1428125 -6.3203125 2.1528125 -6.3203125 1.1328125 C-4.60343966 -0.58406034 -2.34063223 0.00264649 0 0 Z " fill="#FDFDF3" transform="translate(242.3203125,217.8671875)"/>
<path d="M0 0 C1.10601562 -0.01675781 2.21203125 -0.03351563 3.3515625 -0.05078125 C6.64964373 0.34549983 8.0474301 0.9792531 10.375 3.3125 C10.375 3.9725 10.375 4.6325 10.375 5.3125 C9.323125 5.53292969 9.323125 5.53292969 8.25 5.7578125 C1.33459539 7.39270435 -3.3089597 9.64254562 -8.625 14.3125 C-9.21925781 14.82296875 -9.81351562 15.3334375 -10.42578125 15.859375 C-11.59056302 16.8614489 -12.74829737 17.87177941 -13.8984375 18.890625 C-15.62758206 20.3146264 -17.41198671 21.44425557 -19.3125 22.625 C-23.04590417 25.16936899 -24.07497654 28.23319948 -25.6484375 32.3515625 C-26.625 34.3125 -26.625 34.3125 -29.375 35.875 C-30.1175 36.019375 -30.86 36.16375 -31.625 36.3125 C-34.78469474 32.36288158 -35.26548685 28.84107236 -35.09765625 23.9375 C-33.9458383 17.54062677 -29.72703744 12.92458091 -24.75 9 C-17.18154791 3.78585648 -9.32817458 0.03276876 0 0 Z " fill="#9DB3FF" transform="translate(410.625,183.6875)"/>
<path d="M0 0 C3.63 0 7.26 0 11 0 C10.73445312 1.49144531 10.46890625 2.98289062 10.1953125 4.51953125 C7.47680758 20.31795042 5.94468882 36.00244072 5 52 C1.7 50.35 -1.6 48.7 -5 47 C-5.33174038 38.26416991 -4.66437125 29.91989276 -3.625 21.25 C-3.49891357 20.18531494 -3.37282715 19.12062988 -3.24291992 18.02368164 C-2.47969727 11.91361533 -1.44038363 5.98698587 0 0 Z " fill="#FEFEFA" transform="translate(171,287)"/>
<path d="M0 0 C3.91234298 4.58303035 5.58707058 9.84554246 5.125 15.875 C4.13711133 19.76069542 3.33712343 21.17642165 0.1875 23.5625 C-3.29267308 25.30258654 -7.01556815 25.14714868 -10.8125 24.5625 C-14.5333205 21.79167623 -16.68683976 19.06514097 -17.8125 14.5625 C-18.25742803 10.20856137 -18.29145457 6.68804323 -16.5625 2.625 C-12.20350643 -2.51238527 -5.85306672 -2.99156743 0 0 Z " fill="#F0F2FE" transform="translate(294.8125,367.4375)"/>
<path d="M0 0 C4.66844512 0.04001524 4.66844512 0.04001524 6.953125 1.6015625 C11.28892561 6.69482225 12.76461425 11.73126807 12.64453125 18.28125 C12.00402648 21.78183053 9.99080663 23.34926638 7.25 25.4375 C4.0248178 27.0500911 0.73756116 27.02770266 -2.75 26.4375 C-7.24645933 23.04017517 -10.19817931 18.86363942 -11.10546875 13.23046875 C-11.37992581 8.75756042 -11.22665511 7.02415245 -8.3125 3.4375 C-7.466875 2.7775 -6.62125 2.1175 -5.75 1.4375 C-4.10710804 -0.20539196 -2.26039721 0.11034483 0 0 Z " fill="#F2F4FE" transform="translate(313.75,358.5625)"/>
<path d="M0 0 C0.70672852 0.00427002 1.41345703 0.00854004 2.14160156 0.01293945 C9.77613536 0.262198 13.48576963 2.79478887 18.625 8.0625 C20.125 10.5 20.125 10.5 20.125 14.5 C6.595 14.5 -6.935 14.5 -20.875 14.5 C-18.71880724 8.03142173 -16.9511856 5.35198929 -11.1953125 1.88671875 C-7.38709315 0.29622714 -4.06501775 -0.03703341 0 0 Z " fill="#FEF903" transform="translate(245.875,199.5)"/>
<path d="M0 0 C0.66 0.33 1.32 0.66 2 1 C1.67 2.32 1.34 3.64 1 5 C2.42225136 6.10144278 3.84476985 7.20254215 5.26855469 8.30200195 C6.46690941 9.22751407 7.66417234 10.15444153 8.86035156 11.08276367 C11.92405503 13.44929433 15.00205088 15.70167353 18.25 17.8125 C21 20 21 20 21.9375 22.8125 C21.958125 23.534375 21.97875 24.25625 22 25 C19 26 19 26 16.61157227 24.8125 C15.68916748 24.214375 14.7667627 23.61625 13.81640625 23 C12.80642578 22.360625 11.79644531 21.72125 10.75585938 21.0625 C8.62970879 19.68927981 6.50470431 18.31428346 4.38085938 16.9375 C3.36958984 16.298125 2.35832031 15.65875 1.31640625 15 C0.39287354 14.401875 -0.53065918 13.80375 -1.48217773 13.1875 C-3.89485563 11.77108739 -3.89485563 11.77108739 -6.33227539 12.3125 C-6.88262451 12.539375 -7.43297363 12.76625 -8 13 C-8 13.66 -8 14.32 -8 15 C-6.03271296 16.6404055 -4.06063003 18.17258827 -2 19.6875 C3.1987304 23.58779016 8.19526379 27.61622255 13 32 C12.67 33.32 12.34 34.64 12 36 C7.47362373 34.3896546 3.57464567 32.05973334 -0.5 29.5625 C-1.15097656 29.16740234 -1.80195312 28.77230469 -2.47265625 28.36523438 C-5.25491651 26.67620567 -8.03132804 24.98045832 -10.79296875 23.2578125 C-13.20245732 21.88461725 -15.26851146 21.39021265 -18 21 C-18 20.34 -18 19.68 -18 19 C-17.05125 18.814375 -16.1025 18.62875 -15.125 18.4375 C-14.09375 17.963125 -13.0625 17.48875 -12 17 C-11.2833793 14.68152126 -10.61757973 12.34680297 -10 10 C-7.5 8.125 -7.5 8.125 -5 7 C-4.34 6.67 -3.68 6.34 -3 6 C-2.835 5.175 -2.67 4.35 -2.5 3.5 C-2.335 2.675 -2.17 1.85 -2 1 C-1.34 0.67 -0.68 0.34 0 0 Z " fill="#2E0A68" transform="translate(80,178)"/>
<path d="M0 0 C0.83848804 1.45537568 1.67063934 2.91440373 2.5 4.375 C2.9640625 5.18710937 3.428125 5.99921875 3.90625 6.8359375 C5 9 5 9 5 11 C1.10522358 12.95979439 -2.79088834 14.91690076 -6.68823242 16.87158203 C-8.01249153 17.53621812 -9.33638994 18.2015734 -10.65991211 18.86767578 C-12.5678913 19.8277646 -14.47717426 20.78521649 -16.38671875 21.7421875 C-18.10701294 22.60626221 -18.10701294 22.60626221 -19.86206055 23.48779297 C-22.54407642 24.78028549 -25.21999817 25.93900012 -28 27 C-29.73956658 25.26043342 -29.37190386 22.8063378 -29.5625 20.4375 C-29.64628906 19.42558594 -29.73007812 18.41367187 -29.81640625 17.37109375 C-29.87699219 16.58863281 -29.93757813 15.80617188 -30 15 C-26.45929322 13.06074205 -22.91726567 11.12390879 -19.375 9.1875 C-18.37597656 8.64029297 -17.37695312 8.09308594 -16.34765625 7.52929688 C-2.56676136 0 -2.56676136 0 0 0 Z " fill="#F9FBFE" transform="translate(377,282)"/>
<path d="M0 0 C20.79 0 41.58 0 63 0 C61 4 61 4 58 6 C55.36140442 6.24050903 55.36140442 6.24050903 52.15161133 6.22705078 C50.35008354 6.22682419 50.35008354 6.22682419 48.51216125 6.22659302 C47.21521835 6.21627045 45.91827545 6.20594788 44.58203125 6.1953125 C43.24110627 6.19158155 41.90017856 6.18873497 40.55924988 6.18673706 C37.03285167 6.17910699 33.50661866 6.15946403 29.98028564 6.1373291 C26.38076004 6.1168571 22.78120769 6.10773245 19.18164062 6.09765625 C12.12102624 6.07621745 5.06052391 6.04208913 -2 6 C-1.34 4.02 -0.68 2.04 0 0 Z " fill="#C88E0D" transform="translate(290,271)"/>
<path d="M0 0 C3.69230769 0.69230769 3.69230769 0.69230769 5 2 C4.60781076 6.80431815 3.41782939 10.67893542 1.6328125 15.1328125 C0.83747027 17.47956303 0.76970077 19.54347491 1 22 C1.99 22 2.98 22 4 22 C4.45890625 20.85660156 4.9178125 19.71320313 5.390625 18.53515625 C6.0096204 17.04394006 6.62945585 15.55307237 7.25 14.0625 C7.55035156 13.30775391 7.85070312 12.55300781 8.16015625 11.77539062 C8.61455078 10.69741211 8.61455078 10.69741211 9.078125 9.59765625 C9.35043945 8.93258057 9.62275391 8.26750488 9.90332031 7.58227539 C11 6 11 6 12.99511719 5.15014648 C13.65672852 5.10059814 14.31833984 5.0510498 15 5 C15.66 5.66 16.32 6.32 17 7 C16.62956059 11.33414104 15.37289489 15.10884873 13.75 19.125 C13.35296875 20.13820313 12.9559375 21.15140625 12.546875 22.1953125 C10.77284017 25.4118706 9.08395536 27.02759297 6 29 C1.23288198 28.91487289 -2.21785925 27.91765143 -6 25 C-7.86769824 22.53803414 -8.04163678 21.40804043 -7.7265625 18.3203125 C-6.90365839 14.55972919 -5.55998244 11.18642289 -4 7.6875 C-3.72671875 7.05521484 -3.4534375 6.42292969 -3.171875 5.77148438 C-1.15160714 1.15160714 -1.15160714 1.15160714 0 0 Z " fill="#EFF1FD" transform="translate(175,354)"/>
<path d="M0 0 C2.625 0.375 2.625 0.375 5 1 C5.0270043 2.45823212 5.04639787 3.91660675 5.0625 5.375 C5.07410156 6.18710937 5.08570313 6.99921875 5.09765625 7.8359375 C5 10 5 10 4 12 C5.051875 11.814375 5.051875 11.814375 6.125 11.625 C9.89385052 12.1165892 11.36848571 13.60652419 13.90625 16.33203125 C15 18 15 18 14.875 20.875 C14.58625 21.57625 14.2975 22.2775 14 23 C12.203125 23.68359375 12.203125 23.68359375 10 24 C8.296875 22.78515625 8.296875 22.78515625 6.75 21.0625 C6.22921875 20.49660156 5.7084375 19.93070312 5.171875 19.34765625 C4.78515625 18.90292969 4.3984375 18.45820313 4 18 C3.01 18.33 2.02 18.66 1 19 C1.495 19.7425 1.99 20.485 2.5 21.25 C4 24 4 24 4 28 C2.35 28.66 0.7 29.32 -1 30 C-4.0632956 26.36741937 -6.47133118 22.6678216 -8.75 18.5 C-9.36359375 17.3965625 -9.9771875 16.293125 -10.609375 15.15625 C-11.96614203 12.07684617 -12.40716697 10.30523778 -12 7 C-11 6 -11 6 -8.6875 5.5625 C-6 6 -6 6 -3.6875 9 C-2.8521875 10.485 -2.8521875 10.485 -2 12 C-2.02320313 11.30132812 -2.04640625 10.60265625 -2.0703125 9.8828125 C-2.08835937 8.97273438 -2.10640625 8.06265625 -2.125 7.125 C-2.14820313 6.22007812 -2.17140625 5.31515625 -2.1953125 4.3828125 C-2 2 -2 2 0 0 Z " fill="#F4F6FE" transform="translate(338,346)"/>
<path d="M0 0 C3.20438157 1.42020475 5.40405735 3.15548635 7.9375 5.5625 C11.67728527 8.93757893 15.53021761 12.01299284 19.625 14.9375 C20.66914062 15.68902344 21.71328125 16.44054687 22.7890625 17.21484375 C26.33485856 19.18616832 28.96361132 19.80687135 33 20 C35.62387135 18.60907108 35.62387135 18.60907108 38 17 C41.00763255 16.62034802 42.49998817 16.68044356 45.078125 18.328125 C45.79484375 18.96234375 46.5115625 19.5965625 47.25 20.25 C51.97997765 24.23577541 56.88438338 27.87021742 61.9375 31.4375 C62.68354492 31.96956055 63.42958984 32.50162109 64.19824219 33.04980469 C64.9049707 33.54770508 65.61169922 34.04560547 66.33984375 34.55859375 C66.97269287 35.00517334 67.60554199 35.45175293 68.25756836 35.91186523 C70.12222468 37.17090011 70.12222468 37.17090011 73 38 C74.32 36.35 75.64 34.7 77 33 C79.97 34.98 82.94 36.96 86 39 C84.26440562 42.057952 82.61527381 44.63379989 80 47 C67.00452575 42.17310956 54.48590629 31.85285565 44.78125 22.08203125 C42.98927185 20.75709125 42.98927185 20.75709125 40.5 21.1875 C38.15191801 21.95062665 36.51598108 22.794381 34.5 24.1875 C31 26 31 26 28.69140625 25.453125 C25.21814762 23.5778678 22.37535091 21.16432756 19.4375 18.5625 C18.83341309 18.03551514 18.22932617 17.50853027 17.60693359 16.96557617 C15.72910342 15.32008271 13.86254848 13.66276292 12 12 C11.39978027 11.46439453 10.79956055 10.92878906 10.18115234 10.37695312 C8.49013716 8.86154877 6.80549813 7.33955359 5.125 5.8125 C4.60736084 5.34336182 4.08972168 4.87422363 3.55639648 4.39086914 C2.35061497 3.28227804 1.17207544 2.14416888 0 1 C0 0.67 0 0.34 0 0 Z " fill="#7B84FB" transform="translate(64,201)"/>
<path d="M0 0 C2.5 3.0625 2.5 3.0625 4 6 C3.34 7.32 2.68 8.64 2 10 C-0.475 9.505 -0.475 9.505 -3 9 C-3.33 8.01 -3.66 7.02 -4 6 C-5.32 6 -6.64 6 -8 6 C-8 10.62 -8 15.24 -8 20 C-6.35 20 -4.7 20 -3 20 C-2.67 18.68 -2.34 17.36 -2 16 C-0.125 15.375 -0.125 15.375 2 15 C2.66 15.66 3.32 16.32 4 17 C3.9375 19.9375 3.9375 19.9375 3 23 C-0.36363771 26.05785246 -3.67435752 26.53842411 -8.0703125 26.34765625 C-11.28574106 25.76835839 -12.85344417 24.39909181 -15 22 C-17.7339892 16.27164168 -17.89226675 10.62722987 -15.875 4.6875 C-12.00704946 -0.85656244 -6.24740197 -2.4723761 0 0 Z " fill="#EBEDFD" transform="translate(269,370)"/>
<path d="M0 0 C2.96780299 0.44256711 4.9076652 1.44792719 7.2265625 3.33203125 C8.58095918 6.0408246 8.29157701 8.34136393 8.2265625 11.33203125 C6.3515625 11.95703125 6.3515625 11.95703125 4.2265625 12.33203125 C2.088014 10.19348275 1.80001187 9.19927811 1.2265625 6.33203125 C-0.0934375 6.00203125 -1.4134375 5.67203125 -2.7734375 5.33203125 C-2.44428853 8.43771101 -2.18120611 9.94033651 0.109375 12.140625 C1.21925781 12.94693359 1.21925781 12.94693359 2.3515625 13.76953125 C4.53515625 15.5625 4.53515625 15.5625 6.2265625 17.33203125 C6.42709728 20.80796748 5.91741013 22.27757961 4.0390625 25.14453125 C1.36024524 26.89961842 -0.56842002 27.20876135 -3.7734375 27.33203125 C-11.74378346 24.63021906 -11.74378346 24.63021906 -13.7734375 21.33203125 C-13.4609375 18.64453125 -13.4609375 18.64453125 -12.7734375 16.33203125 C-10.3984375 16.64453125 -10.3984375 16.64453125 -7.7734375 17.33203125 C-7.1134375 18.32203125 -6.4534375 19.31203125 -5.7734375 20.33203125 C-3.71418611 21.05585592 -3.71418611 21.05585592 -1.7734375 21.33203125 C-2.84264052 17.58982068 -3.72182769 16.37125471 -6.8984375 13.95703125 C-9.7734375 11.33203125 -9.7734375 11.33203125 -10.3359375 7.76953125 C-9.19096353 0.7724681 -6.74608115 -0.29665178 0 0 Z " fill="#F0F2FD" transform="translate(205.7734375,363.66796875)"/>
<path d="M0 0 C-2.62824245 2.62824245 -5.19437251 3.28132158 -8.6875 4.5625 C-23.26690547 10.20112 -37.08727129 18.14073154 -45 32.125 C-46.3515625 34.34765625 -46.3515625 34.34765625 -48 36 C-51.45477765 36.74627372 -54.52673941 36.55599626 -58 36 C-54.02216535 23.75881823 -38.88167336 14.52705643 -27.91259766 8.93603516 C-7.67937323 -0.74316515 -7.67937323 -0.74316515 0 0 Z " fill="#FFFF09" transform="translate(223,225)"/>
<path d="M0 0 C13.509554 5.04486038 24.96009573 14.83936648 31 28 C27.22770334 28.48328356 23.75733816 28.66890026 20 28 C18.03940387 26.28503664 16.95561705 24.52980547 15.60546875 22.30859375 C12.35800178 17.63887848 7.09410778 13.54705389 2 11 C1.71080072 9.00773831 1.42735449 7.01277818 1.24609375 5.0078125 C1.0424937 2.79670732 1.0424937 2.79670732 0 0 Z " fill="#CA8F0D" transform="translate(314,233)"/>
<path d="M0 0 C-3.33567487 2.22378325 -6.35237231 2.85216639 -10.1875 3.6875 C-27.48414801 7.75485932 -49.06889742 16.58959049 -58.9296875 32.01953125 C-59.79980469 33.52580078 -59.79980469 33.52580078 -60.6875 35.0625 C-62.328125 37.8671875 -62.328125 37.8671875 -64 40 C-67.9375 40.6875 -67.9375 40.6875 -71 40 C-65.155098 23.8272129 -49.26552201 15.40150766 -34.6875 8.3125 C-24.00252749 3.62192427 -11.72828049 -0.27924477 0 0 Z " fill="#FCF505" transform="translate(218,221)"/>
<path d="M0 0 C4.93370798 2.66545664 9.8598625 5.34165127 14.73046875 8.12109375 C30.97813439 17.38807025 47.55162488 26.13717424 65.4375 31.8125 C66.08783203 32.01963623 66.73816406 32.22677246 67.40820312 32.44018555 C71.6084361 33.72065225 75.65717958 34.47886155 80 35 C79.34 36.65 78.68 38.3 78 40 C73.4550147 39.39291276 69.55042767 38.20608224 65.29296875 36.515625 C64.65872482 36.26385498 64.0244809 36.01208496 63.37101746 35.75268555 C61.30605516 34.92752278 59.24626295 34.09050332 57.1875 33.25 C56.12695404 32.81898987 56.12695404 32.81898987 55.04498291 32.37927246 C15.83465945 16.37068348 15.83465945 16.37068348 1 4 C0.15625 1.75390625 0.15625 1.75390625 0 0 Z " fill="#808DFA" transform="translate(35,268)"/>
<path d="M0 0 C1.98 0 3.96 0 6 0 C5.85506104 1.29993896 5.71012207 2.59987793 5.56079102 3.93920898 C5.04118447 8.61612457 4.5322742 13.29413645 4.02734375 17.97265625 C3.8962899 19.18543495 3.8962899 19.18543495 3.7625885 20.42271423 C3.48743196 22.96929578 3.21246258 25.5158975 2.9375 28.0625 C2.74936141 29.8040378 2.56121048 31.54557427 2.37304688 33.28710938 C1.91522207 37.5247242 1.45756495 41.76235711 1 46 C-0.65 45.34 -2.3 44.68 -4 44 C-4.13462775 28.86185716 -4.14104988 14.68900711 0 0 Z " fill="#FFFE05" transform="translate(165,287)"/>
<path d="M0 0 C2.6425382 0.03842617 5.24024435 0.14525029 7.875 0.3125 C8.60847656 0.34794922 9.34195313 0.38339844 10.09765625 0.41992188 C13.8401109 0.64828659 15.82122987 0.88081991 19 3 C18.67 4.32 18.34 5.64 18 7 C16.02 7 14.04 7 12 7 C11.87882813 8.27617187 11.75765625 9.55234375 11.6328125 10.8671875 C11.46400509 12.53650526 11.2947089 14.20577365 11.125 15.875 C11.00705078 17.13763672 11.00705078 17.13763672 10.88671875 18.42578125 C10.80292969 19.23144531 10.71914062 20.03710938 10.6328125 20.8671875 C10.55949707 21.61081543 10.48618164 22.35444336 10.41064453 23.12060547 C10 25 10 25 8 27 C4.46428571 26.46428571 4.46428571 26.46428571 3 25 C2.66503323 18.07735344 3.5831362 11.76805475 5 5 C3.35 5 1.7 5 0 5 C-0.5625 3.0625 -0.5625 3.0625 -1 1 C-0.67 0.67 -0.34 0.34 0 0 Z " fill="#EEF1FD" transform="translate(219,368)"/>
<path d="M0 0 C0.99 0 1.98 0 3 0 C4.02264008 1.65287176 5.01777149 3.32279848 6 5 C18.57073453 18.40950773 18.57073453 18.40950773 34 27 C36.38838665 26.12958101 36.38838665 26.12958101 38.5625 24.5625 C42.46952996 21.96909883 42.46952996 21.96909883 45.01171875 22.1171875 C47.5239839 23.23265297 49.22620764 24.707357 51.25 26.5625 C52.30960938 27.52349609 52.30960938 27.52349609 53.390625 28.50390625 C53.92171875 28.99761719 54.4528125 29.49132812 55 30 C54.34 30.66 53.68 31.32 53 32 C50.69 30.02 48.38 28.04 46 26 C43.22530561 27.06091256 40.66730113 28.18404618 38.0625 29.625 C34.46394253 31.24067886 32.90578218 31.62622398 29 31 C26.14090983 28.94371236 23.76415092 26.4558585 21.3125 23.9375 C15.85604438 18.55036872 10.74508816 14.06521571 4.0390625 10.296875 C2 9 2 9 0 6 C-0.125 2.8125 -0.125 2.8125 0 0 Z " fill="#341874" transform="translate(61,199)"/>
<path d="M0 0 C1.10601562 -0.02835938 2.21203125 -0.05671875 3.3515625 -0.0859375 C6.97434331 0.46637275 8.10725115 1.57626605 10.375 4.375 C9.15876953 4.30539063 9.15876953 4.30539063 7.91796875 4.234375 C-3.99864181 3.84594066 -14.09749298 7.06280493 -23.625 14.375 C-28.52491604 19.62348731 -30.77289485 23.80393751 -30.6875 31.0625 C-30.67847656 32.05636719 -30.66945313 33.05023438 -30.66015625 34.07421875 C-30.64855469 34.83347656 -30.63695312 35.59273437 -30.625 36.375 C-33.86857445 33.27245052 -34.83018176 31.31102597 -35.0625 26.8125 C-34.98266233 20.66499919 -32.68028387 16.87032531 -28.625 12.375 C-20.81144299 5.15630227 -10.71074023 0.1254185 0 0 Z " fill="#8089F7" transform="translate(410.625,183.625)"/>
<path d="M0 0 C1.65 0.66 3.3 1.32 5 2 C4.49965221 7.00347787 2.79768993 10.58290279 0.125 14.75 C-0.40287109 15.61431641 -0.40287109 15.61431641 -0.94140625 16.49609375 C-2.77090592 19.41377167 -4.09047223 21.06031482 -7 23 C-10.99546788 23.52114798 -12.52319265 23.33169207 -15.875 21 C-16.57625 20.34 -17.2775 19.68 -18 19 C-17.67 17.35 -17.34 15.7 -17 14 C-14.69 14.33 -12.38 14.66 -10 15 C-9.36191406 14.00097656 -8.72382813 13.00195312 -8.06640625 11.97265625 C-7.23183727 10.66922829 -6.39719823 9.36584519 -5.5625 8.0625 C-5.14162109 7.40314453 -4.72074219 6.74378906 -4.28710938 6.06445312 C-1.11328125 1.11328125 -1.11328125 1.11328125 0 0 Z " fill="#F1F3FE" transform="translate(164,348)"/>
<path d="M0 0 C1.75 3.5625 1.75 3.5625 3 7 C0.77567782 8.32134971 -1.45383619 9.63211206 -3.6875 10.9375 C-4.31333984 11.31068359 -4.93917969 11.68386719 -5.58398438 12.06835938 C-9.04444449 14.07941211 -11.95510676 15.51275665 -16 16 C-17.32 13.36 -18.64 10.72 -20 8 C-17.42474285 6.46382917 -14.841326 4.94611799 -12.25 3.4375 C-11.15558594 2.78104492 -11.15558594 2.78104492 -10.0390625 2.11132812 C-9.33007812 1.70205078 -8.62109375 1.29277344 -7.890625 0.87109375 C-6.91657715 0.29766235 -6.91657715 0.29766235 -5.92285156 -0.28735352 C-3.48169074 -1.19209557 -2.365113 -1.06405332 0 0 Z " fill="#F7F8FE" transform="translate(402,272)"/>
<path d="M0 0 C4.84183752 3.91071492 9.24652456 8.00911507 13 13 C13 13.33 13 13.66 13 14 C2.77 14 -7.46 14 -18 14 C-15.25216798 11.25216798 -13.47656328 10.07522359 -10.0625 8.4375 C-8.78052734 7.81681641 -8.78052734 7.81681641 -7.47265625 7.18359375 C-5.91931477 6.44005114 -4.34485843 5.73771629 -2.74609375 5.09765625 C-0.79643492 4.12425816 -0.79643492 4.12425816 -0.25 1.875 C-0.1675 1.25625 -0.085 0.6375 0 0 Z " fill="#CE910A" transform="translate(312,247)"/>
<path d="M0 0 C0.55107422 0.59554687 0.55107422 0.59554687 1.11328125 1.203125 C3.6375804 3.60721943 6.40724132 5.65615125 9.1875 7.75 C14.30711944 11.64105388 19.24672224 15.66317256 24 20 C23.67 21.32 23.34 22.64 23 24 C18.47362373 22.3896546 14.57464567 20.05973334 10.5 17.5625 C9.84902344 17.16740234 9.19804688 16.77230469 8.52734375 16.36523438 C5.74508349 14.67620567 2.96867196 12.98045832 0.20703125 11.2578125 C-2.20245732 9.88461725 -4.26851146 9.39021265 -7 9 C-7 8.34 -7 7.68 -7 7 C-5.02 6.34 -3.04 5.68 -1 5 C-0.67 3.35 -0.34 1.7 0 0 Z " fill="#280E6F" transform="translate(69,190)"/>
<path d="M0 0 C3.83007461 3.28292109 5.75455565 6.84359603 6.328125 11.8828125 C6.60425494 19.9103043 6.60425494 19.9103043 4.609375 23.5078125 C0.79905695 27.14700848 -3.54455579 29.37255929 -8.1875 31.8125 C-9.16404541 32.33368408 -10.14059082 32.85486816 -11.14672852 33.3918457 C-17.19252755 36.59198283 -23.27604401 39.71571651 -29.4375 42.6875 C-30.10354248 43.01403564 -30.76958496 43.34057129 -31.45581055 43.67700195 C-36.17206947 45.88633931 -40.95108528 47.68300061 -46.1796875 46.51171875 C-50.88888889 44.22222222 -50.88888889 44.22222222 -52 42 C-51.34 42.33 -50.68 42.66 -50 43 C-44.71976546 44.76007818 -40.49784626 44.57631283 -35.38891602 42.6105957 C-34.16847568 41.98241213 -32.95696485 41.33664374 -31.75390625 40.67578125 C-31.0984935 40.3325029 -30.44308075 39.98922455 -29.76780701 39.63554382 C-27.6909171 38.54302696 -25.62695723 37.42829862 -23.5625 36.3125 C-22.18242423 35.58250103 -20.80156951 34.85397268 -19.41992188 34.12695312 C-15.59918602 32.11016993 -11.79839222 30.05855167 -8 28 C-7.04150146 27.48791992 -6.08300293 26.97583984 -5.09545898 26.44824219 C-4.29052002 26.01286133 -3.48558105 25.57748047 -2.65625 25.12890625 C-1.98529297 24.76740479 -1.31433594 24.40590332 -0.62304688 24.03344727 C1.94045329 22.40118249 2.98548176 20.84065107 4 18 C4.74523628 12.46395906 3.28232678 8.77441618 0.875 3.91796875 C0 2 0 2 0 0 Z " fill="#EFF1FD" transform="translate(463,251)"/>
<path d="M0 0 C0.68964844 0.73992187 1.37929688 1.47984375 2.08984375 2.2421875 C4.93032986 5.07371936 8.10296339 7.12562707 11.5625 9.125 C12.20670898 9.50261475 12.85091797 9.88022949 13.51464844 10.26928711 C15.67020383 11.52397919 17.83440828 12.76271995 20 14 C20.7739209 14.44714355 21.5478418 14.89428711 22.34521484 15.35498047 C32.23189955 21.04646657 42.05116554 26.26015667 52.82128906 30.09985352 C58.41926155 32.23482884 61.06352063 34.80957816 64 40 C64.54785156 40.95003906 65.09570312 41.90007812 65.66015625 42.87890625 C66.12292969 43.76449219 66.58570312 44.65007812 67.0625 45.5625 C68.70069569 48.66488613 70.33448229 51.56855912 72.4375 54.375 C74 57 74 57 73.75 59.875 C73.37875 60.926875 73.37875 60.926875 73 62 C72.34 61.67 71.68 61.34 71 61 C71.33 60.01 71.66 59.02 72 58 C71.26437432 56.19007404 71.26437432 56.19007404 70.015625 54.3828125 C69.57476562 53.69316406 69.13390625 53.00351562 68.6796875 52.29296875 C68.20789063 51.57753906 67.73609375 50.86210937 67.25 50.125 C66.33830042 48.71109303 65.42683662 47.297034 64.515625 45.8828125 C64.07710205 45.2137085 63.6385791 44.54460449 63.18676758 43.85522461 C62.2026497 42.31679389 61.29221237 40.73151996 60.40234375 39.13671875 C58.86360828 36.79218309 57.78875531 35.94751989 55.3125 34.6875 C54.51585937 34.275 53.71921875 33.8625 52.8984375 33.4375 C51.94195312 32.963125 50.98546875 32.48875 50 32 C48.80438141 31.39643929 47.60909095 30.79222831 46.4140625 30.1875 C40.95367047 27.43645757 35.48261522 24.70914139 29.97265625 22.05859375 C6.85586086 10.85586086 6.85586086 10.85586086 0 4 C0 2.68 0 1.36 0 0 Z " fill="#E6E9FD" transform="translate(30,270)"/>
<path d="M0 0 C-1 2 -1 2 -4.48046875 3.18359375 C-29.96622831 10.22190916 -54.76009062 10.38663914 -81 10 C-81 9.67 -81 9.34 -81 9 C-80.27337158 8.9906543 -79.54674316 8.98130859 -78.7980957 8.97167969 C-55.18172397 8.59497003 -31.73914205 6.94446002 -8.89819336 0.48730469 C-3.27545999 -1.09182 -3.27545999 -1.09182 0 0 Z " fill="#EAEDFC" transform="translate(321,407)"/>
<path d="M0 0 C6.51819877 1.89536276 12.17814801 4.5178994 18 8 C17.67 10.64 17.34 13.28 17 16 C14.39459218 14.71078784 11.79065627 13.41874404 9.1875 12.125 C8.44951172 11.76019531 7.71152344 11.39539063 6.95117188 11.01953125 C6.23896484 10.66503906 5.52675781 10.31054688 4.79296875 9.9453125 C3.81106567 9.45828857 3.81106567 9.45828857 2.80932617 8.96142578 C1 8 1 8 -2 6 C-1.34 4.02 -0.68 2.04 0 0 Z " fill="#F4F7FE" transform="translate(127,286)"/>
<path d="M0 0 C-0.30754089 1.87309265 -0.30754089 1.87309265 -1 4 C-3.38324335 5.57150836 -5.64020523 6.86852009 -8.17578125 8.14453125 C-8.89734909 8.5185759 -9.61891693 8.89262054 -10.36235046 9.27799988 C-11.88973237 10.06534532 -13.42067887 10.84580819 -14.95483398 11.61987305 C-17.30256959 12.80747669 -19.63486016 14.0219556 -21.96679688 15.24023438 C-23.4522782 16.00165432 -24.93858084 16.76147449 -26.42578125 17.51953125 C-27.12383377 17.88399857 -27.82188629 18.24846588 -28.54109192 18.62397766 C-32.18069874 20.4379106 -34.1249643 21.27439267 -38 20 C-34.79260501 16.38408047 -31.18802897 14.27151868 -26.93359375 12.109375 C-26.25829117 11.75989807 -25.58298859 11.41042114 -24.88722229 11.050354 C-23.46619103 10.3172961 -22.04320863 9.58800949 -20.6184082 8.86230469 C-18.43607685 7.74927417 -16.26174075 6.62167695 -14.08789062 5.4921875 C-12.7035763 4.78037164 -11.31882527 4.06940429 -9.93359375 3.359375 C-9.28353867 3.02194275 -8.63348358 2.6845105 -7.96372986 2.33685303 C-5.10243724 0.88892944 -3.25422247 0 0 0 Z " fill="#1E0769" transform="translate(451,254)"/>
<path d="M0 0 C0 0.99 0 1.98 0 3 C-0.78125244 3.4031543 -1.56250488 3.80630859 -2.36743164 4.22167969 C-5.29595496 5.73382 -8.22376648 7.24732174 -11.15112305 8.76171875 C-12.41256388 9.41394924 -13.67427717 10.0656531 -14.9362793 10.71679688 C-23.15084274 14.91869639 -23.15084274 14.91869639 -31.18359375 19.453125 C-34 21 -34 21 -37 21 C-36.86206055 19.20922852 -36.86206055 19.20922852 -36 17 C-33.50317383 15.30834961 -33.50317383 15.30834961 -30.20703125 13.65234375 C-29.62338303 13.35437393 -29.0397348 13.05640411 -28.43840027 12.74940491 C-26.56938949 11.79902005 -24.69139592 10.86816357 -22.8125 9.9375 C-21.56641878 9.30790277 -20.32096788 8.67705635 -19.07617188 8.04492188 C-15.72524117 6.34749759 -12.36388528 4.67162397 -9 3 C-7.93869873 2.43869385 -6.87739746 1.8773877 -5.78393555 1.29907227 C-3 0 -3 0 0 0 Z " fill="#1E076A" transform="translate(455,262)"/>
<path d="M0 0 C0.66 1.32 1.32 2.64 2 4 C-1.89477642 5.95979439 -5.79088834 7.91690076 -9.68823242 9.87158203 C-11.01249153 10.53621812 -12.33638994 11.2015734 -13.65991211 11.86767578 C-15.5678913 12.8277646 -17.47717426 13.78521649 -19.38671875 14.7421875 C-21.10701294 15.60626221 -21.10701294 15.60626221 -22.86206055 16.48779297 C-25.54407642 17.78028549 -28.21999817 18.93900012 -31 20 C-32.73956658 18.26043342 -32.37190386 15.8063378 -32.5625 13.4375 C-32.68818359 11.91962891 -32.68818359 11.91962891 -32.81640625 10.37109375 C-32.87699219 9.58863281 -32.93757813 8.80617188 -33 8 C-31.35 7.34 -29.7 6.68 -28 6 C-27.67 8.97 -27.34 11.94 -27 15 C-26.25314941 14.60619141 -25.50629883 14.21238281 -24.73681641 13.80664062 C-21.96915473 12.34974972 -19.19960442 10.89653433 -16.42871094 9.44580078 C-15.22904458 8.81673913 -14.03014591 8.18621123 -12.83203125 7.55419922 C-11.11139422 6.64687655 -9.38776861 5.74522848 -7.6640625 4.84375 C-6.62717285 4.29912109 -5.5902832 3.75449219 -4.52197266 3.19335938 C-2 2 -2 2 0 2 C0 1.34 0 0.68 0 0 Z " fill="#7E8AF3" transform="translate(380,289)"/>
<path d="M0 0 C-0.30754089 1.87309265 -0.30754089 1.87309265 -1 4 C-3.38324335 5.57150836 -5.64020523 6.86852009 -8.17578125 8.14453125 C-8.89734909 8.5185759 -9.61891693 8.89262054 -10.36235046 9.27799988 C-11.88973237 10.06534532 -13.42067887 10.84580819 -14.95483398 11.61987305 C-17.30256959 12.80747669 -19.63486016 14.0219556 -21.96679688 15.24023438 C-23.4522782 16.00165432 -24.93858084 16.76147449 -26.42578125 17.51953125 C-27.12383377 17.88399857 -27.82188629 18.24846588 -28.54109192 18.62397766 C-32.18069874 20.4379106 -34.1249643 21.27439267 -38 20 C-35.62241532 17.33878736 -33.15888338 15.87639688 -29.9921875 14.2578125 C-29.00476563 13.74863281 -28.01734375 13.23945313 -27 12.71484375 C-25.96875 12.19019531 -24.9375 11.66554688 -23.875 11.125 C-21.85096588 10.08710015 -19.82752033 9.04805166 -17.8046875 8.0078125 C-16.33660645 7.25612793 -16.33660645 7.25612793 -14.83886719 6.48925781 C-11.45134866 4.71217981 -8.13919577 2.82108754 -4.84423828 0.87841797 C-3 0 -3 0 0 0 Z " fill="#20086B" transform="translate(447,246)"/>
<path d="M0 0 C-0.13793945 1.79077148 -0.13793945 1.79077148 -1 4 C-3.49682617 5.69165039 -3.49682617 5.69165039 -6.79296875 7.34765625 C-7.37661697 7.64562607 -7.9602652 7.94359589 -8.56159973 8.25059509 C-10.43061051 9.20097995 -12.30860408 10.13183643 -14.1875 11.0625 C-15.43358122 11.69209723 -16.67903212 12.32294365 -17.92382812 12.95507812 C-21.27475883 14.65250241 -24.63611472 16.32837603 -28 18 C-29.04067627 18.56130615 -30.08135254 19.1226123 -31.15356445 19.70092773 C-34 21 -34 21 -38 21 C-36.54473871 16.63421613 -33.21310385 15.72392925 -29.31640625 13.76953125 C-28.54570297 13.37424728 -27.77499969 12.97896332 -26.98094177 12.57170105 C-25.34992424 11.73758801 -23.71646996 10.90822533 -22.08081055 10.08325195 C-19.57106902 8.81682397 -17.06925583 7.535745 -14.56835938 6.25195312 C-12.98481936 5.44444052 -11.40084903 4.63777107 -9.81640625 3.83203125 C-9.0642836 3.44771439 -8.31216095 3.06339752 -7.5372467 2.66743469 C-2.23305598 0 -2.23305598 0 0 0 Z " fill="#1F086B" transform="translate(443,238)"/>
<path d="M0 0 C2.9375 0.3125 2.9375 0.3125 4.9375 2.3125 C3.91914062 2.57933594 2.90078125 2.84617188 1.8515625 3.12109375 C-3.82267525 5.55270595 -5.92737722 11.17500791 -8.6875 16.375 C-9.77042018 18.39398209 -10.86628899 20.40608601 -11.9765625 22.41015625 C-12.4504541 23.30226807 -12.9243457 24.19437988 -13.41259766 25.11352539 C-15.37511213 27.72914656 -16.97273749 28.38360949 -20.0625 29.3125 C-18.63963608 25.47146834 -16.84710879 22.07783092 -14.75 18.5625 C-12.12869073 14.14278729 -9.60536062 9.69459912 -7.203125 5.15234375 C-5.12651161 1.80273791 -4.01542891 0.40973764 0 0 Z " fill="#584592" transform="translate(52.0625,238.6875)"/>
<path d="M0 0 C0 0.99 0 1.98 0 3 C-8.76517156 10.75991044 -16.94104165 13.33590264 -28.37890625 13.30078125 C-32 13 -32 13 -34.953125 11.70703125 C-38.9967777 10.76869646 -40.56056322 11.89298733 -44.01586914 13.97509766 C-44.73250732 14.43706543 -45.44914551 14.8990332 -46.1875 15.375 C-46.93056396 15.83310059 -47.67362793 16.29120117 -48.43920898 16.76318359 C-54.50523743 20.55075898 -60.34178789 24.62496774 -66 29 C-67.9375 28.1875 -67.9375 28.1875 -70 27 C-70.33 26.01 -70.66 25.02 -71 24 C-68.71131527 23.26435134 -67.40367437 22.87617726 -65.0690918 23.59228516 C-62.67361405 24.2986272 -62.67361405 24.2986272 -59.64453125 22.0859375 C-58.35955912 21.19317243 -57.08254818 20.28887114 -55.8125 19.375 C-54.46756324 18.4471608 -53.12121405 17.52136553 -51.7734375 16.59765625 C-50.80035645 15.92500732 -50.80035645 15.92500732 -49.80761719 15.23876953 C-40.61661196 8.94012548 -40.61661196 8.94012548 -35.625 9.125 C-32.8125 10.0625 -32.8125 10.0625 -30 11 C-20.04404846 12.13304672 -11.68222948 9.3311546 -3.8125 3.25 C-2.52981707 2.18072316 -1.2542447 1.10249658 0 0 Z " fill="#818EF5" transform="translate(414,217)"/>
<path d="M0 0 C0.99 0.99 1.98 1.98 3 3 C2.01 3.495 2.01 3.495 1 4 C0.32157795 5.75106231 -0.29000884 7.52805022 -0.875 9.3125 C-3.26391964 15.77116598 -6.43749342 21.48933162 -10 27.375 C-10.51030762 28.21844971 -11.02061523 29.06189941 -11.54638672 29.9309082 C-14.51721141 34.76603302 -17.64475732 39.42354767 -21 44 C-21.66 43.67 -22.32 43.34 -23 43 C-21.73120712 39.49861965 -20.26134577 36.82127261 -18 33.875 C-14.46943338 28.95293123 -11.61986945 23.79125752 -8.8125 18.4375 C-8.39677734 17.64649902 -7.98105469 16.85549805 -7.55273438 16.04052734 C-4.82795784 10.7795288 -2.34562276 5.44012472 0 0 Z " fill="#FEF9F8" transform="translate(408,290)"/>
<path d="M0 0 C4.22141034 1.50764655 5.80349864 4.21292869 8 8 C10.39394043 15.76074805 9.12908795 23.64389851 6 31 C1.93252308 38.37167422 -2.8899223 45.18087838 -9 51 C-9.66 51.66 -10.32 52.32 -11 53 C-11.3125 50.75 -11.3125 50.75 -11 48 C-9.34808509 46.64843325 -7.67705908 45.320238 -6 44 C1.2390267 35.49125792 7.01251622 24.64528541 6.36328125 13.21875 C5.52686165 8.11029483 3.33309985 3.96797602 0 0 Z " fill="#EFF1FD" transform="translate(426,177)"/>
<path d="M0 0 C1.48280196 0.78483659 2.9611498 1.57809334 4.4375 2.375 C5.67306641 3.03628906 5.67306641 3.03628906 6.93359375 3.7109375 C9 5 9 5 10 7 C8.02 9.31 6.04 11.62 4 14 C0.06326356 12.68775452 -2.22719294 11.08089673 -5 8 C-3.35 5.36 -1.7 2.72 0 0 Z " fill="#767DF6" transform="translate(140,234)"/>
<path d="M0 0 C0.73605469 0.01353516 1.47210938 0.02707031 2.23046875 0.04101562 C4.02896743 0.07605131 5.82708422 0.12984712 7.625 0.1875 C7.625 0.5175 7.625 0.8475 7.625 1.1875 C6.75617188 1.28546875 5.88734375 1.3834375 4.9921875 1.484375 C-3.99807951 2.49085962 -3.99807951 2.49085962 -11.375 7.1875 C-11.849375 8.239375 -12.32375 9.29125 -12.8125 10.375 C-13.5859375 11.7671875 -13.5859375 11.7671875 -14.375 13.1875 C-18.0625 14.0625 -18.0625 14.0625 -21.375 14.1875 C-19.81074675 8.07269185 -17.07683444 4.85323274 -11.7265625 1.5546875 C-7.61336588 -0.12318991 -4.37882077 -0.15440688 0 0 Z " fill="#F9F7F0" transform="translate(246.375,199.8125)"/>
<path d="M0 0 C2.77020773 1.34313102 3.46213736 3.21026943 4.53515625 6.01171875 C5.33624596 9.03212364 5.25215171 11.90235543 5.0625 15 C3.7425 15.33 2.4225 15.66 1.0625 16 C-2.83109206 11.10160999 -3.6617265 7.2049038 -3.9375 1 C-1.9375 0 -1.9375 0 0 0 Z " fill="#20096C" transform="translate(313.9375,364)"/>
<path d="M0 0 C2 0.0625 2 0.0625 4 1 C6.69561188 5.31297901 6.19227075 10.09709597 6 15 C4.35 15.33 2.7 15.66 1 16 C-2.62189055 6.10447761 -2.62189055 6.10447761 -2 2 C-1.34 1.34 -0.68 0.68 0 0 Z " fill="#1D0568" transform="translate(286,371)"/>
<path d="M0 0 C0.33 0 0.66 0 1 0 C1.48893131 5.37824444 1.48893131 5.37824444 -0.52148438 7.93481445 C-3.74482245 10.62061201 -7.17308283 12.40726349 -10.90625 14.29296875 C-11.66796509 14.68446609 -12.42968018 15.07596344 -13.21447754 15.47932434 C-14.81966117 16.30229647 -16.4267628 17.12153703 -18.03564453 17.93725586 C-20.4959529 19.18544678 -22.94949551 20.44620721 -25.40234375 21.70898438 C-26.96576278 22.50856194 -28.5295526 23.30741497 -30.09375 24.10546875 C-30.82613892 24.48148727 -31.55852783 24.8575058 -32.31311035 25.24491882 C-38.55088464 28.39674553 -38.55088464 28.39674553 -42 29 C-44.25 28.0625 -44.25 28.0625 -46 27 C-44 26 -44 26 -41.38354492 25.67431641 C-37.13600889 24.82781272 -33.70921465 23.15514721 -29.86328125 21.2109375 C-29.10202438 20.82942535 -28.34076752 20.44791321 -27.55644226 20.05484009 C-25.95485417 19.24730131 -24.35558734 18.43514411 -22.75854492 17.61865234 C-20.32004421 16.37883573 -17.86701806 15.17177292 -15.41210938 13.96484375 C-13.85316677 13.17384256 -12.29518907 12.38093622 -10.73828125 11.5859375 C-10.00700516 11.23147552 -9.27572906 10.87701355 -8.52229309 10.5118103 C-3.39947719 7.82968751 -1.74617837 5.52082625 0 0 Z " fill="#656DC3" transform="translate(461,262)"/>
<path d="M0 0 C4.49777719 1.51619985 8.03741626 4.0147378 11.8125 6.8125 C16.76434421 10.42151523 21.74157828 13.84494697 27 17 C26.67 17.99 26.34 18.98 26 20 C18.89671347 15.55519201 11.86280146 11.04999598 5.125 6.0625 C4.13757813 5.33160156 3.15015625 4.60070312 2.1328125 3.84765625 C1.42898437 3.23792969 0.72515625 2.62820312 0 2 C0 1.34 0 0.68 0 0 Z " fill="#2C0463" transform="translate(115,230)"/>
<path d="M0 0 C4.37498593 -0.02913072 8.74994674 -0.04684286 13.125 -0.0625 C14.3625 -0.07087891 15.6 -0.07925781 16.875 -0.08789062 C18.07382813 -0.09111328 19.27265625 -0.09433594 20.5078125 -0.09765625 C21.60754395 -0.10289307 22.70727539 -0.10812988 23.84033203 -0.11352539 C26.97618105 -0.0008558 29.92059383 0.41373624 33 1 C33 1.33 33 1.66 33 2 C21.79914831 3.07774518 11.19174895 3.191517 0 2 C0 1.34 0 0.68 0 0 Z " fill="#E9090F" transform="translate(232,360)"/>
<path d="M0 0 C0.99 0.33 1.98 0.66 3 1 C3.33 2.98 3.66 4.96 4 7 C-4.25 6.67 -12.5 6.34 -21 6 C-21 5.67 -21 5.34 -21 5 C-19.98679688 4.97421875 -18.97359375 4.9484375 -17.9296875 4.921875 C-16.57808403 4.86555819 -15.22652319 4.80821167 -13.875 4.75 C-13.20984375 4.73582031 -12.5446875 4.72164062 -11.859375 4.70703125 C-6.77424046 4.45775995 -4.09157047 2.87002914 0 0 Z " fill="#AD8222" transform="translate(262,207)"/>
<path d="M0 0 C2.6875 0.0625 2.6875 0.0625 6 1 C10.03283407 5.63775918 12.7089664 10.99920192 15.5703125 16.41796875 C16.75016149 18.54878892 17.98197427 20.43262601 19.4375 22.375 C21 25 21 25 20.75 27.875 C20.5025 28.57625 20.255 29.2775 20 30 C19.34 29.67 18.68 29.34 18 29 C18.33 28.01 18.66 27.02 19 26 C18.26437432 24.19007404 18.26437432 24.19007404 17.015625 22.3828125 C16.57476562 21.69316406 16.13390625 21.00351562 15.6796875 20.29296875 C15.20789063 19.57753906 14.73609375 18.86210937 14.25 18.125 C13.33830042 16.71109303 12.42683662 15.297034 11.515625 13.8828125 C11.07774658 13.21378906 10.63986816 12.54476563 10.1887207 11.85546875 C9.19985777 10.31195708 8.27659082 8.72666106 7.37109375 7.1328125 C5.4790453 4.18962603 2.93542624 2.82648744 0 1 C0 0.67 0 0.34 0 0 Z " fill="#F4E5EA" transform="translate(83,302)"/>
<path d="M0 0 C0 0.66 0 1.32 0 2 C-3.9476427 3.3158809 -7.71089356 3.12300273 -11.82421875 3.09765625 C-12.68561966 3.0962413 -13.54702057 3.09482635 -14.43452454 3.09336853 C-17.18555169 3.0877714 -19.93649744 3.07521946 -22.6875 3.0625 C-24.5527332 3.05748463 -26.41796767 3.05292179 -28.28320312 3.04882812 C-32.85550011 3.03780292 -37.42773625 3.02054027 -42 3 C-42 2.67 -42 2.34 -42 2 C-41.16863525 1.97494385 -40.33727051 1.9498877 -39.48071289 1.92407227 C-36.35512698 1.82814469 -33.2296647 1.72896697 -30.10424805 1.62768555 C-28.10277877 1.56378595 -26.10119407 1.50353516 -24.09960938 1.44335938 C-16.06639012 1.18030686 -8.00679981 0 0 0 Z " fill="#DAE7FF" transform="translate(282,414)"/>
<path d="M0 0 C4.14032846 1.54385129 7.93553053 3.51028938 11.8125 5.625 C12.40998047 5.94984375 13.00746094 6.2746875 13.62304688 6.609375 C15.08337135 7.40379151 16.54187491 8.20155376 18 9 C18 7.02 18 5.04 18 3 C18.66 3.33 19.32 3.66 20 4 C19.67 6.64 19.34 9.28 19 12 C16.39459218 10.71078784 13.79065627 9.41874404 11.1875 8.125 C10.44951172 7.76019531 9.71152344 7.39539063 8.95117188 7.01953125 C8.23896484 6.66503906 7.52675781 6.31054688 6.79296875 5.9453125 C6.1383667 5.62062988 5.48376465 5.29594727 4.80932617 4.96142578 C3 4 3 4 0 2 C0 1.34 0 0.68 0 0 Z " fill="#808CF8" transform="translate(125,290)"/>
<path d="M0 0 C0.66 0.66 1.32 1.32 2 2 C0.3603125 2.61875 0.3603125 2.61875 -1.3125 3.25 C-4.57124334 4.6269338 -6.02112396 6.03168593 -8 9 C-8.99 9.33 -9.98 9.66 -11 10 C-10.69029053 6.59319587 -10.31233339 4.43958033 -8.3125 1.625 C-5.33119087 -0.46997398 -3.57130851 -0.46582285 0 0 Z " fill="#62509C" transform="translate(55,239)"/>
<path d="M0 0 C3.85593074 1.58561638 6.33216291 4.06509954 9.25 7 C10.14203125 7.886875 11.0340625 8.77375 11.953125 9.6875 C14 12 14 12 14 14 C8.73152512 12.56314321 5.4072287 9.09218704 2 5 C0.5625 2.0625 0.5625 2.0625 0 0 Z " fill="#EA0912" transform="translate(99,348)"/>
<path d="M0 0 C0.66 0.99 1.32 1.98 2 3 C-0.22432218 4.32134971 -2.45383619 5.63211206 -4.6875 6.9375 C-5.31333984 7.31068359 -5.93917969 7.68386719 -6.58398438 8.06835938 C-10.04444449 10.07941211 -12.95510676 11.51275665 -17 12 C-17.33 11.34 -17.66 10.68 -18 10 C-17.05125 9.608125 -16.1025 9.21625 -15.125 8.8125 C-11.91884449 7.43280193 -8.76478051 5.96227847 -5.625 4.4375 C-4.77164062 4.02371094 -3.91828125 3.60992187 -3.0390625 3.18359375 C-0.85341757 2.16437249 -0.85341757 2.16437249 0 0 Z " fill="#828EF6" transform="translate(403,276)"/>
<path d="M0 0 C4.12771485 3.86973267 7.5623852 8.13462969 11.03515625 12.59765625 C12.90595384 14.88501314 14.87446552 16.9502084 17 19 C16.67 19.66 16.34 20.32 16 21 C8.94181825 15.70636369 2.82514035 8.47542104 0 0 Z " fill="#F0EBF4" transform="translate(358,120)"/>
<path d="M0 0 C0.66 0.33 1.32 0.66 2 1 C0.56354149 2.60509934 -0.87420706 4.20904424 -2.3125 5.8125 C-3.11300781 6.70582031 -3.91351563 7.59914063 -4.73828125 8.51953125 C-6.45224581 10.39926786 -8.17877604 12.22592747 -10 14 C-10.66 13.67 -11.32 13.34 -12 13 C-4.88610478 3.40546697 -4.88610478 3.40546697 0 0 Z " fill="#8473B6" transform="translate(154,103)"/>
<path d="M0 0 C4.24907006 2.31268573 7.63810036 5.25385832 11.125 8.5625 C13.98076002 11.2533697 16.72155411 13.81436941 20 16 C20 16.66 20 17.32 20 18 C17.07824722 16.67312701 14.93457134 15.20844897 12.6171875 12.99609375 C12.00746094 12.42052734 11.39773438 11.84496094 10.76953125 11.25195312 C10.14433594 10.65318359 9.51914062 10.05441406 8.875 9.4375 C7.62431717 8.24667673 6.37179738 7.05777889 5.1171875 5.87109375 C4.56659668 5.34443115 4.01600586 4.81776855 3.44873047 4.27514648 C2.00795511 2.89762196 2.00795511 2.89762196 0 2 C0 1.34 0 0.68 0 0 Z " fill="#E6E7F9" transform="translate(387,334)"/>
<path d="M0 0 C-3.49587959 2.33058639 -6.92041315 3.19132 -10.9375 4.1875 C-11.65357422 4.37763672 -12.36964844 4.56777344 -13.10742188 4.76367188 C-16.80339833 5.6919477 -19.36551019 6.1215946 -23 5 C-19.65133292 3.12147944 -16.35733428 2.23630791 -12.625 1.375 C-11.52414063 1.11460937 -10.42328125 0.85421875 -9.2890625 0.5859375 C-6.11197215 0.01994753 -3.21847142 -0.10695826 0 0 Z " fill="#F7E811" transform="translate(218,221)"/>
<path d="M0 0 C2.97 1.65 5.94 3.3 9 5 C9 5.99 9 6.98 9 8 C4.87248551 7.39301257 1.6678852 5.96189209 -2 4 C-1.34 2.68 -0.68 1.36 0 0 Z " fill="#8898FA" transform="translate(140,234)"/>
<path d="M0 0 C0.33 0 0.66 0 1 0 C1.061875 0.9075 1.12375 1.815 1.1875 2.75 C2.18446044 6.73784176 3.64888166 7.76592111 7 10 C6.67 10.66 6.34 11.32 6 12 C5.29875 11.505 4.5975 11.01 3.875 10.5 C0.57245526 8.77693318 -1.32517725 8.60056274 -5 9 C-5.99 9.66 -6.98 10.32 -8 11 C-7.3125 9.125 -7.3125 9.125 -6 7 C-5.154375 6.690625 -4.30875 6.38125 -3.4375 6.0625 C-2.2309375 5.5365625 -2.2309375 5.5365625 -1 5 C-0.10613836 2.45224694 -0.10613836 2.45224694 0 0 Z " fill="#D2CFF1" transform="translate(78,179)"/>
<path d="M0 0 C4.40114397 0.50298788 6.71195019 2.08772731 10 5 C8.02 5.99 8.02 5.99 6 7 C3.69 5.35 1.38 3.7 -1 2 C-0.67 1.34 -0.34 0.68 0 0 Z " fill="#575FAD" transform="translate(136,241)"/>
<path d="M0 0 C0.33 0 0.66 0 1 0 C1.165 0.86625 1.33 1.7325 1.5 2.625 C3.56772888 7.27738998 6.82675687 9.26312893 11 12 C10.01 12.495 10.01 12.495 9 13 C7.265625 12.0390625 7.265625 12.0390625 5.25 10.625 C1.83162152 8.37311199 -0.84948043 7.31128897 -5 7 C-4.0409375 6.6596875 -4.0409375 6.6596875 -3.0625 6.3125 C-0.72806339 5.14749104 -0.72806339 5.14749104 -0.25 2.375 C-0.1675 1.59125 -0.085 0.8075 0 0 Z " fill="#DBDEFA" transform="translate(69,190)"/>
<path d="M0 0 C0 4.72599091 -3.55072327 7.49704635 -6.6875 10.75 C-7.3371875 11.36875 -7.3371875 11.36875 -8 12 C-8.66 12.66 -9.32 13.32 -10 14 C-10.3125 11.75 -10.3125 11.75 -10 9 C-7.8125 7 -7.8125 7 -5 5 C-3.31471312 3.35216394 -1.64302953 1.68997323 0 0 Z " fill="#ECE0ED" transform="translate(425,216)"/>
<path d="M0 0 C-1 2 -1 2 -4.25 3.125 C-7.37700635 3.85463482 -9.82622905 4.19234975 -13 4 C-13.33 3.34 -13.66 2.68 -14 2 C-12.23225581 1.46877637 -10.46065917 0.95035927 -8.6875 0.4375 C-7.70136719 0.14746094 -6.71523438 -0.14257812 -5.69921875 -0.44140625 C-3 -1 -3 -1 0 0 Z " fill="#E1E4F9" transform="translate(321,407)"/>
<path d="M0 0 C2.5 1.1875 2.5 1.1875 5 3 C5.3125 5.6875 5.3125 5.6875 5 8 C2.525 7.01 2.525 7.01 0 6 C0 4.02 0 2.04 0 0 Z " fill="#FBB202" transform="translate(161,325)"/>
<path d="M0 0 C0.66 1.32 1.32 2.64 2 4 C-0.97 5.32 -3.94 6.64 -7 8 C-6.67 6.68 -6.34 5.36 -6 4 C-2.9375 2.75 -2.9375 2.75 0 2 C0 1.34 0 0.68 0 0 Z " fill="#7782EC" transform="translate(380,289)"/>
<path d="M0 0 C0 3.44360632 -0.79591532 4.74795392 -2.5 7.6875 C-2.9640625 8.49574219 -3.428125 9.30398437 -3.90625 10.13671875 C-4.2671875 10.75160156 -4.628125 11.36648437 -5 12 C-6.65 11.67 -8.3 11.34 -10 11 C-9.11054687 10.64808594 -9.11054687 10.64808594 -8.203125 10.2890625 C-5.48906 8.70104575 -4.41506759 7.02397116 -2.75 4.375 C-2.22921875 3.55773437 -1.7084375 2.74046875 -1.171875 1.8984375 C-0.78515625 1.27195313 -0.3984375 0.64546875 0 0 Z " fill="#FCD7D7" transform="translate(97,167)"/>
<path d="M0 0 C1 2 1 2 1 6 C-0.875 8.25 -0.875 8.25 -3 10 C-3.66 10 -4.32 10 -5 10 C-3.66511872 6.40608886 -2.03977277 3.24509304 0 0 Z " fill="#7D6DB1" transform="translate(37,258)"/>
<path d="M0 0 C0.33 0.99 0.66 1.98 1 3 C-0.9375 6.1875 -0.9375 6.1875 -3 9 C-3.66 8.67 -4.32 8.34 -5 8 C-4.1875 4.5625 -4.1875 4.5625 -3 1 C-2.01 0.67 -1.02 0.34 0 0 Z " fill="#311B79" transform="translate(41,255)"/>
<path d="M0 0 C0 0.66 0 1.32 0 2 C-1.41433206 2.2236337 -2.83167618 2.42826476 -4.25 2.625 C-5.03890625 2.74101562 -5.8278125 2.85703125 -6.640625 2.9765625 C-9.32152459 3.00319395 -10.72694089 2.36592084 -13 1 C-11.58366664 0.83052421 -10.16691467 0.66454493 -8.75 0.5 C-7.56664062 0.36078125 -7.56664062 0.36078125 -6.359375 0.21875 C-4 0 -4 0 0 0 Z " fill="#CED3F8" transform="translate(282,414)"/>
<path d="M0 0 C-2.22825644 2.22825644 -3.65761628 2.69239369 -6.625 3.625 C-7.44226563 3.88539063 -8.25953125 4.14578125 -9.1015625 4.4140625 C-9.72804687 4.60742188 -10.35453125 4.80078125 -11 5 C-11 4.01 -11 3.02 -11 2 C-7.17679443 0.57741188 -4.08718695 -0.24042276 0 0 Z " fill="#FFFF24" transform="translate(223,225)"/>
<path d="M0 0 C0 0.99 0 1.98 0 3 C-3 5.1875 -3 5.1875 -6 7 C-6.66 6.67 -7.32 6.34 -8 6 C-5.51047079 3.33264727 -3.36591866 1.44253657 0 0 Z " fill="#F3F6FF" transform="translate(374,381)"/>
<path d="M0 0 C-2.8125 2.0625 -2.8125 2.0625 -6 4 C-6.99 3.67 -7.98 3.34 -9 3 C-8 1 -8 1 -5.0625 -0.1875 C-2 -1 -2 -1 0 0 Z " fill="#DFE2F7" transform="translate(338,401)"/>
<path d="M0 0 C0.66 0.33 1.32 0.66 2 1 C0.1875 3 0.1875 3 -2 5 C-2.99 5 -3.98 5 -5 5 C-4 2 -4 2 -2.0625 0.75 C-1.381875 0.5025 -0.70125 0.255 0 0 Z " fill="#818FF8" transform="translate(372,294)"/>
<path d="M0 0 C1.32 0 2.64 0 4 0 C3.67 1.65 3.34 3.3 3 5 C2.01 4.67 1.02 4.34 0 4 C0 2.68 0 1.36 0 0 Z " fill="#240E73" transform="translate(51,247)"/>
<path d="M0 0 C1.43836751 0.11458693 2.87570966 0.24209116 4.3125 0.375 C5.51326172 0.47941406 5.51326172 0.47941406 6.73828125 0.5859375 C9 1 9 1 12 3 C8.69564916 4.12377697 6.9493138 3.89554742 3.75 2.5625 C3.04359375 2.27503906 2.3371875 1.98757812 1.609375 1.69140625 C1.07828125 1.46324219 0.5471875 1.23507813 0 1 C0 0.67 0 0.34 0 0 Z " fill="#5B4251" transform="translate(287,234)"/>
</svg>
