<?xml version="1.0" encoding="UTF-8"?>
<svg version="1.1" xmlns="http://www.w3.org/2000/svg" width="500" height="500">
<path d="M0 0 C165 0 330 0 500 0 C500 165 500 330 500 500 C335 500 170 500 0 500 C0 335 0 170 0 0 Z " fill="#FEFEFE" transform="translate(0,0)"/>
<path d="M0 0 C1.11133301 0.05075684 2.22266602 0.10151367 3.36767578 0.15380859 C29.66197907 1.37557824 53.73572379 4.94097992 78.1171875 15.1328125 C82.41123383 16.87016224 86.29213887 17.72833861 90.875 18.375 C102.93163105 20.38894877 112.24258505 25.39413852 120 35 C121.13565718 36.75080481 122.23957189 38.52256704 123.3125 40.3125 C125.97283421 44.73615042 129.03939326 48.25860506 132.75 51.8125 C143.1439061 61.81089731 151.83905144 73.48160103 159 86 C159 86.66 159 87.32 159 88 C160.134375 87.67 161.26875 87.34 162.4375 87 C170.31869339 85.07132767 177.629237 85.40065853 185 89 C189.15960415 92.43619473 192.56694633 96.27683368 193.43359375 101.7265625 C193.45002227 113.91652449 189.22544592 123.27467882 182 133 C181.030625 133.845625 180.06125 134.69125 179.0625 135.5625 C176.58476421 138.4907332 176.7720471 139.42758951 176.87109375 143.15234375 C176.89901001 144.51153931 176.89901001 144.51153931 176.92749023 145.89819336 C176.95141846 146.59178955 176.97534668 147.28538574 177 148 C177.56920166 147.69707031 178.13840332 147.39414063 178.72485352 147.08203125 C181.32981654 145.70640337 183.94579639 144.35315211 186.5625 143 C187.90538086 142.28457031 187.90538086 142.28457031 189.27539062 141.5546875 C195.52491003 138.34980575 200.08904727 136.80276957 207.0625 138.9375 C214.52348941 144.17606703 218.37957479 154.18347582 222.375 162.125 C223.19291016 163.69314453 223.19291016 163.69314453 224.02734375 165.29296875 C227.48773877 172.1530501 229.28291153 176.50980964 227.125 184.0625 C221.5791124 191.72887403 209.82258708 195.91774968 201.49536133 200.28857422 C200.11759727 201.01594995 198.74389196 201.75106343 197.37426758 202.49365234 C183.19083332 210.17852559 183.19083332 210.17852559 176.92602539 209.60009766 C173.32312693 208.4775315 170.85704211 206.4315252 168 204 C167.56429688 205.02738281 167.12859375 206.05476562 166.6796875 207.11328125 C161.00155307 220.38314889 154.39371603 232.26745025 146 244 C147.58090659 248.09686159 150.5433991 250.59457457 153.75 253.4375 C154.26304687 253.90220703 154.77609375 254.36691406 155.3046875 254.84570312 C158.79515272 257.98975282 162.37626915 261.01096452 166 264 C165.16194558 272.3805442 156.24744672 278.20843832 150.0859375 283.25390625 C124.14997277 303.91103152 93.40452277 317.66118098 61.125 324.875 C60.27164062 325.06626465 59.41828125 325.2575293 58.5390625 325.45458984 C42.68706404 328.74017913 26.76172633 329.40654306 10.625 329.375 C9.18948792 329.37518127 9.18948792 329.37518127 7.72497559 329.37536621 C-8.50238137 329.34632487 -24.06272176 328.24845408 -40 325 C-41.17054932 324.76772705 -41.17054932 324.76772705 -42.36474609 324.53076172 C-46.98126516 323.58267968 -51.48973848 322.36604656 -56 321 C-56.75667969 320.78037598 -57.51335937 320.56075195 -58.29296875 320.33447266 C-78.72971548 314.33584887 -98.64060941 305.42543081 -116 293 C-117.04027344 292.26136719 -118.08054687 291.52273438 -119.15234375 290.76171875 C-129.64365628 283.10160532 -138.99338502 274.34137412 -148 265 C-148.57363281 264.40960938 -149.14726562 263.81921875 -149.73828125 263.2109375 C-151.70010593 261.05569349 -152.91708606 259.49270015 -153.40625 256.5859375 C-152.83615091 252.95703749 -151.28371921 252.0954436 -148.375 249.9375 C-147.4675 249.25558594 -146.56 248.57367188 -145.625 247.87109375 C-142.78471745 245.84654711 -139.94899907 243.86252573 -137 242 C-138.41440583 239.09448878 -139.9580673 236.30532509 -141.6015625 233.5234375 C-142.09140625 232.688125 -142.58125 231.8528125 -143.0859375 230.9921875 C-144.1174013 229.23817546 -145.15128236 227.48558281 -146.1875 225.734375 C-146.91839844 224.48527344 -146.91839844 224.48527344 -147.6640625 223.2109375 C-148.33622803 222.07084229 -148.33622803 222.07084229 -149.02197266 220.90771484 C-150 219 -150 219 -150 217 C-150.7885437 216.75999268 -150.7885437 216.75999268 -151.59301758 216.51513672 C-157.87052173 214.52325611 -163.75414922 211.97231316 -169.6875 209.125 C-170.67484131 208.65175293 -171.66218262 208.17850586 -172.67944336 207.69091797 C-179.98167769 204.12464316 -187.06194293 200.25021208 -194.0625 196.125 C-194.97153076 195.5902002 -195.88056152 195.05540039 -196.81713867 194.50439453 C-201.56313799 191.65080714 -205.86195303 188.68279385 -210 185 C-209.40653791 180.90068972 -208.05957923 177.97019256 -205.98046875 174.40234375 C-205.37009766 173.35369141 -204.75972656 172.30503906 -204.13085938 171.22460938 C-203.48955078 170.13986328 -202.84824219 169.05511719 -202.1875 167.9375 C-201.55779297 166.84888672 -200.92808594 165.76027344 -200.27929688 164.63867188 C-194.67186828 155.07721179 -194.67186828 155.07721179 -191 152 C-184.6547318 151.86666309 -179.86790259 154.95450026 -174.5625 158.0625 C-173.73556641 158.53494141 -172.90863281 159.00738281 -172.05664062 159.49414062 C-170.03178315 160.65287409 -168.01342134 161.82154414 -166 163 C-165.94465088 162.3201001 -165.88930176 161.6402002 -165.83227539 160.93969727 C-165.57703396 157.81385291 -165.31977991 154.6881772 -165.0625 151.5625 C-164.97548828 150.49322266 -164.88847656 149.42394531 -164.79882812 148.32226562 C-164.29342017 142.20121377 -163.71204937 136.10053111 -163 130 C-163.59780273 129.71930664 -164.19560547 129.43861328 -164.81152344 129.14941406 C-168.00751791 127.47083954 -170.5742289 125.13770962 -173.25 122.75 C-173.80429688 122.28464844 -174.35859375 121.81929688 -174.9296875 121.33984375 C-177.6890525 118.87272677 -178.92884364 117.47514085 -179.484375 113.765625 C-179 111 -179 111 -177 109 C-171.27551379 109.22448966 -167.71519547 111.01691715 -163 114 C-163.58910156 113.57589844 -164.17820313 113.15179688 -164.78515625 112.71484375 C-167.08365651 110.92098849 -169.10606227 109.22033063 -171 107 C-171.125 103.125 -171.125 103.125 -170 100 C-167.13391871 98.56695936 -165.18699217 98.69355845 -162 99 C-158.625 101 -158.625 101 -156 103 C-156.804375 102.195625 -157.60875 101.39125 -158.4375 100.5625 C-162 97 -162 97 -162.1875 94.0625 C-162 91 -162 91 -160 89 C-156.14442399 88.7429616 -152.75887668 89.20227575 -149 90 C-148.52691406 89.12859375 -148.05382812 88.2571875 -147.56640625 87.359375 C-140.91248754 75.29328401 -132.98397231 64.79278643 -123.5703125 54.75 C-121.42003983 52.44940431 -119.31807963 50.12411832 -117.25 47.75 C-116.70472656 47.12480469 -116.15945312 46.49960938 -115.59765625 45.85546875 C-114.51263474 44.5953582 -113.43739942 43.32676813 -112.37109375 42.05078125 C-108.38053159 37.33802918 -104.04368111 33.29167833 -99.40234375 29.22265625 C-97.24688903 27.22842253 -95.41528914 25.20794425 -93.5625 22.9375 C-85.45988202 13.45611486 -74.19244783 7.4529751 -62 5 C-60.10023843 4.97561505 -58.19940111 5.00790186 -56.30078125 5.078125 C-40.88243813 5.68292511 -40.88243813 5.68292511 -25.9375 2.5 C-17.15387186 -0.5630468 -9.19303673 -0.51470807 0 0 Z " fill="#0A0451" transform="translate(240,87)"/>
<path d="M0 0 C6.33426959 4.88721662 9.74385529 12.07627289 11.875 19.6484375 C12.68436553 28.42532347 11.72575975 36.33372156 8.875 44.6484375 C9.70644531 42.95074219 9.70644531 42.95074219 10.5546875 41.21875 C11.2862463 39.73687447 12.01802878 38.25510935 12.75 36.7734375 C13.11480469 36.02707031 13.47960937 35.28070313 13.85546875 34.51171875 C14.20996094 33.79628906 14.56445312 33.08085937 14.9296875 32.34375 C15.41671143 31.3539917 15.41671143 31.3539917 15.91357422 30.34423828 C16.875 28.6484375 16.875 28.6484375 18.875 26.6484375 C19.55410456 36.83500583 16.03731089 45.49135354 11.875 54.6484375 C21.03691525 42.80976316 24.2745383 34.62647509 22.875 19.6484375 C22.08373347 16.80415511 21.13916282 14.31188242 19.84765625 11.6640625 C18.88414413 9.66738679 18.33756102 7.81030163 17.875 5.6484375 C28.59490529 5.13525054 39.58641159 5.61987651 48.1875 12.76953125 C55.82486274 21.27316893 56.19698369 30.81244808 55.875 41.6484375 C55.62839211 44.99465149 55.29577275 48.31982449 54.875 51.6484375 C58.00331428 45.2428416 59.40145284 38.59814575 60.875 31.6484375 C61.205 31.6484375 61.535 31.6484375 61.875 31.6484375 C62.82939495 43.27084715 60.00092272 53.54974911 56.875 64.6484375 C65.73864595 54.3407144 69.13568239 45.24298914 68.12011719 31.65576172 C67.39338802 25.70439992 65.51346115 19.78976301 62.7421875 14.4765625 C61.875 12.6484375 61.875 12.6484375 61.875 9.6484375 C71.10194643 6.57278869 81.28559231 8.58294538 89.875 12.6484375 C99.86558539 18.60801138 107.20830027 27.94742472 111.02734375 38.88671875 C113.7875372 51.13587217 113.12925431 64.01752985 106.51953125 74.875 C102.32287148 80.88308664 97.04384958 86.47605884 89.875 88.6484375 C90.13541667 86.63020833 90.39583333 84.61197917 90.65625 82.59375 C90.9122485 80.64345406 90.9122485 80.64345406 90.875 78.6484375 C90.15054688 79.46828125 89.42609375 80.288125 88.6796875 81.1328125 C87.70347343 82.22166665 86.72689121 83.31019082 85.75 84.3984375 C85.275625 84.93726563 84.80125 85.47609375 84.3125 86.03125 C81.11780019 89.57132276 77.94602985 92.1599148 73.875 94.6484375 C73.215 94.3184375 72.555 93.9884375 71.875 93.6484375 C72.535 92.8646875 73.195 92.0809375 73.875 91.2734375 C76.07701441 88.93330938 76.07701441 88.93330938 75.875 86.6484375 C74.26431641 87.38900391 74.26431641 87.38900391 72.62109375 88.14453125 C71.18510625 88.79213345 69.74889639 89.43924274 68.3125 90.0859375 C67.60802734 90.41142578 66.90355469 90.73691406 66.17773438 91.07226562 C53.17720158 96.8835637 39.9617519 95.22930001 26.87109375 90.58203125 C2.28483163 80.86933579 -17.33932254 62.21979243 -29.125 38.6484375 C-28.63 45.5784375 -28.63 45.5784375 -28.125 52.6484375 C-37.39739162 52.38351203 -43.84308782 50.07061922 -50.390625 43.30859375 C-54.46200528 38.41539782 -57.54375507 33.45623858 -60.125 27.6484375 C-59.64316947 38.97145486 -56.54343336 47.81252966 -48.125 55.6484375 C-45.40466727 57.60503801 -45.40466727 57.60503801 -43.125 58.6484375 C-44.81727247 63.7252549 -49.53199512 65.31103044 -54.125 67.6484375 C-64.75926684 72.45262393 -75.06004959 74.96289061 -86.4375 71.2109375 C-95.86982981 66.83164151 -100.6723406 58.05804573 -104.125 48.6484375 C-104.48397826 47.32177873 -104.82785125 45.99029871 -105.125 44.6484375 C-105.68541371 54.36227506 -103.73461223 63.74517352 -97.9140625 71.6875 C-92.34516984 77.79139545 -84.48507866 81.17583254 -77.125 84.6484375 C-77.125 84.9784375 -77.125 85.3084375 -77.125 85.6484375 C-91.71113142 86.13918585 -103.22737473 83.06983288 -114.14453125 72.90625 C-121.64117957 64.35977519 -122.81445366 54.590036 -122.33056641 43.69140625 C-121.86281611 39.04279048 -120.11182207 34.83495543 -118.125 30.6484375 C-117.795 30.6484375 -117.465 30.6484375 -117.125 30.6484375 C-116.795 32.9584375 -116.465 35.2684375 -116.125 37.6484375 C-113.82069865 34.7512165 -112.14915753 31.83139675 -110.5 28.5234375 C-103.64069724 15.85231172 -92.72700367 6.45085974 -79.125 1.6484375 C-70.54116557 -0.66159698 -61.97214136 -0.72024813 -53.13867188 -0.83007812 C-46.98615856 -0.98342344 -42.59976968 -1.52818652 -37.125 -4.3515625 C-24.28259703 -8.69429189 -11.38454073 -7.24090274 0 0 Z " fill="#FCFCFD" transform="translate(251.125,101.3515625)"/>
<path d="M0 0 C3.05102544 1.11424597 4.3402732 2.48925266 6.4921875 4.91015625 C14.70611142 13.49247875 24.9224241 19.61786237 35.4921875 24.91015625 C36.46285156 25.40128906 37.43351562 25.89242188 38.43359375 26.3984375 C47.52213976 30.80052424 56.80697498 34.11486874 66.4921875 36.91015625 C67.30381348 37.15717285 68.11543945 37.40418945 68.95166016 37.65869141 C84.71843189 42.27090596 100.44642301 42.36356642 116.7421875 42.34765625 C118.3528862 42.34798859 118.3528862 42.34798859 119.99612427 42.34832764 C131.33608228 42.32343439 142.34377157 42.14964743 153.4921875 39.91015625 C154.76191406 39.71035156 156.03164063 39.51054687 157.33984375 39.3046875 C181.75283591 34.88483837 205.45585561 24.19786193 223.984375 7.6328125 C226.9128168 5.6212193 228.01786482 5.49789841 231.4921875 5.91015625 C233.46166992 7.23608398 233.46166992 7.23608398 235.34765625 9.09375 C236.04810059 9.77018555 236.74854492 10.44662109 237.47021484 11.14355469 C238.19934082 11.8709082 238.9284668 12.59826172 239.6796875 13.34765625 C241.19576028 14.82119197 242.71268361 16.29385312 244.23046875 17.765625 C245.32609131 18.83756104 245.32609131 18.83756104 246.44384766 19.93115234 C249.73229462 23.10828596 253.16177302 26.11014364 256.609375 29.11328125 C258.4961587 30.91394619 259.99380278 32.78037671 261.4921875 34.91015625 C242.12442648 56.16745493 215.03287113 69.28470069 188.1796875 78.28515625 C186.94081787 78.7020874 185.70194824 79.11901855 184.42553711 79.54858398 C149.92880206 90.79976328 111.15055623 92.22536387 75.4921875 85.91015625 C74.14974191 85.69139199 72.80729416 85.47264094 71.46484375 85.25390625 C54.05924551 82.13315865 37.52642219 76.2545085 21.4921875 68.91015625 C20.78578125 68.58789062 20.079375 68.265625 19.3515625 67.93359375 C-2.6184129 57.77454498 -19.71090246 43.11898825 -36.5078125 25.91015625 C-32.22598622 21.30697586 -27.40106834 17.71738862 -22.3203125 14.03515625 C-21.47259277 13.41890381 -20.62487305 12.80265137 -19.75146484 12.16772461 C-18.08342923 10.95663024 -16.41419913 9.74717895 -14.74365234 8.53955078 C-12.88253701 7.18324114 -11.04297746 5.80638466 -9.21484375 4.40625 C-8.36277344 3.76816406 -7.51070312 3.13007813 -6.6328125 2.47265625 C-5.93414062 1.93769531 -5.23546875 1.40273438 -4.515625 0.8515625 C-2.5078125 -0.08984375 -2.5078125 -0.08984375 0 0 Z " fill="#080251" transform="translate(133.5078125,319.08984375)"/>
<path d="M0 0 C44.22 0 88.44 0 134 0 C136.71916088 5.43832177 135.61389958 13.68648324 134.10546875 19.37109375 C133.15226018 21.9612612 132.14727208 24.49034233 131 27 C133.31 25.68 135.62 24.36 138 23 C134.1641352 37.57628623 122.53882561 49.34620209 110 57 C93.01307272 66.90670883 65.96320318 60.61769523 48.04736328 56.28613281 C39.01865817 53.8982471 30.46973683 50.93929622 22 47 C21.67 48.65 21.34 50.3 21 52 C16.91383615 50.09113514 12.88325192 48.10631328 8.89501953 46 C7.14581015 45.07694388 5.38395219 44.17796412 3.62109375 43.28125 C-0.66427725 40.73349358 -3.4997381 38.88136771 -4.81640625 33.9296875 C-5.19973852 22.67703066 -1.95209496 10.73652227 0 0 Z " fill="#FEB906" transform="translate(155,287)"/>
<path d="M0 0 C14.03309115 12.21646095 14.03309115 12.21646095 16.76953125 20.42578125 C12.97000216 20.98231264 9.55222589 21.17202713 5.76953125 20.42578125 C3.60308359 18.46396725 2.23739886 16.37712364 0.62890625 13.94140625 C-6.66729628 4.07007341 -20.61721182 -1.59832166 -32.23046875 -4.57421875 C-33.22046875 -4.57421875 -34.21046875 -4.57421875 -35.23046875 -4.57421875 C-34.2146875 -4.12433594 -33.19890625 -3.67445313 -32.15234375 -3.2109375 C-20.3126953 2.24274747 -11.15515109 8.85336626 -3.23046875 19.42578125 C-3.23046875 19.75578125 -3.23046875 20.08578125 -3.23046875 20.42578125 C-61.97046875 20.42578125 -120.71046875 20.42578125 -181.23046875 20.42578125 C-175.4993697 6.09803361 -163.40272488 -1.67062059 -150.23046875 -8.57421875 C-149.22371094 -9.12207031 -148.21695313 -9.66992188 -147.1796875 -10.234375 C-106.55096841 -30.83856328 -36.28709861 -29.97057737 0 0 Z " fill="#FEB906" transform="translate(328.23046875,240.57421875)"/>
<path d="M0 0 C19.61279433 -0.0235162 39.22558573 -0.04107005 58.8383913 -0.05181217 C67.94801115 -0.05693581 77.05762216 -0.06390208 86.16723633 -0.07543945 C94.1210028 -0.08550801 102.07476287 -0.0918819 110.02853554 -0.09408849 C114.2274039 -0.09537527 118.42625395 -0.09832843 122.62511635 -0.10573006 C142.11092759 -0.13878546 161.53147011 0.07628594 181 1 C182.63094504 7.43588416 183.77609927 13.72485709 184.625 20.3125 C184.82609375 21.7655957 184.82609375 21.7655957 185.03125 23.24804688 C185.67419728 28.16528144 186.14687147 33.06605122 186.3203125 38.0234375 C186.35141113 38.9004834 186.38250977 39.7775293 186.41455078 40.68115234 C186 43 186 43 184.43310547 44.79931641 C182.03742355 46.45984387 179.62622416 47.73566065 177 49 C176.11828125 49.46535156 175.2365625 49.93070312 174.328125 50.41015625 C166.9916486 54.21012676 159.59878552 57.12711074 151.75 59.6875 C150.56776855 60.07615234 149.38553711 60.46480469 148.16748047 60.86523438 C130.51702283 66.54006315 113.24058262 68.1874376 94.74414062 68.18530273 C92.63390951 68.18749076 90.5242021 68.20574259 88.4140625 68.22460938 C70.77143775 68.29721435 53.32928524 65.58632699 36.5625 60.0625 C35.82926514 59.82176758 35.09603027 59.58103516 34.34057617 59.33300781 C29.32126442 57.61561976 24.70278299 55.45477849 20 53 C20 51.02 20 49.04 20 47 C20.84256348 47.33209473 20.84256348 47.33209473 21.70214844 47.67089844 C34.26423439 52.5683283 46.50780791 56.4654131 59.82519531 58.64160156 C61.7504039 58.95886764 63.66889431 59.31632637 65.5859375 59.6796875 C82.70505996 62.64808641 99.87821839 63.36801799 114.625 53.375 C124.87703419 45.4304037 130.78502445 36.63727664 136 25 C133.69 26.32 131.38 27.64 129 29 C130.33333333 25 131.66666667 21 133 17 C133 11.72 133 6.44 133 1 C89.11 1 45.22 1 0 1 C0 0.67 0 0.34 0 0 Z " fill="#C08C19" transform="translate(156,286)"/>
<path d="M0 0 C0 3 0 3 -1 6 C-1.986435 21.00674884 0.15523103 32.11038609 10 44 C18.03209683 52.9010044 32.29342813 60.93226312 44 63 C47.74789578 63.00918602 51.31458775 62.66743686 55 62 C56.19190363 70.34332544 56.09283549 78.59323022 56 87 C54.87722656 87.56847656 53.75445312 88.13695312 52.59765625 88.72265625 C44.5160008 92.87215929 36.84802857 96.93237355 30 103 C16.6782423 96.97686487 4.25996842 88.46637741 -5 77 C-6.10860738 73.60896565 -6.14125252 72.42375755 -5 69 C-4.49070845 64.92581028 -4.49070845 64.92581028 -5 61 C-8.33594926 58.04615835 -11.81866699 55.8616754 -15.73828125 53.765625 C-17.33833008 52.90517578 -17.33833008 52.90517578 -18.97070312 52.02734375 C-20.07349609 51.44082031 -21.17628906 50.85429687 -22.3125 50.25 C-23.43462891 49.64800781 -24.55675781 49.04601562 -25.71289062 48.42578125 C-28.47286416 46.94596565 -31.23525926 45.47088403 -34 44 C-33.61545654 43.42862305 -33.23091309 42.85724609 -32.8347168 42.26855469 C-30.45169955 38.71344654 -28.07202046 35.16307953 -25.83203125 31.515625 C-18.57309164 19.7777652 -10.03034905 9.51302446 0 0 Z " fill="#FC2401" transform="translate(123,135)"/>
<path d="M0 0 C4.26242268 0.52801588 7.28659691 1.45119333 10.95703125 3.66796875 C11.89200439 4.22444092 12.82697754 4.78091309 13.7902832 5.35424805 C14.78761475 5.95922119 15.78494629 6.56419434 16.8125 7.1875 C18.96756353 8.47074463 21.12385299 9.75193231 23.28125 11.03125 C24.38984375 11.68996094 25.4984375 12.34867188 26.640625 13.02734375 C31.98428555 16.16519093 37.39590573 19.17786185 42.8125 22.1875 C53.27478654 28.0130542 63.6596571 33.96094395 74 40 C72.33913088 45.56664924 69.88928264 50.65786353 67.375 55.875 C66.95476562 56.75414062 66.53453125 57.63328125 66.1015625 58.5390625 C65.0708308 60.69422878 64.03690574 62.84779922 63 65 C55.05557318 63.54861433 47.93834385 60.7927126 40.5 57.6875 C39.87149139 57.42633392 39.24298279 57.16516785 38.59542847 56.89608765 C-10.42499212 36.44559952 -10.42499212 36.44559952 -14.84155273 27.24731445 C-15.0815371 23.84353008 -13.5901006 22.01371667 -11.81640625 19.140625 C-10.79643555 17.46806641 -10.79643555 17.46806641 -9.75585938 15.76171875 C-9.02500704 14.59097883 -8.29388374 13.42040802 -7.5625 12.25 C-6.8341455 11.06450232 -6.10691794 9.87831146 -5.38085938 8.69140625 C-3.59822684 5.78724993 -1.80432303 2.89071209 0 0 Z " fill="#CECEDD" transform="translate(50,243)"/>
<path d="M0 0 C1.80071831 1.38516793 3.25522574 2.774058 4.765625 4.46875 C24.29848389 24.28705777 53.09291099 33.83426715 79.828125 38.40625 C79.828125 43.02625 79.828125 47.64625 79.828125 52.40625 C78.26707031 51.95636719 76.70601563 51.50648438 75.09765625 51.04296875 C70.98807648 49.91798528 66.91507166 49.01369787 62.71484375 48.30078125 C61.69455078 48.12095703 60.67425781 47.94113281 59.62304688 47.75585938 C57.53562712 47.39505458 55.4441928 47.05681238 53.34960938 46.74023438 C47.92607128 45.74379286 44.63680836 44.93011147 41.28125 40.37890625 C40.86391602 39.68933838 40.44658203 38.99977051 40.01660156 38.28930664 C37.5038666 34.30805669 33.72267712 32.7375656 29.453125 31.15625 C19.13319999 29.0210931 10.51699323 30.87444349 1.7734375 36.578125 C-0.39540108 38.36725072 -0.39540108 38.36725072 -1.42797852 41.40844727 C-3.171875 44.40625 -3.171875 44.40625 -5.83227539 45.59057617 C-6.88406982 45.79142822 -7.93586426 45.99228027 -9.01953125 46.19921875 C-10.76459961 46.5559668 -10.76459961 46.5559668 -12.54492188 46.91992188 C-13.76244141 47.14228516 -14.97996094 47.36464844 -16.234375 47.59375 C-18.62177418 48.06295731 -21.00850809 48.5355635 -23.39453125 49.01171875 C-24.53937988 49.23649902 -25.68422852 49.4612793 -26.86376953 49.69287109 C-31.38714689 50.66831823 -35.77777358 51.96345789 -40.171875 53.40625 C-40.60223141 49.08322834 -41.02937945 44.75990506 -41.45361328 40.4362793 C-41.59824848 38.96679211 -41.74374576 37.49738949 -41.89013672 36.02807617 C-42.10092592 33.91086355 -42.30856892 31.79336182 -42.515625 29.67578125 C-42.64130859 28.40323486 -42.76699219 27.13068848 -42.89648438 25.81958008 C-43.12517387 22.9850873 -43.31129518 20.24562083 -43.171875 17.40625 C-41.69219899 15.92657399 -40.23835626 16.08144829 -38.171875 15.78125 C-26.00974031 13.41494053 -14.8922947 7.75148526 -4.80859375 0.71484375 C-2.171875 -0.59375 -2.171875 -0.59375 0 0 Z " fill="#8887AD" transform="translate(225.171875,165.59375)"/>
<path d="M0 0 C13.55508333 10.84406667 24.35803908 25.02060107 33 40 C33 40.66 33 41.32 33 42 C31.9378125 42.50789063 30.875625 43.01578125 29.78125 43.5390625 C17.27406787 49.59226062 8.83611105 54.37796307 2 67 C0.94270318 70.17189047 1.07324249 72.65077049 1.16870117 75.953125 C1.24868751 85.72600126 1.24868751 85.72600126 -2.3125 89.359375 C-5.3125 91 -5.3125 91 -8.58203125 92.44921875 C-12.35117936 94.15933509 -15.27583197 96.26018065 -18.5 98.8125 C-21.57897782 101.21691682 -24.42339051 103.40570945 -28 105 C-28.41507812 104.5875 -28.83015625 104.175 -29.2578125 103.75 C-36.53506861 96.92947544 -45.13050985 92.43474508 -54 88 C-54 83.38 -54 78.76 -54 74 C-52.94683594 73.78085938 -51.89367187 73.56171875 -50.80859375 73.3359375 C-33.48714115 69.58895505 -14.69976822 64.21419097 -4 49 C-2.38727757 46.41651261 -1.13754184 43.82278901 0 41 C0.2990625 40.3090625 0.598125 39.618125 0.90625 38.90625 C5.45505434 26.60763085 3.64481978 12.2795714 0 0 Z " fill="#FC2401" transform="translate(366,133)"/>
<path d="M0 0 C2.84088438 2.25813887 3.79602523 3.94722697 4.484375 7.5 C5.19214147 17.735392 0.67640311 26.17584177 -5.40234375 34.15234375 C-11.63388443 40.98361166 -20.13048284 47.60611601 -29.55078125 48.23828125 C-39.7289387 48.50809986 -39.7289387 48.50809986 -44.05859375 46.77734375 C-47.07046924 45.67554998 -47.07046924 45.67554998 -50.15625 47.203125 C-51.2596875 47.87859375 -52.363125 48.5540625 -53.5 49.25 C-54.09441895 49.60900391 -54.68883789 49.96800781 -55.30126953 50.33789062 C-62.1116754 54.5294589 -68.5805662 59.23908253 -75 64 C-76.9375 63.1875 -76.9375 63.1875 -79 62 C-79.33 61.01 -79.66 60.02 -80 59 C-60.78037223 44.71784476 -60.78037223 44.71784476 -51 40 C-51.165 39.01 -51.33 38.02 -51.5 37 C-52.74748282 27.70904584 -51.8342748 20.73615647 -46.52734375 12.796875 C-36.44121333 0.30247231 -14.91798407 -8.82901098 0 0 Z " fill="#B2B2CA" transform="translate(423,182)"/>
<path d="M0 0 C5.15371534 4.34931959 7.68967948 10.43063122 10.75 16.3125 C11.35199219 17.42818359 11.95398438 18.54386719 12.57421875 19.69335938 C13.14269531 20.78068359 13.71117187 21.86800781 14.296875 22.98828125 C14.81604492 23.97352783 15.33521484 24.95877441 15.87011719 25.97387695 C17.2363388 29.6329774 17.55264616 32.1267127 17 36 C13.49275925 39.79221207 8.62144611 41.9709586 4.06640625 44.328125 C3.31084946 44.72199402 2.55529266 45.11586304 1.77684021 45.52166748 C0.18570343 46.34816537 -1.4070173 47.17162029 -3.0012207 47.9921875 C-5.43285582 49.24760228 -7.85405291 50.52173701 -10.27539062 51.796875 C-11.82752149 52.60012557 -13.38023701 53.40224764 -14.93359375 54.203125 C-15.65252304 54.58430481 -16.37145233 54.96548462 -17.11216736 55.35821533 C-21.25685544 57.46324648 -24.23269971 58.45327359 -29 58 C-33.34891983 50.59758327 -37.56314714 43.13077833 -41.5 35.5 C-41.84998047 34.84257812 -42.19996094 34.18515625 -42.56054688 33.5078125 C-44.57640602 29.53287898 -45.92559514 26.43311354 -45 22 C-40.41294809 17.01340588 -34.34951055 14.46134456 -28.3125 11.5625 C-26.33894016 10.60081045 -24.36627219 9.63728833 -22.39453125 8.671875 C-21.45818848 8.21361328 -20.5218457 7.75535156 -19.55712891 7.28320312 C-15.67390645 5.33454767 -11.93150598 3.18267915 -8.21875 0.92578125 C-5.24907495 -0.31332612 -3.18741407 -0.42359055 0 0 Z " fill="#BFBFD3" transform="translate(444,231)"/>
<path d="M0 0 C7.50691686 5.42062731 7.50691686 5.42062731 10.5 8.9375 C12.95815144 11.40233962 12.95815144 11.40233962 16.875 11.0625 C19.91418012 10.48906979 22.1394144 9.44831759 24.75 7.8125 C25.8225 7.214375 26.895 6.61625 28 6 C31.60431239 7.19645225 34.26167223 9.76243668 37.125 12.1875 C45.93379098 19.49121278 55.46695866 25.6937785 65 32 C63.52808047 36.64574602 63.52808047 36.64574602 61.125 38.2578125 C60.42375 38.54398437 59.7225 38.83015625 59 39.125 C55.70976541 40.49189893 55.09552199 40.85671702 53 44 C52.13695529 50.2119148 52.5481694 55.88138304 55.73828125 61.34375 C58.80798842 65.37333464 61.99730875 66.80593073 66.875 67.75 C67.90625 67.8325 68.9375 67.915 70 68 C69.505 69.98 69.505 69.98 69 72 C46.25091279 63.0466839 25.22049527 49.68774207 4.22875977 37.27416992 C2.18352592 36.10492078 0.11845287 35.0293784 -2 34 C-2.24020685 22.47007127 -1.74018655 11.40443688 0 0 Z " fill="#FC2401" transform="translate(77,218)"/>
<path d="M0 0 C9.8644018 3.47849958 16.42224204 11.8800625 21 21 C23.57086632 27.15344022 24.52320432 32.72747401 24.4375 39.375 C24.42614014 40.61890503 24.42614014 40.61890503 24.41455078 41.88793945 C24.1122568 53.1798332 20.23981404 61.80160065 12.234375 69.75390625 C9.04410191 72.6320874 6.17778068 74.73400585 2 76 C2.26041667 73.98177083 2.52083333 71.96354167 2.78125 69.9453125 C3.0372485 67.99501656 3.0372485 67.99501656 3 66 C2.27554688 66.81984375 1.55109375 67.6396875 0.8046875 68.484375 C-0.17152657 69.57322915 -1.14810879 70.66175332 -2.125 71.75 C-2.599375 72.28882813 -3.07375 72.82765625 -3.5625 73.3828125 C-6.75719981 76.92288526 -9.92897015 79.5114773 -14 82 C-14.66 81.67 -15.32 81.34 -16 81 C-15.34 80.21625 -14.68 79.4325 -14 78.625 C-11.79798559 76.28487188 -11.79798559 76.28487188 -12 74 C-13.61068359 74.74056641 -13.61068359 74.74056641 -15.25390625 75.49609375 C-16.68989375 76.14369595 -18.12610361 76.79080524 -19.5625 77.4375 C-20.61920898 77.92573242 -20.61920898 77.92573242 -21.69726562 78.42382812 C-34.69779842 84.2351262 -47.9132481 82.58086251 -61.00390625 77.93359375 C-84.38575164 68.69669785 -102.59755209 51.6610195 -115 30 C-115.33 29.01 -115.66 28.02 -116 27 C-111.68691845 28.5375337 -109.6098837 31.83136106 -107 35.375 C-93.72489289 52.7147833 -77.14717697 67.00624678 -55 71 C-55.99 70.01 -55.99 70.01 -57 69 C-55.8140625 69.05800781 -54.628125 69.11601562 -53.40625 69.17578125 C-33.73995721 69.83983789 -16.78699436 64.42606744 -2 51 C-0.17962044 49.06507971 1.40353175 47.12862434 3 45 C3.66 45.99 4.32 46.98 5 48 C5.99 46.02 6.98 44.04 8 42 C8.66 42 9.32 42 10 42 C10.99 45.96 11.98 49.92 13 54 C16.92184775 40.00684724 16.09242218 26.75949123 9.31640625 13.7734375 C6.53479749 8.85627105 3.60524182 4.35633386 0 0 Z " fill="#9392B4" transform="translate(339,114)"/>
<path d="M0 0 C1.1648291 -0.00555908 2.3296582 -0.01111816 3.52978516 -0.0168457 C12.51036244 0.06102057 12.51036244 0.06102057 16.3125 2.3125 C15.57128906 2.48265625 14.83007812 2.6528125 14.06640625 2.828125 C11.80250907 3.34907074 9.53958245 3.87424243 7.27734375 4.40234375 C4.58745775 5.02681766 1.89269926 5.6184047 -0.80859375 6.19140625 C-18.37701856 9.99420986 -34.61699721 16.628282 -49 27.625 C-49.55051025 28.03838623 -50.10102051 28.45177246 -50.66821289 28.87768555 C-53.39564594 31.0463354 -55.40352737 32.82550411 -57.18115234 35.87402344 C-59.40451862 39.53230064 -61.33512358 42.70273065 -65.6937561 43.83255005 C-71.68088287 44.57419125 -77.67913647 44.22187513 -83.6875 43.9375 C-85.5298273 43.88728711 -87.3722859 43.84166883 -89.21484375 43.80078125 C-93.7089925 43.69109107 -98.19679468 43.51887433 -102.6875 43.3125 C-97.11266751 28.9908715 -84.77135319 21.16976605 -71.6875 14.3125 C-70.68074219 13.76464844 -69.67398438 13.21679688 -68.63671875 12.65234375 C-48.06871245 2.22161682 -22.69976122 0.09249736 0 0 Z " fill="#FEEAB6" transform="translate(249.6875,217.6875)"/>
<path d="M0 0 C8.91 0 17.82 0 27 0 C28.63356192 6.53424768 29.76991381 12.67685664 30.625 19.3125 C30.82609375 20.7655957 30.82609375 20.7655957 31.03125 22.24804688 C31.67419728 27.16528144 32.14687147 32.06605122 32.3203125 37.0234375 C32.35141113 37.9004834 32.38250977 38.7775293 32.41455078 39.68115234 C32 42 32 42 30.43310547 43.79931641 C28.03764074 45.45969332 25.62578521 46.73545489 23 48 C22.12698242 48.46245117 21.25396484 48.92490234 20.35449219 49.40136719 C12.77883078 53.33544109 5.10312066 56.27964069 -3 58.9375 C-4.80017578 59.55334961 -4.80017578 59.55334961 -6.63671875 60.18164062 C-7.78785156 60.56384766 -8.93898438 60.94605469 -10.125 61.33984375 C-11.67574219 61.85599243 -11.67574219 61.85599243 -13.2578125 62.38256836 C-16.00774396 63.00174363 -17.39229074 62.96424417 -20 62 C-19.21496094 61.33355469 -18.42992187 60.66710937 -17.62109375 59.98046875 C-5.05575712 49.07436501 0.27088927 37.74637968 5 22 C1.37 23.98 -2.26 25.96 -6 28 C-4.33333333 23 -2.66666667 18 -1 13 C-0.67 8.71 -0.34 4.42 0 0 Z " fill="#7A582D" transform="translate(310,287)"/>
<path d="M0 0 C1.65670517 2.17314721 3.25140666 4.3667258 4.796875 6.62109375 C8.70758007 12.26033046 12.10886485 16.44077251 18 20 C18 19.34 18 18.68 18 18 C19.051875 18.5259375 19.051875 18.5259375 20.125 19.0625 C23.60393316 20.19693473 25.51224325 20.06149118 29 19 C30.89290509 17.06295292 30.89290509 17.06295292 32 15 C33.30751994 17.61503989 33.01077474 19.88962375 32.96875 22.7578125 C33.01702418 26.22148467 33.5104219 29.57295329 34 33 C26.0060622 32.96598324 20.24452377 31.05071775 14 26 C8.79055982 20.61990575 5.03108176 14.81993396 2 8 C2.48183053 19.32301736 5.58156664 28.16409216 14 36 C16.72033273 37.95660051 16.72033273 37.95660051 19 39 C17.30772753 44.0768174 12.59300488 45.66259294 8 48 C-2.63426684 52.80418643 -12.93504959 55.31445311 -24.3125 51.5625 C-33.74482981 47.18320401 -38.5473406 38.40960823 -42 29 C-42.35897826 27.67334123 -42.70285125 26.34186121 -43 25 C-43.56041371 34.71383756 -41.60961223 44.09673602 -35.7890625 52.0390625 C-30.22016984 58.14295795 -22.36007866 61.52739504 -15 65 C-15 65.33 -15 65.66 -15 66 C-29.71313205 66.49502127 -41.08081529 63.35908756 -52.08203125 53.13671875 C-54.89536674 50.00251403 -56.4048817 46.8837663 -58 43 C-57.2575 42.79375 -56.515 42.5875 -55.75 42.375 C-51.46195852 40.23097926 -49.80809403 37.11541059 -48.12109375 32.69921875 C-46.33401186 27.14804166 -45.46811219 21.8045911 -45 16 C-42.83906103 18.16093897 -42.01910147 19.92508913 -40.75 22.6875 C-36.62088623 31.01774696 -31.73282364 36.39043289 -23 40 C-22.01 40 -21.02 40 -20 40 C-20.99 38.68 -21.98 37.36 -23 36 C-22.43152344 36.13277344 -21.86304688 36.26554687 -21.27734375 36.40234375 C-12.06081816 38.51029702 -3.45449936 39.12795563 6 39 C5.60167969 38.57589844 5.20335937 38.15179688 4.79296875 37.71484375 C4.26316406 37.12832031 3.73335937 36.54179687 3.1875 35.9375 C2.66542969 35.36902344 2.14335937 34.80054688 1.60546875 34.21484375 C-2.58125688 28.43899598 -3.46775263 23.44289778 -3.3125 16.5 C-3.31572266 15.77941406 -3.31894531 15.05882812 -3.32226562 14.31640625 C-3.2118222 3.2118222 -3.2118222 3.2118222 0 0 Z " fill="#9392B4" transform="translate(189,121)"/>
<path d="M0 0 C0.33 0 0.66 0 1 0 C1.47541079 3.77027172 1.66486602 7.24483671 1 11 C-1.19736753 13.57282809 -3.9447148 14.64421719 -7 16 C-8.9459213 17.00468763 -10.88329936 18.02606774 -12.8125 19.0625 C-13.72644531 19.52785156 -14.64039063 19.99320313 -15.58203125 20.47265625 C-18.1713041 22.10820663 -19.50025325 23.33868468 -21 26 C-21.43477653 28.38133596 -21.43477653 28.38133596 -21.3125 30.875 C-21.30669922 32.10863281 -21.30669922 32.10863281 -21.30078125 33.3671875 C-20.94993046 36.43827104 -20.05958354 39.10408642 -19 42 C-21.30777934 43.2800726 -23.62067618 44.54897908 -25.9375 45.8125 C-26.57751953 46.16892578 -27.21753906 46.52535156 -27.87695312 46.89257812 C-31.25753076 48.72582669 -34.50425273 50.2260953 -38.1875 51.34375 C-44.51423851 53.33841022 -50.22624528 56.57909659 -56.0625 59.6875 C-57.21427734 60.29400391 -58.36605469 60.90050781 -59.55273438 61.52539062 C-62.37173453 63.01092183 -65.18731337 64.50255946 -68 66 C-68.33 64.68 -68.66 63.36 -69 62 C-68.32453125 61.69707031 -67.6490625 61.39414062 -66.953125 61.08203125 C-60.61769715 58.10657742 -56.72664237 55.79861322 -53.75 49.25 C-52.7873701 45.07860377 -52.23361806 41.24638154 -53 37 C-55.35976378 33.76375253 -56.71495094 32.23907889 -60.6875 31.5 C-61.450625 31.335 -62.21375 31.17 -63 31 C-64.14453125 28.46875 -64.14453125 28.46875 -65 26 C-61.05144164 22.92652755 -57.05617876 19.9292115 -53 17 C-52.43925781 16.59491211 -51.87851562 16.18982422 -51.30078125 15.77246094 C-40.78041905 8.32360309 -40.78041905 8.32360309 -35.5625 9 C-34.04160309 9.33304312 -32.5207771 9.66641019 -31 10 C-19.78147678 11.21580055 -12.36748933 8.9681003 -3 3 C-1.97190893 2.02890332 -0.95750253 1.04076362 0 0 Z " fill="#FA2301" transform="translate(415,225)"/>
<path d="M0 0 C2.0625 1.6171875 2.0625 1.6171875 4 3.875 C19.25056847 20.03454275 40.88766025 30.04190214 62 36 C62.8669751 36.25112549 63.7339502 36.50225098 64.62719727 36.76098633 C81.61051631 41.56730573 98.69626275 42.30091638 116.25 42.375 C117.08582611 42.38276459 117.92165222 42.39052917 118.7828064 42.39852905 C156.54954261 42.67492862 192.95910175 31.45549326 222 7 C222.33 6.67 222.66 6.34 223 6 C226.69372727 5.57665017 228.51990943 5.701154 231.7109375 7.6875 C233.02964844 8.8321875 233.02964844 8.8321875 234.375 10 C235.32761719 10.82242187 236.28023438 11.64484375 237.26171875 12.4921875 C240.30043591 15.27514958 243.22592016 18.13589027 246.09765625 21.08984375 C251.06620191 26.07879411 256.57291453 30.52265448 262 35 C260.95951679 42.50154829 251.51067012 47.69768643 245.79785156 52.05126953 C198.02273116 87.6506309 136.22033551 99.90964328 77.6875 91.375 C32.9593874 84.18422607 -10.8238326 64.07143668 -40.92578125 29.5234375 C-42 28 -42 28 -42 26 C-40.52563477 24.67822266 -40.52563477 24.67822266 -38.44140625 23.1640625 C-37.67078857 22.59961426 -36.9001709 22.03516602 -36.10620117 21.45361328 C-34.84706909 20.54844971 -34.84706909 20.54844971 -33.5625 19.625 C-32.70954346 19.00737793 -31.85658691 18.38975586 -30.9777832 17.75341797 C-29.20169976 16.46956946 -27.42358634 15.18852501 -25.64355469 13.91015625 C-23.1338807 12.09673833 -20.64682108 10.2562692 -18.1640625 8.40625 C-16.67238153 7.31180929 -15.18021676 6.21802757 -13.6875 5.125 C-13.00179932 4.60760254 -12.31609863 4.09020508 -11.60961914 3.55712891 C-7.70855849 0.7407958 -4.98826777 -1.01313196 0 0 Z M-11.0625 6.125 C-11.65305176 6.56078369 -12.24360352 6.99656738 -12.85205078 7.44555664 C-14.16731897 8.41662207 -15.48000028 9.39119786 -16.79052734 10.36865234 C-19.22315514 12.16476493 -21.68164973 13.92140615 -24.14453125 15.67578125 C-25.88831289 16.92928131 -27.63180504 18.18318419 -29.375 19.4375 C-30.65129272 20.34169678 -30.65129272 20.34169678 -31.95336914 21.26416016 C-32.7396167 21.83569824 -33.52586426 22.40723633 -34.3359375 22.99609375 C-35.04282715 23.50325928 -35.7497168 24.0104248 -36.47802734 24.53295898 C-37.23140381 25.25914429 -37.23140381 25.25914429 -38 26 C-38 29.76831243 -37.17654259 30.21876485 -34.58984375 32.84375 C-33.85491699 33.59019775 -33.11999023 34.33664551 -32.36279297 35.10571289 C-31.56244629 35.89582764 -30.76209961 36.68594238 -29.9375 37.5 C-29.11910645 38.31009521 -28.30071289 39.12019043 -27.45751953 39.95483398 C-16.4255802 50.68598009 -4.45741579 58.83020066 9.11816406 66.00195312 C10.83696279 66.9135319 12.5404866 67.85376366 14.2421875 68.796875 C36.92630369 80.88767531 61.69308413 86.84438886 87 90 C88.0209375 90.14465698 88.0209375 90.14465698 89.0625 90.29223633 C96.71279764 91.29661008 104.4212272 91.28709425 112.125 91.3125 C112.88623169 91.31511841 113.64746338 91.31773682 114.4317627 91.32043457 C125.64360419 91.32452414 136.6314187 90.691145 147.75 89.25 C148.96574707 89.09313721 150.18149414 88.93627441 151.43408203 88.7746582 C188.78745789 83.41901327 234.84986831 66.67719431 259 36 C253.88758443 30.79329808 248.77668476 25.65639177 243.20703125 20.9375 C241.4236094 19.37187657 239.71490925 17.77528311 238.01171875 16.125 C237.48368652 15.62025146 236.9556543 15.11550293 236.41162109 14.59545898 C235.36464932 13.59180467 234.32676278 12.57856529 233.29931641 11.55493164 C231.11033332 9.47412293 229.4466674 8.10595366 226.48046875 7.40234375 C222.95903242 8.25081581 221.16642248 10.06798829 218.5 12.5 C194.08798103 33.8293499 159.25528562 43.90976356 127.28125 44.2734375 C126.27346497 44.28601089 125.26567993 44.29858429 124.22735596 44.3115387 C82.83776604 44.72844347 82.83776604 44.72844347 64 39 C63.08524902 38.73767578 62.17049805 38.47535156 61.22802734 38.20507812 C38.79135354 31.70214643 16.31730651 20.97525959 0.5703125 3.25 C-3.75005744 -0.18910045 -7.51777939 3.45038429 -11.0625 6.125 Z " fill="#E21F09" transform="translate(136,317)"/>
<path d="M0 0 C70.95 0 141.9 0 215 0 C213 4 213 4 211.38700008 5.23244476 C207.88609474 6.3581834 204.44746214 6.28898335 200.80799866 6.28088379 C199.97506411 6.28682603 199.14212955 6.29276828 198.28395456 6.29889059 C195.48882301 6.3162544 192.69386287 6.31928011 189.89868164 6.32226562 C187.89637384 6.33152252 185.89406957 6.34157191 183.89176941 6.35235596 C178.4496967 6.37859827 173.00767332 6.39149208 167.56554723 6.40037727 C164.1670428 6.40623812 160.76855188 6.4144475 157.37005424 6.42338562 C146.74099479 6.45073062 136.11196617 6.47006777 125.48287398 6.4777894 C113.20483057 6.48675766 100.92723172 6.5218877 88.64932352 6.57979059 C79.16303434 6.62297895 69.67687047 6.64319543 60.19048399 6.64587164 C54.52226804 6.64797049 48.85447013 6.6598439 43.1863575 6.69551086 C37.85676848 6.72839609 32.52791348 6.73282155 27.19825935 6.71523285 C25.24107908 6.71368809 23.28385996 6.72243069 21.32677841 6.74214935 C18.65663325 6.76747752 15.98911011 6.75590391 13.31898499 6.73498535 C12.15429384 6.75915457 12.15429384 6.75915457 10.96607357 6.78381205 C8.7900095 6.7438736 8.7900095 6.7438736 5 6 C3.35 4.02 1.7 2.04 0 0 Z " fill="#C69017" transform="translate(138,271)"/>
<path d="M0 0 C6.96952288 0.77805147 12.38415289 4.17564586 18.3605957 7.58178711 C20.31300887 8.68778826 22.28128669 9.76092693 24.25195312 10.83398438 C25.49849432 11.5371186 26.7439768 12.2421338 27.98828125 12.94921875 C29.68271362 13.89800903 29.68271362 13.89800903 31.41137695 14.8659668 C34 17 34 17 34.9074707 20.10620117 C34.99760743 22.92517379 34.60767165 24.92617151 33.875 27.625 C33.45398474 31.36361551 33.83432087 32.73999011 35.88671875 35.9609375 C42.37530886 43.72623806 50.614297 49.46666021 59 55 C57.25 59.875 57.25 59.875 55 61 C49.33809934 57.32531545 43.7611286 53.60237069 38.37109375 49.5390625 C37.57622559 48.94504639 36.78135742 48.35103027 35.96240234 47.73901367 C34.37647092 46.54851642 32.79970546 45.3456987 31.23291016 44.13012695 C30.49733887 43.5805835 29.76176758 43.03104004 29.00390625 42.46484375 C28.35236572 41.965896 27.7008252 41.46694824 27.02954102 40.95288086 C24.31554587 39.67864496 22.81820364 40.13753376 20 41 C19.38125 41.37125 18.7625 41.7425 18.125 42.125 C14.84037613 43.47749218 12.25699607 43.15429937 9 42 C-0.53094282 36.51889466 -9.34372202 28.83497028 -17 21 C-14 20 -14 20 -11.57983398 21.17163086 C-10.64469971 21.76339111 -9.70956543 22.35515137 -8.74609375 22.96484375 C-7.72708984 23.59970703 -6.70808594 24.23457031 -5.65820312 24.88867188 C-4.59537109 25.56478516 -3.53253906 26.24089844 -2.4375 26.9375 C-0.33440767 28.26289293 1.77094825 29.58470312 3.87890625 30.90234375 C4.8129126 31.49523193 5.74691895 32.08812012 6.70922852 32.69897461 C8.85077452 34.16461726 8.85077452 34.16461726 11 34 C10.76458325 30.66492944 9.75894791 29.76558558 7.3046875 27.37890625 C6.169915 26.42989959 5.02620407 25.49150563 3.875 24.5625 C3.2869458 24.07676514 2.6988916 23.59103027 2.09301758 23.09057617 C-1.82047235 19.88254074 -5.80300812 16.83052941 -10 14 C-9.34 12.68 -8.68 11.36 -8 10 C-4.0266058 10.57447198 -1.35665197 11.78070471 2.01171875 13.94140625 C2.93404297 14.52470703 3.85636719 15.10800781 4.80664062 15.70898438 C6.23266602 16.62647461 6.23266602 16.62647461 7.6875 17.5625 C9.5847306 18.7760668 11.48435212 19.98590655 13.38671875 21.19140625 C14.22420654 21.72967041 15.06169434 22.26793457 15.92456055 22.82250977 C17.89222364 24.16448637 17.89222364 24.16448637 20 24 C20 22.68 20 21.36 20 20 C18.03155756 18.18159128 16.16611123 16.66997535 14 15.125 C13.41001221 14.68881348 12.82002441 14.25262695 12.2121582 13.80322266 C11.03022429 12.93062364 9.84446844 12.06317564 8.65478516 11.20117188 C6.47750658 9.62073361 4.33280165 7.99847152 2.1875 6.375 C1.135625 5.59125 0.08375 4.8075 -1 4 C-0.67 2.68 -0.34 1.36 0 0 Z " fill="#CCCCDC" transform="translate(81,179)"/>
<path d="M0 0 C7.33244682 2.81361332 13.06344792 6.95772085 18.8984375 12.16015625 C15.84152706 15.21706669 11.88438264 16.44197362 7.94140625 18.13671875 C4.78796886 20.23361293 4.38816137 20.94459413 2.8359375 24.1640625 C1.17885321 27.04912019 0.24847986 28.01281565 -2.86010742 29.32128906 C-6.32305345 30.19339648 -9.76930189 30.86997046 -13.2890625 31.47265625 C-15.65819217 31.9237344 -18.02669617 32.37811232 -20.39453125 32.8359375 C-21.52681152 33.04814941 -22.6590918 33.26036133 -23.82568359 33.47900391 C-28.34659306 34.41903501 -32.71949329 35.7137151 -37.1015625 37.16015625 C-38.98934229 20.25221551 -38.98934229 20.25221551 -35.46484375 14.765625 C-31.16181084 9.69815644 -26.54844684 6.09422155 -20.1015625 4.16015625 C-16.39402459 3.93439278 -12.82308032 4.02232226 -9.1015625 4.16015625 C-12.4015625 3.17015625 -15.7015625 2.18015625 -19.1015625 1.16015625 C-12.85514249 -1.96305376 -6.72157442 -1.82007368 0 0 Z " fill="#FBFBFC" transform="translate(222.1015625,181.83984375)"/>
<path d="M0 0 C8.91 0 17.82 0 27 0 C26.360625 4.24875 25.72125 8.4975 25.0625 12.875 C23.61486808 22.74459198 22.50328641 32.49242185 22.17578125 42.4609375 C22.01389205 45.72030679 21.60974185 48.79761596 21 52 C16.91383615 50.09113514 12.88325192 48.10631328 8.89501953 46 C7.14581015 45.07694388 5.38395219 44.17796412 3.62109375 43.28125 C-0.66427725 40.73349358 -3.4997381 38.88136771 -4.81640625 33.9296875 C-5.20138474 22.62870593 -2.18496124 10.99308623 0 0 Z " fill="#FEBC0E" transform="translate(155,287)"/>
<path d="M0 0 C1.66258188 4.8656351 0.0135697 8.21243491 -2.0625 12.625 C-2.38686035 13.33503174 -2.7112207 14.04506348 -3.04541016 14.77661133 C-6.99525943 23.31721788 -11.44192744 31.37636559 -16.6875 39.1875 C-17.06825684 39.7652417 -17.44901367 40.3429834 -17.84130859 40.93823242 C-18.94921875 42.54296875 -18.94921875 42.54296875 -21 45 C-25.24485034 45 -26.94658658 42.50369497 -29.8125 39.6875 C-34.33859931 35.24171171 -38.46586318 31.51539495 -45 30.5625 C-48.82968915 31.12099633 -50.93729546 32.68595657 -54 35 C-54.99 35.66 -55.98 36.32 -57 37 C-57 34.36 -57 31.72 -57 29 C-52.09146836 26.44946608 -47.18012859 23.90445471 -42.26611328 21.36450195 C-40.59508338 20.49980154 -38.9248286 19.63360146 -37.25537109 18.76586914 C-34.85456681 17.5183364 -32.45101981 16.27623659 -30.046875 15.03515625 C-29.30193787 14.64658951 -28.55700073 14.25802277 -27.78948975 13.85768127 C-27.08906555 13.49738327 -26.38864136 13.13708527 -25.66699219 12.76586914 C-25.05410339 12.44832169 -24.4412146 12.13077423 -23.80975342 11.80360413 C-22 11 -22 11 -19.83331299 10.57713318 C-19.2283197 10.38667923 -18.62332642 10.19622528 -18 10 C-17.67 9.01 -17.34 8.02 -17 7 C-14.71769113 5.6370355 -12.51312306 4.45412769 -10.125 3.3125 C-9.16787109 2.83200195 -9.16787109 2.83200195 -8.19140625 2.34179688 C-5.28123856 0.91709056 -3.28002036 0 0 0 Z " fill="#FC2402" transform="translate(407,286)"/>
<path d="M0 0 C2.84088438 2.25813887 3.79602523 3.94722697 4.484375 7.5 C5.19214147 17.735392 0.67640311 26.17584177 -5.40234375 34.15234375 C-11.63388443 40.98361166 -20.13048284 47.60611601 -29.55078125 48.23828125 C-39.7289387 48.50809986 -39.7289387 48.50809986 -44.05859375 46.77734375 C-47.07046924 45.67554998 -47.07046924 45.67554998 -50.15625 47.203125 C-51.2596875 47.87859375 -52.363125 48.5540625 -53.5 49.25 C-54.09441895 49.60900391 -54.68883789 49.96800781 -55.30126953 50.33789062 C-62.1116754 54.5294589 -68.5805662 59.23908253 -75 64 C-76.9375 63.1875 -76.9375 63.1875 -79 62 C-79.33 61.01 -79.66 60.02 -80 59 C-60.78037223 44.71784476 -60.78037223 44.71784476 -51 40 C-51.165 39.01 -51.33 38.02 -51.5 37 C-52.74748282 27.70904584 -51.8342748 20.73615647 -46.52734375 12.796875 C-36.44121333 0.30247231 -14.91798407 -8.82901098 0 0 Z M-43.796875 16.9765625 C-47.20300359 21.77958652 -47.94555955 26.21919275 -47 32 C-45.41153141 37.16252292 -42.67106887 39.50791193 -38.10546875 42.0859375 C-32.83039598 44.3760433 -27.59013041 43.06000496 -22.3984375 41.1640625 C-14.10900606 37.1408531 -8.48549777 30.89033106 -4 23 C-3.38125 22.030625 -2.7625 21.06125 -2.125 20.0625 C-0.51802031 15.68794419 -0.26551669 11.60434162 -1 7 C-2.88515223 4.42362529 -4.19334857 3.40332572 -7 2 C-21.11054188 0.3913063 -34.2977685 6.52754535 -43.796875 16.9765625 Z " fill="#CECEDD" transform="translate(423,182)"/>
<path d="M0 0 C0.66 0.33 1.32 0.66 2 1 C1.67 1.33 1.34 1.66 1 2 C0.41398293 4.33097225 0.41398293 4.33097225 1 7 C2.98074497 8.90525927 4.7728892 10.38074985 7 11.9375 C7.88498169 12.58501221 7.88498169 12.58501221 8.7878418 13.24560547 C9.96892234 14.10853516 11.15467088 14.96511556 12.34521484 15.81494141 C14.53037272 17.37982136 16.6712596 19.00074377 18.8125 20.625 C19.864375 21.40875 20.91625 22.1925 22 23 C21.505 25.475 21.505 25.475 21 28 C16.47362373 26.3896546 12.57464567 24.05973334 8.5 21.5625 C7.84902344 21.16740234 7.19804688 20.77230469 6.52734375 20.36523438 C5.88925781 19.97787109 5.25117187 19.59050781 4.59375 19.19140625 C3.97846436 18.81814209 3.36317871 18.44487793 2.72924805 18.06030273 C1.20048089 17.12292651 -0.31311916 16.16091141 -1.82421875 15.1953125 C-3.93084542 13.7573282 -3.93084542 13.7573282 -6.3125 14.3125 C-6.869375 14.539375 -7.42625 14.76625 -8 15 C-8 15.66 -8 16.32 -8 17 C-6.03271296 18.6404055 -4.06063003 20.17258827 -2 21.6875 C3.1987304 25.58779016 8.19526379 29.61622255 13 34 C12.67 35.32 12.34 36.64 12 38 C5.99704967 36.44513746 1.26425427 33.21087137 -3.875 29.875 C-4.75414063 29.31167969 -5.63328125 28.74835938 -6.5390625 28.16796875 C-8.69650085 26.78439416 -10.84992109 25.39497273 -13 24 C-13.33 24.33 -13.66 24.66 -14 25 C-8.36007638 30.41387458 -2.62041804 35.52258686 3.75 40.0625 C5.28914063 41.16271484 5.28914063 41.16271484 6.859375 42.28515625 C10.36595478 44.19981859 13.02346318 44.80521146 17 45 C18.67739862 44.01810813 20.34467377 43.01866229 22 42 C27.24868689 42.24326779 29.94932074 44.14738043 33.9375 47.4375 C38.90008261 51.43955908 43.98718866 55.11904828 49.3125 58.625 C49.97693115 59.06255615 50.6413623 59.5001123 51.32592773 59.95092773 C52.88148215 60.97106102 54.44035902 61.98612551 56 63 C57.32 61.68 58.64 60.36 60 59 C64.43090471 60.20842856 66.98112756 61.51668565 70 65 C68.02 67.31 66.04 69.62 64 72 C53.10207992 67.95220111 44.05253789 60.10295154 35 53 C31.52335537 50.27754812 29.55497976 49 25 49 C22.37967153 50.13982186 19.93654122 51.43805588 17.46484375 52.87109375 C14.55367606 54.20441778 13.15749793 54.61329247 10 54 C7.76687538 52.24963309 5.86263346 50.55761702 3.875 48.5625 C2.72906556 47.4557358 1.58058795 46.35159924 0.4296875 45.25 C-0.14297852 44.69957031 -0.71564453 44.14914063 -1.30566406 43.58203125 C-4.56606978 40.53773311 -8.06540524 37.80191262 -11.5625 35.03515625 C-18.87205877 28.93214324 -18.87205877 28.93214324 -19.4375 24.8125 C-19 22 -19 22 -17 20 C-11.27551379 20.22448966 -7.71519547 22.01691715 -3 25 C-3.58910156 24.57589844 -4.17820312 24.15179688 -4.78515625 23.71484375 C-7.08365651 21.92098849 -9.10606227 20.22033063 -11 18 C-11.125 14.125 -11.125 14.125 -10 11 C-7.13391871 9.56695936 -5.18699217 9.69355845 -2 10 C1.375 12 1.375 12 4 14 C3.195625 13.195625 2.39125 12.39125 1.5625 11.5625 C-2 8 -2 8 -2.1875 5.0625 C-2 2 -2 2 0 0 Z " fill="#120954" transform="translate(80,176)"/>
<path d="M0 0 C3.36037678 1.61584075 6.68314101 3.29674808 10 5 C10.95390625 5.46921875 11.9078125 5.9384375 12.890625 6.421875 C15.48407895 7.80011053 17.77939155 9.07547267 20 11 C20.625 14.875 20.625 14.875 20 18 C17 18 17 18 15 17 C10.43060944 15.8357683 6.23081112 15.73417783 2.03027344 18.11767578 C-2.20768919 21.02065018 -6.13633399 24.28368909 -10.09960938 27.54492188 C-12.91015421 29.69688066 -15.88003168 31.33493919 -19 33 C-24.52589004 26.12965691 -28.74386627 18.69128735 -33 11 C-29.36383407 9.78794469 -28.41130247 10.33101352 -24.89453125 11.65234375 C-23.91162109 12.01650391 -22.92871094 12.38066406 -21.91601562 12.75585938 C-20.89185547 13.14580078 -19.86769531 13.53574219 -18.8125 13.9375 C-17.77673828 14.32357422 -16.74097656 14.70964844 -15.67382812 15.10742188 C-13.11268546 16.06342444 -10.55506401 17.02789257 -8 18 C-7.8146167 17.40904541 -7.6292334 16.81809082 -7.43823242 16.20922852 C-6.04602685 11.88434522 -4.62422004 7.87367195 -2.3125 3.9375 C-1.65701172 2.80634766 -1.65701172 2.80634766 -0.98828125 1.65234375 C-0.66214844 1.10707031 -0.33601563 0.56179688 0 0 Z " fill="#F82403" transform="translate(123,295)"/>
<path d="M0 0 C9.57 0 19.14 0 29 0 C26.71768914 2.28231086 25.93833868 2.3717989 22.84375 2.859375 C21.99522461 3.00205811 21.14669922 3.14474121 20.27246094 3.29174805 C19.35754883 3.44297119 18.44263672 3.59419434 17.5 3.75 C-5.9594735 7.97583102 -32.93876259 17.26623262 -47.1875 37.6875 C-49.38607023 40.71951515 -50.22091599 41.83461367 -53.92578125 42.62109375 C-56.69239924 42.62460915 -59.27320733 42.45112379 -62 42 C-55.72280754 25.6792996 -39.15478615 16.57260437 -24.0625 9.6875 C-18.19406628 7.25686727 -12.27502891 5.64598922 -6.06469727 4.37963867 C-3.89527908 3.94121424 -3.89527908 3.94121424 -1 3 C-0.67 2.01 -0.34 1.02 0 0 Z " fill="#FEEBB8" transform="translate(237,219)"/>
<path d="M0 0 C1.06541016 0.78890625 1.06541016 0.78890625 2.15234375 1.59375 C2.15234375 2.25375 2.15234375 2.91375 2.15234375 3.59375 C1.32992187 3.77808594 0.5075 3.96242187 -0.33984375 4.15234375 C-8.0888574 6.16565561 -12.85026118 8.72135493 -18.5 14.37109375 C-20.77785485 16.52766515 -22.95607492 17.96760495 -25.66015625 19.53125 C-30.13652161 22.32406143 -31.72786772 25.56573243 -33.58203125 30.421875 C-35.22043466 33.23345616 -36.79453061 33.68387812 -39.84765625 34.59375 C-42.92317692 29.59602891 -43.97584854 25.3295175 -42.84765625 19.59375 C-38.7448227 9.98829262 -30.07876249 4.91132844 -20.97265625 0.65625 C-14.19127233 -1.99505236 -6.73642917 -3.32663169 0 0 Z " fill="#9898B8" transform="translate(418.84765625,185.40625)"/>
<path d="M0 0 C28.6813413 -0.77169528 54.49942799 5.37403965 81 16 C81 16.33 81 16.66 81 17 C79.64068359 17.09087891 79.64068359 17.09087891 78.25390625 17.18359375 C76.42666016 17.30927734 76.42666016 17.30927734 74.5625 17.4375 C72.64244141 17.56125 72.64244141 17.56125 70.68359375 17.6875 C67.74205159 17.93704759 65.01055832 18.36951664 62.125 18.9375 C58.38595641 19.40921607 56.76351431 18.47717589 53.8125 16.1875 C53.15378906 15.63191406 52.49507813 15.07632813 51.81640625 14.50390625 C46.97504615 10.49546832 41.27817297 10.58861939 35.2578125 10.6640625 C29.87711208 11.21890691 25.00355476 13.01277258 20 15 C19.34257812 14.23816406 19.34257812 14.23816406 18.671875 13.4609375 C13.19411689 7.51556589 7.35934958 4.23811382 0 1 C0 0.67 0 0.34 0 0 Z " fill="#F92605" transform="translate(242,88)"/>
<path d="M0 0 C3.63 0 7.26 0 11 0 C10.88406494 0.75394043 10.76812988 1.50788086 10.64868164 2.28466797 C8.61107435 15.66302108 6.62052543 28.9239317 6.17578125 42.4609375 C6.01389205 45.72030679 5.60974185 48.79761596 5 52 C1.7 50.35 -1.6 48.7 -5 47 C-5.26249981 36.497185 -4.55882304 26.5996302 -3.0625 16.1875 C-2.8774193 14.82758746 -2.69317169 13.46756128 -2.50976562 12.10742188 C-1.15145906 2.30291812 -1.15145906 2.30291812 0 0 Z " fill="#FEEAB6" transform="translate(171,287)"/>
<path d="M0 0 C3.97133619 3.00056512 6.26817374 6.35141371 8 11 C8.52470142 15.23860366 8.71985614 19.5030421 6 23 C2.4907203 25.88999505 -0.6351588 26.60243192 -5.07421875 26.41015625 C-8.53025498 25.67408362 -9.94726188 23.75653404 -12 21 C-14.873369 15.74867045 -15.75501329 11.85135302 -15 6 C-10.71085949 0.69501043 -6.83057185 -1.15594293 0 0 Z " fill="#F3F3F6" transform="translate(318,359)"/>
<path d="M0 0 C3.64546493 1.40847509 4.78393688 2.64237829 6.8125 6 C8.60736918 10.83789451 8.73959784 15.92732349 8 21 C5.81381363 24.16620095 4.63108389 24.7896387 1 26 C-6.0738255 26.68456376 -6.0738255 26.68456376 -9.875 23.875 C-13.31803983 19.21676964 -14.51560766 14.69946287 -14.39453125 8.96484375 C-13.67213228 5.36715381 -11.58696823 3.52537374 -9 1 C-5.93570224 -0.53214888 -3.3834358 -0.22938548 0 0 Z " fill="#F5F5F8" transform="translate(291,366)"/>
<path d="M0 0 C3.6256765 2.23240343 6.01775186 4.83912779 8.375 8.375 C8.375 9.695 8.375 11.015 8.375 12.375 C-5.155 12.375 -18.685 12.375 -32.625 12.375 C-31.4045961 6.27298052 -29.14890176 4.45350733 -24.5 0.625 C-18.35653703 -3.47064198 -6.60476467 -3.05517905 0 0 Z " fill="#FCB90A" transform="translate(257.625,201.625)"/>
<path d="M0 0 C4.03977875 6.24329444 4.03977875 6.24329444 3.87182617 9.43823242 C3 12 3 12 0.76269531 13.62158203 C-0.20571289 14.07903809 -1.17412109 14.53649414 -2.171875 15.0078125 C-3.75742187 15.77544922 -3.75742187 15.77544922 -5.375 16.55859375 C-7.045625 17.33396484 -7.045625 17.33396484 -8.75 18.125 C-10.9329888 19.16781273 -13.11530471 20.21203548 -15.296875 21.2578125 C-16.75625488 21.94061279 -16.75625488 21.94061279 -18.24511719 22.63720703 C-21.04143126 23.96927558 -21.04143126 23.96927558 -23.73144531 25.67138672 C-26 27 -26 27 -28 27 C-29.21693876 24.56612247 -29.31959896 22.58161154 -29.5625 19.875 C-29.64628906 18.96492188 -29.73007812 18.05484375 -29.81640625 17.1171875 C-29.87699219 16.41851562 -29.93757813 15.71984375 -30 15 C-26.45929322 13.06074205 -22.91726567 11.12390879 -19.375 9.1875 C-18.37597656 8.64029297 -17.37695312 8.09308594 -16.34765625 7.52929688 C-2.56676136 0 -2.56676136 0 0 0 Z " fill="#CDCDDC" transform="translate(377,282)"/>
<path d="M0 0 C20.79 0 41.58 0 63 0 C60.61635339 4.76729322 60.61635339 4.76729322 57 6 C54.27911377 6.24050903 54.27911377 6.24050903 51.12988281 6.22705078 C49.35849945 6.22682419 49.35849945 6.22682419 47.55133057 6.22659302 C45.64646881 6.21110916 45.64646881 6.21110916 43.703125 6.1953125 C42.39921814 6.1924826 41.09531128 6.18965271 39.75189209 6.18673706 C36.2929105 6.17911721 32.83409807 6.15948308 29.37518311 6.1373291 C25.84259326 6.11683503 22.30997597 6.10772774 18.77734375 6.09765625 C11.85149321 6.07623548 4.92575474 6.04211956 -2 6 C-1.34 4.02 -0.68 2.04 0 0 Z " fill="#9A7024" transform="translate(290,271)"/>
<path d="M0 0 C3.20438157 1.42020475 5.40405735 3.15548635 7.9375 5.5625 C11.67728527 8.93757893 15.53021761 12.01299284 19.625 14.9375 C20.66914062 15.68902344 21.71328125 16.44054687 22.7890625 17.21484375 C26.33472837 19.18609594 28.96314966 19.8114525 33 20 C34.67739862 19.01810813 36.34467377 18.01866229 38 17 C43.24868689 17.24326779 45.94932074 19.14738043 49.9375 22.4375 C54.90008261 26.43955908 59.98718866 30.11904828 65.3125 33.625 C65.97693115 34.06255615 66.6413623 34.5001123 67.32592773 34.95092773 C68.88148215 35.97106102 70.44035902 36.98612551 72 38 C73.32 36.68 74.64 35.36 76 34 C80.43090471 35.20842856 82.98112756 36.51668565 86 40 C84.02 42.31 82.04 44.62 80 47 C67.00452575 42.17310956 54.48590629 31.85285565 44.78125 22.08203125 C42.98974066 20.75682337 42.98974066 20.75682337 40.50390625 21.19140625 C38.17171797 21.94454661 36.46694224 22.77831675 34.4375 24.125 C31 26 31 26 29.0703125 25.8671875 C26.30997426 24.71097035 24.6075158 23.05919127 22.4375 21 C18.81517641 17.62915235 15.12516633 14.4518715 11.25 11.375 C6.94187581 7.89794657 3.42055441 4.34502858 0 0 Z " fill="#71709D" transform="translate(64,201)"/>
<path d="M0 0 C2.625 0.375 2.625 0.375 5 1 C5 4.3 5 7.6 5 11 C5.9075 11.391875 6.815 11.78375 7.75 12.1875 C11.18159209 14.10127251 12.87297154 15.72764852 15 19 C15 19.99 15 20.98 15 22 C12.3125 22.8125 12.3125 22.8125 9 23 C6.125 20.5625 6.125 20.5625 4 18 C3.01 18.33 2.02 18.66 1 19 C1.53625 19.9075 2.0725 20.815 2.625 21.75 C4 25 4 25 3.1875 27.375 C2.795625 27.91125 2.40375 28.4475 2 29 C-0.1953125 29.015625 -0.1953125 29.015625 -3 28 C-5.02547784 25.45999172 -6.42043996 22.64476587 -7.875 19.75 C-8.29007812 18.98558594 -8.70515625 18.22117187 -9.1328125 17.43359375 C-12.06201805 11.78022704 -12.06201805 11.78022704 -11.7578125 7.953125 C-11.50773437 7.30859375 -11.25765625 6.6640625 -11 6 C-7.32579134 6.30618405 -6.21864487 6.75771784 -3.6875 9.5625 C-2.8521875 10.7690625 -2.8521875 10.7690625 -2 12 C-2.02320313 11.30132812 -2.04640625 10.60265625 -2.0703125 9.8828125 C-2.08835937 8.97273438 -2.10640625 8.06265625 -2.125 7.125 C-2.14820313 6.22007812 -2.17140625 5.31515625 -2.1953125 4.3828125 C-2 2 -2 2 0 0 Z " fill="#F5F5F8" transform="translate(338,346)"/>
<path d="M0 0 C1.86398438 0.00676758 1.86398438 0.00676758 3.765625 0.01367188 C6.80213502 0.02535076 9.83854088 0.0417286 12.875 0.0625 C12.875 0.3925 12.875 0.7225 12.875 1.0625 C0.5 1.5575 0.5 1.5575 -12.125 2.0625 C-12.125 3.0525 -12.125 4.0425 -12.125 5.0625 C-13.383125 5.330625 -14.64125 5.59875 -15.9375 5.875 C-27.63617887 8.50074177 -37.73804451 12.0884571 -48.125 18.0625 C-49.14207031 18.6296875 -50.15914062 19.196875 -51.20703125 19.78125 C-59.4888432 24.6924224 -67.22005093 30.9854153 -71.625 39.6875 C-72.69921875 41.6328125 -72.69921875 41.6328125 -74.125 43.0625 C-77.55295345 43.73214672 -80.68050987 43.54405979 -84.125 43.0625 C-76.2557068 26.00608937 -55.43845511 15.66381543 -38.75 9.32421875 C-22.37553307 3.53020754 -22.37553307 3.53020754 -14.125 4.0625 C-14.125 3.4025 -14.125 2.7425 -14.125 2.0625 C-17.425 2.0625 -20.725 2.0625 -24.125 2.0625 C-24.125 1.7325 -24.125 1.4025 -24.125 1.0625 C-16.07026218 0.03094464 -8.1118879 -0.05645318 0 0 Z " fill="#FFBC0E" transform="translate(249.125,217.9375)"/>
<path d="M0 0 C1.65 0 3.3 0 5 0 C6.15404469 4.07181806 5.84745233 6.13320767 4.0625 9.9375 C2.37498715 13.81703984 1.54775449 16.70366763 2 21 C2.99 21 3.98 21 5 21 C7.31 15.72 9.62 10.44 12 5 C13.65 5 15.3 5 17 5 C18.33863379 8.04305705 17.90255158 9.31327607 16.890625 12.56640625 C16.35539405 13.90315879 15.80808561 15.23512666 15.25 16.5625 C14.98445313 17.23474609 14.71890625 17.90699219 14.4453125 18.59960938 C11.78380937 25.10478813 11.78380937 25.10478813 9 27 C5.27074812 27.85240043 1.59645647 27.70088333 -1.921875 26.15625 C-4.99137241 23.99298516 -5.9595147 22.18555764 -6.75 18.5625 C-6.29896858 12.0601303 -2.74828648 5.82374992 0 0 Z " fill="#F4F3F7" transform="translate(174,355)"/>
<path d="M0 0 C2.87305972 1.40460697 4.74510999 2.74510999 7 5 C6.625 8.625 6.625 8.625 6 12 C4.125 11.8125 4.125 11.8125 2 11 C0.75 8.4375 0.75 8.4375 0 6 C-1.32 6 -2.64 6 -4 6 C-4 7.65 -4 9.3 -4 11 C-3.236875 11.268125 -2.47375 11.53625 -1.6875 11.8125 C2.45598194 13.64334086 2.45598194 13.64334086 4 16 C4.6529148 22.09387145 4.6529148 22.09387145 2.78125 24.69140625 C-0.6779148 27.23267864 -4.9176271 26.57855285 -9 26 C-12.125 24.375 -12.125 24.375 -14 22 C-14.3125 18.75 -14.3125 18.75 -14 16 C-11.625 16.3125 -11.625 16.3125 -9 17 C-8.34 17.99 -7.68 18.98 -7 20 C-4.94074861 20.72382467 -4.94074861 20.72382467 -3 21 C-4.06920302 17.25778943 -4.94839019 16.03922346 -8.125 13.625 C-11 11 -11 11 -11.625 7.4375 C-11 4 -11 4 -9.4375 1.5625 C-6.06772759 -0.59761052 -3.93756894 -0.4835611 0 0 Z " fill="#F3F3F6" transform="translate(207,364)"/>
<path d="M0 0 C2.625 1.6875 2.625 1.6875 4 4 C4.25 6.75 4.25 6.75 4 9 C2.35 9.33 0.7 9.66 -1 10 C-1.66 8.68 -2.32 7.36 -3 6 C-4.32 6 -5.64 6 -7 6 C-7.02694851 7.95825873 -7.04637218 9.91662226 -7.0625 11.875 C-7.07410156 12.96554687 -7.08570313 14.05609375 -7.09765625 15.1796875 C-7.19744303 17.95177546 -7.19744303 17.95177546 -6 20 C-5.01 20 -4.02 20 -3 20 C-1.29467677 18.05990478 -1.29467677 18.05990478 0 16 C1.65 16.33 3.3 16.66 5 17 C4.72253508 20.32957907 4.18903896 21.78804723 1.9375 24.3125 C-1.82891425 26.47618478 -4.75119411 27.01284666 -9 26 C-12.21954645 23.46546343 -13.70432435 21.88702695 -15 18 C-16.03213611 6.82344045 -16.03213611 6.82344045 -13.125 1.6875 C-8.70802184 -0.69766821 -4.91396354 -0.89495457 0 0 Z " fill="#F1F1F5" transform="translate(268,370)"/>
<path d="M0 0 C12.88865012 5.41597531 23.3826573 14.16723464 31 26 C31.33 26.99 31.66 27.98 32 29 C28.20047091 29.55653139 24.78269464 29.74624588 21 29 C18.82604844 27.03139089 17.47727995 24.96462085 15.89453125 22.5 C13.65873626 19.54967258 11.29119106 17.99666766 8.1875 16 C4.34250578 13.37530491 2.35335301 11.81040467 1.375 7.1875 C1.23188958 5.79340707 1.10474354 4.39749937 1 3 C0.67 2.01 0.34 1.02 0 0 Z " fill="#996F23" transform="translate(313,232)"/>
<path d="M0 0 C2.97 0 5.94 0 9 0 C8.86722656 0.78503906 8.73445312 1.57007813 8.59765625 2.37890625 C8.42105469 3.42949219 8.24445313 4.48007812 8.0625 5.5625 C7.88847656 6.59503906 7.71445313 7.62757813 7.53515625 8.69140625 C6.46765016 15.29124317 5.76544255 21.76575073 5.4375 28.4375 C5.39431641 29.26443359 5.35113281 30.09136719 5.30664062 30.94335938 C5.20161967 32.96209549 5.10041441 34.98102951 5 37 C1.11345399 35.52401486 -1.49588387 34.43156655 -4 31 C-4.30799868 25.97962153 -3.63502164 21.5206251 -2.5625 16.625 C-1.38408179 11.08979738 -0.49467906 5.63934132 0 0 Z " fill="#FEEBBB" transform="translate(156,287)"/>
<path d="M0 0 C-3.33582904 2.22388603 -6.35238898 2.85171281 -10.1875 3.6875 C-27.79625209 7.846351 -44.6904376 16.49705094 -57 30 C-58.11445052 31.82341447 -59.18005197 33.67785448 -60.1875 35.5625 C-61.55078125 38.08984375 -61.55078125 38.08984375 -63 40 C-66.875 40.625 -66.875 40.625 -70 40 C-65.5239646 25.67668672 -51.47374612 17.53750807 -39 11 C-37.99324219 10.45214844 -36.98648438 9.90429688 -35.94921875 9.33984375 C-25.32736343 3.9531441 -11.99480361 -0.29934028 0 0 Z " fill="#F6B50C" transform="translate(217,221)"/>
<path d="M0 0 C4.93370798 2.66545664 9.8598625 5.34165127 14.73046875 8.12109375 C45.74741796 26.04980002 45.74741796 26.04980002 80 35 C79.34 36.65 78.68 38.3 78 40 C70.05557318 38.54861433 62.93834385 35.7927126 55.5 32.6875 C54.87149139 32.42633392 54.24298279 32.16516785 53.59542847 31.89608765 C15.28813494 15.91493445 15.28813494 15.91493445 1 4 C0.15625 1.75390625 0.15625 1.75390625 0 0 Z " fill="#7E7DA6" transform="translate(35,268)"/>
<path d="M0 0 C2.45622816 0.03851745 4.86459438 0.14533713 7.3125 0.3125 C7.98990234 0.34794922 8.66730469 0.38339844 9.36523438 0.41992188 C13.00940958 0.6585922 15.88191668 1.0361686 19 3 C18.67 4.32 18.34 5.64 18 7 C16.02 7 14.04 7 12 7 C11.86722656 8.28777344 11.73445312 9.57554687 11.59765625 10.90234375 C11.41950101 12.58075362 11.24110308 14.25913773 11.0625 15.9375 C10.93198242 17.21270508 10.93198242 17.21270508 10.79882812 18.51367188 C10.66831055 19.72700195 10.66831055 19.72700195 10.53515625 20.96484375 C10.456604 21.7137085 10.37805176 22.46257324 10.29711914 23.23413086 C10 25 10 25 9 26 C6.5 26.125 6.5 26.125 4 26 C3.67 25.67 3.34 25.34 3 25 C3.06511745 22.38050256 3.19220766 19.79914559 3.375 17.1875 C3.41882813 16.46240234 3.46265625 15.73730469 3.5078125 14.99023438 C3.7332694 11.56767345 3.98188585 8.28730076 5 5 C3.35 5 1.7 5 0 5 C-0.5625 3.0625 -0.5625 3.0625 -1 1 C-0.67 0.67 -0.34 0.34 0 0 Z " fill="#EDEDF2" transform="translate(219,368)"/>
<path d="M0 0 C4.84183752 3.91071492 9.24652456 8.00911507 13 13 C13 13.33 13 13.66 13 14 C2.44 14 -8.12 14 -19 14 C-15.80514884 11.60386163 -13.01636655 9.91216432 -9.5 8.125 C-5.38918941 5.92964054 -2.50552133 4.05655834 0 0 Z " fill="#9D7222" transform="translate(312,247)"/>
<path d="M0 0 C2.97 0.495 2.97 0.495 6 1 C5.4184661 5.62583784 3.436622 9.22294399 1.125 13.1875 C0.59712891 14.13012695 0.59712891 14.13012695 0.05859375 15.09179688 C-1.73903893 18.21593545 -2.95347034 19.96898023 -6 22 C-9.99546788 22.52114798 -11.52319265 22.33169207 -14.875 20 C-15.57625 19.34 -16.2775 18.68 -17 18 C-16.67 16.68 -16.34 15.36 -16 14 C-14.68 14 -13.36 14 -12 14 C-9.94913664 14.02973234 -9.94913664 14.02973234 -8 13 C-6.41529611 10.82247806 -5.07281842 8.76223089 -3.75 6.4375 C-3.38648438 5.82197266 -3.02296875 5.20644531 -2.6484375 4.57226562 C-1.7543912 3.05473967 -0.87568372 1.52819561 0 0 Z " fill="#F4F4F7" transform="translate(163,349)"/>
<path d="M0 0 C0.71027344 0.4846875 1.42054688 0.969375 2.15234375 1.46875 C-0.3861042 2.73797397 -2.01744084 2.46435577 -4.84765625 2.34375 C-15.43903238 2.28851466 -25.35244174 6.10342238 -32.99609375 13.56640625 C-37.08688286 18.16645686 -38.90562429 20.89521443 -39.41015625 27.09375 C-39.53583984 28.59808594 -39.53583984 28.59808594 -39.6640625 30.1328125 C-39.72464844 30.90367187 -39.78523438 31.67453125 -39.84765625 32.46875 C-41.84765625 31.46875 -41.84765625 31.46875 -42.84765625 28.46875 C-43.66770638 23.29932004 -43.21333248 19.3523554 -40.47265625 14.84375 C-32.41105585 4.03216441 -13.30843848 -7.15625224 0 0 Z " fill="#666696" transform="translate(418.84765625,185.53125)"/>
<path d="M0 0 C1.6875 3.5625 1.6875 3.5625 3 7 C0.40011448 8.50787377 -2.20440197 10.00645461 -4.8125 11.5 C-5.55048828 11.92925781 -6.28847656 12.35851562 -7.04882812 12.80078125 C-7.76103516 13.20683594 -8.47324219 13.61289062 -9.20703125 14.03125 C-9.8616333 14.40830078 -10.51623535 14.78535156 -11.19067383 15.17382812 C-13 16 -13 16 -16 16 C-19 10.375 -19 10.375 -19 7 C-16.40163864 5.63354299 -13.79734444 4.28169331 -11.1875 2.9375 C-10.44951172 2.54755859 -9.71152344 2.15761719 -8.95117188 1.75585938 C-8.23896484 1.39169922 -7.52675781 1.02753906 -6.79296875 0.65234375 C-6.1383667 0.31195068 -5.48376465 -0.02844238 -4.80932617 -0.37915039 C-3 -1 -3 -1 0 0 Z " fill="#D3D3E1" transform="translate(402,272)"/>
<path d="M0 0 C6.16529701 0.31616908 10.17268433 3.49215061 15 7 C16.32 5.68 17.64 4.36 19 3 C23.43090471 4.20842856 25.98112756 5.51668565 29 9 C27.02 11.31 25.04 13.62 23 16 C17.12654369 13.84781294 12.1912667 10.43615942 7 7 C6.25105469 6.505 5.50210938 6.01 4.73046875 5.5 C3.11170956 4.3922544 1.54831425 3.20424442 0 2 C0 1.34 0 0.68 0 0 Z " fill="#6F6E9C" transform="translate(121,232)"/>
<path d="M0 0 C1.2065625 0.0309375 1.2065625 0.0309375 2.4375 0.0625 C0.96316364 4.01719672 -0.95072648 5.10737026 -4.69140625 6.90234375 C-5.72716797 7.40830078 -6.76292969 7.91425781 -7.83007812 8.43554688 C-8.91740234 8.95181641 -10.00472656 9.46808594 -11.125 10 C-13.25222085 11.02804898 -15.37853746 12.0579713 -17.50390625 13.08984375 C-18.5314502 13.58339355 -19.55899414 14.07694336 -20.61767578 14.58544922 C-24.06700437 16.31554688 -27.36471841 18.24175839 -30.64038086 20.27954102 C-33.01648185 21.24742567 -34.18930166 20.91420533 -36.5625 20.0625 C-36.33374023 18.1809082 -36.33374023 18.1809082 -35.5625 16.0625 C-33.68383789 14.99682617 -33.68383789 14.99682617 -31.22265625 14.16796875 C-25.24729969 11.9917258 -19.66859194 9.24541376 -14 6.375 C-13.00419922 5.87677734 -12.00839844 5.37855469 -10.98242188 4.86523438 C-1.37818375 0.03361424 -1.37818375 0.03361424 0 0 Z " fill="#110D5A" transform="translate(453.5625,261.9375)"/>
<path d="M0 0 C-1.22565087 3.91231707 -3.64881768 5.21207827 -7.15536499 7.070755 C-8.20381088 7.60227425 -8.20381088 7.60227425 -9.2734375 8.14453125 C-9.99359039 8.5185759 -10.71374329 8.89262054 -11.45571899 9.27799988 C-12.97759366 10.06441197 -14.50253752 10.8449089 -16.03027344 11.61987305 C-18.36826371 12.80907364 -20.69206742 14.02312107 -23.015625 15.24023438 C-24.49661005 16.00153057 -25.97835683 16.76134712 -27.4609375 17.51953125 C-28.15585297 17.88399857 -28.85076843 18.24846588 -29.56674194 18.62397766 C-33.19886571 20.44311605 -35.12987235 21.27207105 -39 20 C-35.79910866 16.39649342 -32.20809013 14.27432754 -27.96875 12.109375 C-26.95935364 11.58515961 -26.95935364 11.58515961 -25.92956543 11.050354 C-24.51277017 10.31723003 -23.0939825 9.58794509 -21.67333984 8.86230469 C-19.50122298 7.75062592 -17.33834459 6.62231708 -15.17578125 5.4921875 C-13.79479379 4.7802347 -12.41329997 4.06926304 -11.03125 3.359375 C-10.3863562 3.02194275 -9.7414624 2.6845105 -9.07702637 2.33685303 C-5.70238722 0.6289441 -3.87489131 0 0 0 Z " fill="#0D0957" transform="translate(452,254)"/>
<path d="M0 0 C0 1.32 0 2.64 0 4 C-4.76373965 6.43131778 -9.53264539 8.85206514 -14.30664062 11.26318359 C-15.9298487 12.08484348 -17.55160898 12.90937007 -19.171875 13.73681641 C-21.50145525 14.92587299 -23.83605237 16.10451348 -26.171875 17.28125 C-26.89493835 17.65310425 -27.61800171 18.0249585 -28.36297607 18.40808105 C-31.89876923 20.17676264 -33.97213595 21 -38 21 C-36.95658406 17.96652561 -36.05198126 17.0323523 -33.28198242 15.30834961 C-32.15123291 14.76186768 -31.0204834 14.21538574 -29.85546875 13.65234375 C-28.94526726 13.20538902 -28.94526726 13.20538902 -28.01667786 12.74940491 C-26.07897529 11.80060504 -24.13375527 10.86861087 -22.1875 9.9375 C-20.25376048 8.99945422 -18.32172317 8.05801019 -16.39045715 7.11488342 C-14.6318767 6.25815698 -12.86914127 5.40997494 -11.10620117 4.56225586 C-8.01356048 3.06680289 -8.01356048 3.06680289 -5.27856445 1.29907227 C-3 0 -3 0 0 0 Z " fill="#0F0B58" transform="translate(447,246)"/>
<path d="M0 0 C6.51819877 1.89536276 12.17814801 4.5178994 18 8 C17.67 10.64 17.34 13.28 17 16 C14.76955389 14.89835882 12.54064354 13.79378106 10.3125 12.6875 C9.68666016 12.37876953 9.06082031 12.07003906 8.41601562 11.75195312 C4.84579593 9.9761894 1.38690408 8.10467271 -2 6 C-1.34 4.02 -0.68 2.04 0 0 Z " fill="#D0D0DE" transform="translate(127,286)"/>
<path d="M0 0 C-0.36009614 2.50289858 -0.57479633 3.67311747 -2.61962891 5.24511719 C-3.31491699 5.59219727 -4.01020508 5.93927734 -4.7265625 6.296875 C-5.50451172 6.69479248 -6.28246094 7.09270996 -7.08398438 7.50268555 C-7.92251953 7.91429932 -8.76105469 8.32591309 -9.625 8.75 C-11.35720426 9.62544502 -13.08896947 10.50175925 -14.8203125 11.37890625 C-15.68946289 11.81477051 -16.55861328 12.25063477 -17.45410156 12.69970703 C-19.82707225 13.91167883 -22.16328384 15.17060134 -24.4921875 16.46484375 C-25.17200684 16.84092773 -25.85182617 17.21701172 -26.55224609 17.60449219 C-27.82711454 18.31335612 -29.09844989 19.02862114 -30.36572266 19.75097656 C-31.87103587 20.57700602 -33.43276096 21.29853414 -35 22 C-35.99 21.67 -36.98 21.34 -38 21 C-36.54473871 16.63421613 -33.21310385 15.72392925 -29.31640625 13.76953125 C-28.54570297 13.37424728 -27.77499969 12.97896332 -26.98094177 12.57170105 C-25.34992424 11.73758801 -23.71646996 10.90822533 -22.08081055 10.08325195 C-19.57106902 8.81682397 -17.06925583 7.535745 -14.56835938 6.25195312 C-12.98481936 5.44444052 -11.40084903 4.63777107 -9.81640625 3.83203125 C-9.0642836 3.44771439 -8.31216095 3.06339752 -7.5372467 2.66743469 C-2.23305598 0 -2.23305598 0 0 0 Z " fill="#0E0B58" transform="translate(443,238)"/>
<path d="M0 0 C0.495 1.98 0.495 1.98 1 4 C0.48203857 4.27150879 -0.03592285 4.54301758 -0.56958008 4.82275391 C-2.98437475 6.08924149 -5.39850333 7.35699203 -7.8125 8.625 C-9.11078735 9.3063501 -9.11078735 9.3063501 -10.43530273 10.00146484 C-16.02266144 12.94009064 -21.56922028 15.93456746 -27.06640625 19.0390625 C-29 20 -29 20 -31 20 C-32.21693876 17.56612247 -32.31959896 15.58161154 -32.5625 12.875 C-32.64628906 11.96492188 -32.73007812 11.05484375 -32.81640625 10.1171875 C-32.87699219 9.41851562 -32.93757813 8.71984375 -33 8 C-31.35 7.34 -29.7 6.68 -28 6 C-27.67 8.97 -27.34 11.94 -27 15 C-26.25314941 14.60619141 -25.50629883 14.21238281 -24.73681641 13.80664062 C-21.96915473 12.34974972 -19.19960442 10.89653433 -16.42871094 9.44580078 C-15.22904458 8.81673913 -14.03014591 8.18621123 -12.83203125 7.55419922 C-11.11139422 6.64687655 -9.38776861 5.74522848 -7.6640625 4.84375 C-6.62717285 4.29912109 -5.5902832 3.75449219 -4.52197266 3.19335938 C-2 2 -2 2 0 2 C0 1.34 0 0.68 0 0 Z " fill="#7776A1" transform="translate(380,289)"/>
<path d="M0 0 C0.5775 0.72703125 1.155 1.4540625 1.75 2.203125 C9.55314391 11.90286639 17.67310717 19.11540478 28 26 C27.67 26.99 27.34 27.98 27 29 C15.8870994 23.82941431 6.58788944 14.58788944 -2 6 C-1.44444444 1.44444444 -1.44444444 1.44444444 0 0 Z " fill="#F5F5F8" transform="translate(112,208)"/>
<path d="M0 0 C0 0.99 0 1.98 0 3 C-9.19656823 11.24863986 -17.26299757 14.33798465 -29.37890625 14.30078125 C-33 14 -33 14 -36.05859375 12.77734375 C-39.07046924 11.67554998 -39.07046924 11.67554998 -42.15625 13.203125 C-43.2596875 13.87859375 -44.363125 14.5540625 -45.5 15.25 C-46.09441895 15.60900391 -46.68883789 15.96800781 -47.30126953 16.33789062 C-54.1116754 20.5294589 -60.5805662 25.23908253 -67 30 C-68.9375 29.1875 -68.9375 29.1875 -71 28 C-71.33 27.01 -71.66 26.02 -72 25 C-69.71131527 24.26435134 -68.40367437 23.87617726 -66.0690918 24.59228516 C-63.67361405 25.2986272 -63.67361405 25.2986272 -60.64453125 23.0859375 C-59.35961365 22.19309395 -58.08260218 21.2887961 -56.8125 20.375 C-55.46620917 19.44723425 -54.11855804 18.52143924 -52.76953125 17.59765625 C-52.12064941 17.14922363 -51.47176758 16.70079102 -50.80322266 16.23876953 C-41.64449842 9.94695166 -41.64449842 9.94695166 -36.125 10.125 C-34.06889078 10.70071058 -32.02561719 11.32479427 -30 12 C-21.60339926 13.06706801 -13.96662131 10.77875611 -7.078125 5.953125 C-4.65944002 4.02637594 -2.3053853 2.06034435 0 0 Z " fill="#7C7BA5" transform="translate(415,216)"/>
<path d="M0 0 C4.43714021 1.33661796 8.21122236 3.09556174 12.21875 5.4140625 C12.79854614 5.74739594 13.37834229 6.08072937 13.97570801 6.42416382 C15.82011986 7.48603891 17.66012209 8.55529227 19.5 9.625 C20.70283315 10.31951612 21.90595632 11.0135302 23.109375 11.70703125 C25.51312305 13.09296509 27.91528069 14.48159856 30.31640625 15.87207031 C36.19631073 19.27354048 42.09902269 22.63526906 48 26 C48 26.66 48 27.32 48 28 C42.84777428 27.46140441 39.03683285 24.91882303 34.6875 22.3125 C33.00802469 21.31995337 31.32832553 20.32778544 29.6484375 19.3359375 C28.74834961 18.80194336 27.84826172 18.26794922 26.92089844 17.71777344 C23.76588377 15.8623168 20.59225579 14.04201168 17.4140625 12.2265625 C16.31747314 11.59709717 15.22088379 10.96763184 14.09106445 10.3190918 C11.92055653 9.07342164 9.7472451 7.83262264 7.57104492 6.59692383 C6.58467041 6.0273999 5.5982959 5.45787598 4.58203125 4.87109375 C3.69749268 4.36505615 2.8129541 3.85901855 1.90161133 3.33764648 C1.27407959 2.89622314 0.64654785 2.4547998 0 2 C0 1.34 0 0.68 0 0 Z " fill="#EDEDF2" transform="translate(76,257)"/>
<path d="M0 0 C-3.57644222 2.0810029 -7.14695525 2.77580882 -11.1875 3.5625 C-12.43917969 3.81128906 -13.69085938 4.06007813 -14.98046875 4.31640625 C-22.26911162 5.61877442 -29.35719523 6.14877042 -36.75390625 5.87890625 C-37.54022934 5.85529526 -38.32655243 5.83168427 -39.13670349 5.80735779 C-41.61219823 5.73167876 -44.08730104 5.6472522 -46.5625 5.5625 C-48.25584113 5.50918301 -49.94920055 5.45644355 -51.64257812 5.40429688 C-55.76195999 5.27619598 -59.88101486 5.14025731 -64 5 C-64 4.67 -64 4.34 -64 4 C-63.06953857 3.98541748 -62.13907715 3.97083496 -61.18041992 3.95581055 C-34.72474534 3.86745677 -34.72474534 3.86745677 -8.7578125 -0.62109375 C-5.78368917 -1.26218256 -2.95944124 -0.51221098 0 0 Z " fill="#CA1C10" transform="translate(302,356)"/>
<path d="M0 0 C6.07580742 1.67467633 11.34471109 4.6978646 16.8125 7.75 C18.26172852 8.51957031 18.26172852 8.51957031 19.74023438 9.3046875 C26.7017559 13.19883446 26.7017559 13.19883446 28.1953125 17.2109375 C27.98648034 20.19306079 27.3332095 22.333581 26 25 C25.34 25 24.68 25 24 25 C23.97421875 24.37351563 23.9484375 23.74703125 23.921875 23.1015625 C23.86515625 22.28429687 23.8084375 21.46703125 23.75 20.625 C23.70359375 19.81289062 23.6571875 19.00078125 23.609375 18.1640625 C23.40828125 17.44992188 23.2071875 16.73578125 23 16 C21.69070359 15.28728326 20.35182053 14.62833388 19 14 C15.89083094 12.07124769 12.8574129 10.02834732 9.8125 8 C8.98041016 7.4534375 8.14832031 6.906875 7.29101562 6.34375 C6.50017578 5.8178125 5.70933594 5.291875 4.89453125 4.75 C4.17112549 4.27046875 3.44771973 3.7909375 2.70239258 3.296875 C1 2 1 2 0 0 Z " fill="#F1F1F5" transform="translate(88,182)"/>
<path d="M0 0 C-3.56914381 3.56914381 -8.91441645 3.0506915 -13.74194336 3.11352539 C-15.52458466 3.11336889 -17.30723146 3.10782888 -19.08984375 3.09765625 C-20.03436905 3.0962413 -20.97889435 3.09482635 -21.95204163 3.09336853 C-24.94722763 3.0878036 -27.94233687 3.07525767 -30.9375 3.0625 C-32.97721246 3.05748046 -35.01692609 3.05291835 -37.05664062 3.04882812 C-42.03778966 3.03784567 -47.01888185 3.0206054 -52 3 C-52.33 2.34 -52.66 1.68 -53 1 C-47.70221074 0.85517168 -42.40436116 0.71287511 -37.10644531 0.57275391 C-35.31052898 0.52491845 -33.51462978 0.47643471 -31.71875 0.42724609 C-21.14243308 0.13804993 -10.58115449 -0.07927608 0 0 Z " fill="#E72007" transform="translate(281,407)"/>
<path d="M0 0 C2.75317102 1.41830022 3.46210416 3.31944056 4.52734375 6.1484375 C5.29352934 8.88880933 5.39018198 11.24443501 5.0625 14.0625 C4.4025 14.7225 3.7425 15.3825 3.0625 16.0625 C0.4375 15.6875 0.4375 15.6875 -1.9375 15.0625 C-3.37055609 10.58419972 -4.38036767 6.82332745 -3.9375 2.0625 C-1.9375 0.0625 -1.9375 0.0625 0 0 Z " fill="#100D59" transform="translate(287.9375,370.9375)"/>
<path d="M0 0 C0.70189453 0.00451172 1.40378906 0.00902344 2.12695312 0.01367188 C3.85550538 0.02543073 5.58401365 0.04336546 7.3125 0.0625 C7.3125 0.3925 7.3125 0.7225 7.3125 1.0625 C6.10013672 1.22685547 6.10013672 1.22685547 4.86328125 1.39453125 C3.26033203 1.63236328 3.26033203 1.63236328 1.625 1.875 C0.56925781 2.02582031 -0.48648438 2.17664063 -1.57421875 2.33203125 C-5.46275638 3.2443983 -8.62243919 4.3569131 -10.8046875 7.8515625 C-11.05476562 8.45742187 -11.30484375 9.06328125 -11.5625 9.6875 C-13.6875 13.0625 -13.6875 13.0625 -17.4375 14 C-18.51 14.020625 -19.5825 14.04125 -20.6875 14.0625 C-20.27061525 9.19884454 -18.27530535 7.23311868 -14.6875 4.0625 C-9.93855417 0.15160343 -5.98673874 -0.07266816 0 0 Z " fill="#F2DFB1" transform="translate(245.6875,199.9375)"/>
<path d="M0 0 C2.375 0.0625 2.375 0.0625 5 1 C8.30935464 5.67874276 8.28461911 9.49736379 8 15 C6.1875 15.6875 6.1875 15.6875 4 16 C0.70780563 13.84741137 -0.06223093 10.67894018 -1 7 C-1.1875 3.6875 -1.1875 3.6875 -1 1 C-0.67 0.67 -0.34 0.34 0 0 Z " fill="#0E0A58" transform="translate(311,364)"/>
<path d="M0 0 C0.33 0 0.66 0 1 0 C1.37368254 7.09996828 0.21615679 13.46197418 -1.34375 20.3515625 C-2.01248065 24.06938648 -2.40026388 27.23842921 -2 31 C-0.31045778 32.8873935 -0.31045778 32.8873935 2 34.0625 C4.21875 35.51171875 4.21875 35.51171875 6 37 C6.5 40.375 6.5 40.375 6 43 C1.97926001 41.62146058 -0.95771559 39.99191546 -4 37 C-6.54722396 25.26062 -2.37572401 11.52636843 0 0 Z " fill="#CEAE69" transform="translate(155,287)"/>
<path d="M0 0 C-2.43019216 2.43019216 -3.95412334 2.65328533 -7.27734375 3.4375 C-8.88512695 3.82035156 -8.88512695 3.82035156 -10.52539062 4.2109375 C-11.65138672 4.47132813 -12.77738281 4.73171875 -13.9375 5 C-15.57428711 5.39058594 -15.57428711 5.39058594 -17.24414062 5.7890625 C-22.50055818 7.02733814 -27.76895052 8.20019664 -33.06640625 9.25 C-33.92306885 9.42015625 -34.77973145 9.5903125 -35.66235352 9.765625 C-38.1156915 10.01159936 -39.69557894 9.85227345 -42 9 C-42.66 8.34 -43.32 7.68 -44 7 C-43.16359985 6.89510254 -43.16359985 6.89510254 -42.31030273 6.78808594 C-30.38674632 5.26441833 -11.13411573 -2.70829842 0 0 Z " fill="#DB1E0B" transform="translate(321,399)"/>
<path d="M0 0 C0.33 0 0.66 0 1 0 C1.48893131 5.37824444 1.48893131 5.37824444 -0.52148438 7.93481445 C-3.74482245 10.62061201 -7.17308283 12.40726349 -10.90625 14.29296875 C-11.66796509 14.68446609 -12.42968018 15.07596344 -13.21447754 15.47932434 C-14.81966117 16.30229647 -16.4267628 17.12153703 -18.03564453 17.93725586 C-20.4959529 19.18544678 -22.94949551 20.44620721 -25.40234375 21.70898438 C-26.96576278 22.50856194 -28.5295526 23.30741497 -30.09375 24.10546875 C-30.82613892 24.48148727 -31.55852783 24.8575058 -32.31311035 25.24491882 C-38.90683945 28.5766026 -38.90683945 28.5766026 -42 29 C-42.99 28.34 -43.98 27.68 -45 27 C-44.46270264 26.83781982 -43.92540527 26.67563965 -43.37182617 26.50854492 C-37.38724049 24.61898114 -31.8947565 22.16538613 -26.3125 19.3125 C-25.44834473 18.87260742 -24.58418945 18.43271484 -23.69384766 17.97949219 C-21.12418438 16.6625219 -18.56177072 15.33224221 -16 14 C-15.25766113 13.62085449 -14.51532227 13.24170898 -13.75048828 12.85107422 C-11.77971017 11.83875442 -9.82554884 10.80065606 -7.875 9.75 C-6.23144531 8.87601562 -6.23144531 8.87601562 -4.5546875 7.984375 C-1.46940395 5.58785506 -0.85843799 3.75169195 0 0 Z " fill="#4B4A82" transform="translate(461,262)"/>
<path d="M0 0 C-1.33162581 2.66325162 -2.42288464 2.68940339 -5.1953125 3.6875 C-11.37390003 6.06303383 -17.2018264 9.0107106 -23.0703125 12.06347656 C-24.88871107 13.00711521 -26.71356764 13.93736569 -28.5390625 14.8671875 C-29.69921875 15.46789062 -30.859375 16.06859375 -32.0546875 16.6875 C-33.10124512 17.22761719 -34.14780273 17.76773438 -35.22607422 18.32421875 C-39.13262297 20.68423905 -41.47968555 23.21952832 -44 27 C-44.375 24.8125 -44.375 24.8125 -44 22 C-39.14065039 17.18094351 -33.43242926 14.50140825 -27.3125 11.5625 C-25.3402715 10.60074924 -23.36890616 9.63722627 -21.3984375 8.671875 C-19.99416504 7.98448242 -19.99416504 7.98448242 -18.56152344 7.28320312 C-14.65139757 5.32441342 -10.87350971 3.17216854 -7.12109375 0.92578125 C-4.61223268 -0.16924651 -2.70918673 -0.17616856 0 0 Z " fill="#E6E6EE" transform="translate(443,231)"/>
<path d="M0 0 C4.02601071 1.37543426 6.68002281 3.21310401 9.875 6 C16.93575299 11.93372967 24.7279607 17.86398035 33 22 C32.505 23.485 32.505 23.485 32 25 C23.01113445 19.37531046 14.3670423 13.52882846 6 7 C5.31421875 6.47019531 4.6284375 5.94039062 3.921875 5.39453125 C2.56962351 4.31715331 1.27451528 3.16830567 0 2 C0 1.34 0 0.68 0 0 Z " fill="#16054E" transform="translate(109,225)"/>
<path d="M0 0 C4.43090471 1.20842856 6.98112756 2.51668565 10 6 C9.01 7.32 8.02 8.64 7 10 C3.00544473 9.38545304 0.25533664 7.29353263 -3 5 C-2.01 3.35 -1.02 1.7 0 0 Z " fill="#8887AD" transform="translate(140,235)"/>
<path d="M0 0 C0.73828125 1.6953125 0.73828125 1.6953125 1 4 C-4.14572448 12.0162186 -11.66402303 16.83201151 -20 21 C-21.93359586 21.14851844 -23.87342097 21.22130833 -25.8125 21.25 C-26.85019531 21.27578125 -27.88789063 21.3015625 -28.95703125 21.328125 C-32.36151636 20.96101749 -34.22392285 19.9499248 -37 18 C-36.34 17.67 -35.68 17.34 -35 17 C-34.443125 17.309375 -33.88625 17.61875 -33.3125 17.9375 C-28.03312794 20.36315743 -22.56715696 19.01512137 -17.33203125 17.09765625 C-9.34073679 13.3362597 -4.35383971 7.52958161 0 0 Z " fill="#F3F3F7" transform="translate(418,205)"/>
<path d="M0 0 C2 1.75 2 1.75 4 4 C4 5.32 4 6.64 4 8 C-9.86 7.505 -9.86 7.505 -24 7 C-24 6.67 -24 6.34 -24 6 C-22.92621094 5.96261719 -21.85242188 5.92523438 -20.74609375 5.88671875 C-19.3098638 5.82100888 -17.87366738 5.75456332 -16.4375 5.6875 C-15.73302734 5.66494141 -15.02855469 5.64238281 -14.30273438 5.61914062 C-9.24458195 5.36273658 -5.50708389 4.34925222 -1 2 C-0.67 1.34 -0.34 0.68 0 0 Z " fill="#926A25" transform="translate(262,206)"/>
<path d="M0 0 C1.86398438 0.00676758 1.86398438 0.00676758 3.765625 0.01367188 C6.80213502 0.02535076 9.83854088 0.0417286 12.875 0.0625 C12.875 0.3925 12.875 0.7225 12.875 1.0625 C0.5 1.5575 0.5 1.5575 -12.125 2.0625 C-12.125 3.0525 -12.125 4.0425 -12.125 5.0625 C-14.41331672 5.61814871 -16.70580365 6.15664974 -19 6.6875 C-20.27617187 6.98914063 -21.55234375 7.29078125 -22.8671875 7.6015625 C-23.94226563 7.75367188 -25.01734375 7.90578125 -26.125 8.0625 C-26.785 7.4025 -27.445 6.7425 -28.125 6.0625 C-18.71497722 3.76637244 -18.71497722 3.76637244 -14.125 4.0625 C-14.125 3.4025 -14.125 2.7425 -14.125 2.0625 C-17.425 2.0625 -20.725 2.0625 -24.125 2.0625 C-24.125 1.7325 -24.125 1.4025 -24.125 1.0625 C-16.07026218 0.03094464 -8.1118879 -0.05645318 0 0 Z " fill="#D8B567" transform="translate(249.125,217.9375)"/>
<path d="M0 0 C3.3 1.65 6.6 3.3 10 5 C10 6.98 10 8.96 10 11 C6.7 9.35 3.4 7.7 0 6 C0 4.02 0 2.04 0 0 Z " fill="#C4B6A5" transform="translate(166,328)"/>
<path d="M0 0 C0.61875 0.66 1.2375 1.32 1.875 2 C5.90831691 6.05669845 10.50211453 9.48029545 15 13 C14.67 13.99 14.34 14.98 14 16 C10.15387636 14.43306074 7.87587769 11.94435097 5 9 C3.03300834 7.28876376 1.02249251 5.64621483 -1 4 C-0.67 2.68 -0.34 1.36 0 0 Z " fill="#1C125A" transform="translate(70,190)"/>
<path d="M0 0 C4.53847198 1.34927545 8.31932246 3.19159348 12.375 5.625 C13.43460938 6.25664062 14.49421875 6.88828125 15.5859375 7.5390625 C16.38257813 8.02117187 17.17921875 8.50328125 18 9 C18 7.02 18 5.04 18 3 C18.66 3.33 19.32 3.66 20 4 C19.67 6.64 19.34 9.28 19 12 C16.76955389 10.89835882 14.54064354 9.79378106 12.3125 8.6875 C11.68666016 8.37876953 11.06082031 8.07003906 10.41601562 7.75195312 C3.08399725 4.1051377 3.08399725 4.1051377 0 2 C0 1.34 0 0.68 0 0 Z " fill="#7B7AA4" transform="translate(125,290)"/>
<path d="M0 0 C-1 3 -1 3 -4.3515625 4.9375 C-5.77104554 5.63525714 -7.19581098 6.32234531 -8.625 7 C-9.32496094 7.34289062 -10.02492188 7.68578125 -10.74609375 8.0390625 C-15.11055204 10.16056171 -19.52613197 12.12121027 -24 14 C-22.75284002 10.25852005 -21.80022731 10.06789342 -18.37890625 8.30078125 C-17.44369141 7.81416016 -16.50847656 7.32753906 -15.54492188 6.82617188 C-14.56072266 6.32666016 -13.57652344 5.82714844 -12.5625 5.3125 C-11.09200195 4.54583008 -11.09200195 4.54583008 -9.59179688 3.76367188 C-2.29057493 0 -2.29057493 0 0 0 Z " fill="#F1F1F5" transform="translate(377,282)"/>
<path d="M0 0 C4.07376031 1.61010527 6.76507069 4.53822271 9.75 7.625 C10.25660156 8.140625 10.76320313 8.65625 11.28515625 9.1875 C12.52803902 10.45383339 13.76465276 11.7263144 15 13 C14.01 13.33 13.02 13.66 12 14 C7.34804197 10.92416738 3.1436191 6.58444453 0 2 C0 1.34 0 0.68 0 0 Z " fill="#D61D0D" transform="translate(99,348)"/>
<path d="M0 0 C0.9075 0.78375 1.815 1.5675 2.75 2.375 C7.19171571 6.18997055 11.71223193 9.90918216 16.23046875 13.6328125 C18.60868517 15.66553344 20.82855627 17.75081962 23 20 C22.34 20.99 21.68 21.98 21 23 C20.67 22.31292969 20.34 21.62585938 20 20.91796875 C17.25751862 16.91673126 13.79182561 14.29130962 10 11.3125 C9.27554688 10.73177734 8.55109375 10.15105469 7.8046875 9.55273438 C4.92228057 7.25265874 2.07059267 5.04706178 -1 3 C-0.67 2.01 -0.34 1.02 0 0 Z " fill="#9797B7" transform="translate(72,190)"/>
<path d="M0 0 C0.99 0 1.98 0 3 0 C-0.02322074 7.29411987 -8.30296592 11.43774783 -15 15 C-15 14.01 -15 13.02 -15 12 C-13.2421875 10.60546875 -13.2421875 10.60546875 -10.875 9.1875 C-7.74956671 7.22673289 -5.14727647 5.31924986 -2.625 2.625 C-1.75875 1.75875 -0.8925 0.8925 0 0 Z " fill="#CACADB" transform="translate(417,211)"/>
<path d="M0 0 C0.66 3.3 1.32 6.6 2 10 C0.35 10.33 -1.3 10.66 -3 11 C-3.66 8.03 -4.32 5.06 -5 2 C-2 0 -2 0 0 0 Z " fill="#8685AB" transform="translate(352,295)"/>
<path d="M0 0 C0.33 1.32 0.66 2.64 1 4 C-0.74122549 5.03572896 -2.49336595 6.0531252 -4.25 7.0625 C-5.71179688 7.91521484 -5.71179688 7.91521484 -7.203125 8.78515625 C-10 10 -10 10 -12.359375 9.68359375 C-12.90078125 9.45800781 -13.4421875 9.23242188 -14 9 C-10.33997803 5.94998169 -4.92148529 2 0 2 C0 1.34 0 0.68 0 0 Z " fill="#73729E" transform="translate(380,289)"/>
<path d="M0 0 C0.66 0.99 1.32 1.98 2 3 C-0.59748082 4.5333805 -3.20187896 6.05179668 -5.8125 7.5625 C-6.55048828 8.00013672 -7.28847656 8.43777344 -8.04882812 8.88867188 C-8.76103516 9.29794922 -9.47324219 9.70722656 -10.20703125 10.12890625 C-11.18893433 10.70233765 -11.18893433 10.70233765 -12.19067383 11.28735352 C-14 12 -14 12 -17 11 C-12.95023936 8.37196384 -8.92022631 5.90074136 -4.5625 3.8125 C-0.96576424 2.42685436 -0.96576424 2.42685436 0 0 Z " fill="#7F7FA7" transform="translate(403,276)"/>
<path d="M0 0 C-3.4846789 2.32311927 -6.86511634 3.11241045 -10.875 4.0625 C-11.58269531 4.23587891 -12.29039062 4.40925781 -13.01953125 4.58789062 C-15.00990842 5.07158564 -17.00486034 5.53634078 -19 6 C-19.95132813 6.24621094 -20.90265625 6.49242187 -21.8828125 6.74609375 C-22.93082031 6.87177734 -22.93082031 6.87177734 -24 7 C-24.66 6.34 -25.32 5.68 -26 5 C-22.60641656 4.15731913 -19.20980915 3.32752099 -15.8125 2.5 C-14.85279297 2.26152344 -13.89308594 2.02304688 -12.90429688 1.77734375 C-11.97294922 1.55175781 -11.04160156 1.32617188 -10.08203125 1.09375 C-9.22843018 0.88427734 -8.3748291 0.67480469 -7.49536133 0.45898438 C-4.94053693 -0.01093734 -2.59155241 -0.08117627 0 0 Z " fill="#E5A815" transform="translate(217,221)"/>
<path d="M0 0 C0.66 0.33 1.32 0.66 2 1 C1.25 7.625 1.25 7.625 -1 11 C-2.32 10.67 -3.64 10.34 -5 10 C-4.55090939 8.51800098 -4.09043436 7.03944764 -3.625 5.5625 C-3.36976563 4.73878906 -3.11453125 3.91507813 -2.8515625 3.06640625 C-2 1 -2 1 0 0 Z " fill="#DDDDE7" transform="translate(422,200)"/>
<path d="M0 0 C3.99500618 1.3697164 6.80009492 3.25722422 10 6 C8.4375 7.25 8.4375 7.25 6 8 C3.42998985 6.93237266 1.3469597 5.53455057 -1 4 C-0.67 2.68 -0.34 1.36 0 0 Z " fill="#3F3E7B" transform="translate(136,240)"/>
<path d="M0 0 C3.91593446 0.78318689 7.36406635 2.39179858 11 4 C10.01 5.485 10.01 5.485 9 7 C5.00544473 6.38545304 2.25533664 4.29353263 -1 2 C-0.67 1.34 -0.34 0.68 0 0 Z " fill="#6D6C9B" transform="translate(138,238)"/>
<path d="M0 0 C2.5 -0.5 2.5 -0.5 6 0 C8.95370122 2.41377734 11.48389665 5.13904999 14 8 C13.34 8.66 12.68 9.32 12 10 C11.55269531 9.50628906 11.10539063 9.01257813 10.64453125 8.50390625 C6.22045221 3.58736273 6.22045221 3.58736273 0 2 C0 1.34 0 0.68 0 0 Z " fill="#EF2105" transform="translate(130,317)"/>
<path d="M0 0 C-1 3 -1 3 -3.06640625 4.16796875 C-3.89011719 4.50441406 -4.71382813 4.84085937 -5.5625 5.1875 C-6.38878906 5.53167969 -7.21507812 5.87585938 -8.06640625 6.23046875 C-8.70449219 6.48441406 -9.34257812 6.73835938 -10 7 C-9.9375 4.6875 -9.9375 4.6875 -9 2 C-2.7826087 -1.39130435 -2.7826087 -1.39130435 0 0 Z " fill="#E32008" transform="translate(356,284)"/>
<path d="M0 0 C4.35522853 0.50642192 7.44239635 1.38411497 11 4 C11 4.66 11 5.32 11 6 C5 4.5 5 4.5 -1 3 C-0.67 2.01 -0.34 1.02 0 0 Z " fill="#E6E6EE" transform="translate(50,243)"/>
<path d="M0 0 C-3.16275494 2.10850329 -6.13471538 3.28830876 -9.6875 4.625 C-10.86699219 5.07101563 -12.04648438 5.51703125 -13.26171875 5.9765625 C-14.16535156 6.31429687 -15.06898438 6.65203125 -16 7 C-16.33 6.01 -16.66 5.02 -17 4 C-15.10751181 3.32389577 -13.2108398 2.65949561 -11.3125 2 C-10.25675781 1.62875 -9.20101562 1.2575 -8.11328125 0.875 C-5.21637944 0.0608143 -2.98299377 -0.17709796 0 0 Z " fill="#FFC121" transform="translate(223,225)"/>
<path d="M0 0 C2.5 1.1875 2.5 1.1875 5 3 C5.3125 5.6875 5.3125 5.6875 5 8 C2.525 7.01 2.525 7.01 0 6 C0 4.02 0 2.04 0 0 Z " fill="#C48F18" transform="translate(161,325)"/>
<path d="M0 0 C0 0.66 0 1.32 0 2 C-6.48605578 4.5059761 -6.48605578 4.5059761 -10 3 C-10.66 2.34 -11.32 1.68 -12 1 C-7.915021 0.45533613 -4.1274515 0 0 0 Z " fill="#B61917" transform="translate(289,405)"/>
<path d="M0 0 C3.3 0.66 6.6 1.32 10 2 C9.67 3.32 9.34 4.64 9 6 C4.05 4.02 4.05 4.02 -1 2 C-0.67 1.34 -0.34 0.68 0 0 Z " fill="#C21B13" transform="translate(137,284)"/>
<path d="M0 0 C4.455 2.97 4.455 2.97 9 6 C7.02 6.99 7.02 6.99 5 8 C1.91763635 5.21592961 1.04793663 4.19174654 0 0 Z " fill="#7676A1" transform="translate(115,225)"/>
<path d="M0 0 C-0.33 0.99 -0.66 1.98 -1 3 C-4.5625 4.6875 -4.5625 4.6875 -8 6 C-8.66 5.34 -9.32 4.68 -10 4 C-8.71086513 3.32845067 -7.41859796 2.66291141 -6.125 2 C-5.40570313 1.62875 -4.68640625 1.2575 -3.9453125 0.875 C-2 0 -2 0 0 0 Z " fill="#DFDFE9" transform="translate(377,282)"/>
<path d="M0 0 C1.58409994 0.11487748 3.16728963 0.24234508 4.75 0.375 C6.07257813 0.47941406 6.07257813 0.47941406 7.421875 0.5859375 C9.99066382 0.99850055 11.75841015 1.71160957 14 3 C8.87160006 4.81975482 4.82315618 2.8599099 0 1 C0 0.67 0 0.34 0 0 Z " fill="#503839" transform="translate(286,234)"/>
<path d="M0 0 C0.66 0.33 1.32 0.66 2 1 C0.25 3.0625 0.25 3.0625 -2 5 C-4.25 4.75 -4.25 4.75 -6 4 C-4.03617993 2.49440461 -2.21736634 1.10868317 0 0 Z " fill="#7E7EA6" transform="translate(372,294)"/>
<path d="M0 0 C2.9719385 1.12451727 5.33440687 2.22293791 8 4 C5.39417629 4.93065133 4.35801776 5.14917407 1.75 4.0625 C1.1725 3.711875 0.595 3.36125 0 3 C0 2.01 0 1.02 0 0 Z " fill="#D51D0D" transform="translate(145,383)"/>
<path d="M0 0 C1.32 0 2.64 0 4 0 C3.67 1.65 3.34 3.3 3 5 C2.01 4.67 1.02 4.34 0 4 C0 2.68 0 1.36 0 0 Z " fill="#0E0B58" transform="translate(51,247)"/>
<path d="M0 0 C0.99 0.33 1.98 0.66 3 1 C2.39816251 3.02045442 1.72693904 5.02111039 1 7 C0.01 7.495 0.01 7.495 -1 8 C-1.125 2.25 -1.125 2.25 0 0 Z " fill="#ABABC5" transform="translate(421,203)"/>
<path d="M0 0 C0.33 0.66 0.66 1.32 1 2 C1.61875 1.79375 2.2375 1.5875 2.875 1.375 C3.57625 1.25125 4.2775 1.1275 5 1 C5.66 1.66 6.32 2.32 7 3 C5.02 3.66 3.04 4.32 1 5 C0.67 3.35 0.34 1.7 0 0 Z " fill="#4B4983" transform="translate(348,304)"/>
<path d="M0 0 C0.7425 0.0825 1.485 0.165 2.25 0.25 C-0.68828597 2.75298434 -2.92902761 3.71930939 -6.75 4.25 C-3.42692308 0.31153846 -3.42692308 0.31153846 0 0 Z " fill="#75749F" transform="translate(392.75,283.75)"/>
<path d="M0 0 C0.99 0 1.98 0 3 0 C2.34 1.32 1.68 2.64 1 4 C-0.32 4 -1.64 4 -3 4 C-1.6875 2 -1.6875 2 0 0 Z " fill="#A3A2BF" transform="translate(417,211)"/>
</svg>
